<?xml version="1.0" standalone="yes"?>
<svg width="100%" height="100%" version="1.1"
 xmlns = 'http://www.w3.org/2000/svg'>
<defs>
<font id="Aloisen;" horiz-adv-x="1000" >
  <font-face 
    font-family="Aloisen New"
    units-per-em="500" cap-height="600" x-height="400"
          ascent="700" descent="300"
          alphabetic="0" mathematical="350" ideographic="400" hanging="500"
  />
<glyph unicode="group" horiz-adv-x="80" d="M5.25,147.193c-0.24-7.15,0.685-14.153,1.633-21.169c0.898-6.642,1.897-13.29,2.368-19.987c0.588-8.364-1.47-15.642-7.212-20.834C1.968,85.139,1.941,85,1.877,84.859c0.28-0.276,0.533-0.528,0.787-0.777c3.551-3.498,5.676-7.998,6.368-13.546C9.719,65.025,9.131,59.597,8.43,54.17c-1.021-7.896-2.264-15.76-2.995-23.696C4.629,21.723,5.482,13.13,8.772,5.138C9.422,3.559,9.603,2.035,9.338,0C9.16,0.346,9.104,0.454,9.049,0.563C1.763,14.979-1.077,30.265,3.006,46.936c1.2,4.899,2.391,9.807,3.445,14.756c1.833,8.603,0.066,15.988-5.222,22.071C0.913,84.125,0.558,84.439,0,84.997c0.477,0.419,0.796,0.642,1.058,0.94c5.147,5.86,7.227,12.978,5.515,21.455c-1.073,5.311-2.437,10.533-3.62,15.812c-1.568,6.994-2.294,14.082-1.516,21.346c0.938,8.762,3.664,16.687,7.324,24.19c0.158,0.322,0.338,0.629,0.594,1.104c0.208-1.895,0.118-3.409-0.548-5.001C6.496,159.325,5.458,153.38,5.25,147.193z"/>

<missing-glyph horiz-adv-x="800" 
d="M50 0v800h700v-800h-700zM700 50v700h-600v-700h600z" />
    <glyph glyph-name=".notdef;" horiz-adv-x="800" 
d="M50 0v800h700v-800h-700zM700 50v700h-600v-700h600z" />
    <glyph glyph-name=".null;" horiz-adv-x="0" 
 />
    <glyph glyph-name="nonmarkingreturn;" horiz-adv-x="270" 
 />
    <glyph glyph-name="space" unicode="&#x120;" horiz-adv-x="270" 
 />
    <glyph glyph-name="exclam" unicode="&#x121;" horiz-adv-x="224" 
d="M146 -347v180l-68 -17v-195h-30v187l-48 -12v104l48 12v143l-48 -12v101l48 12v195h30v-187l68 17v194h30v-187l48 12v-101l-48 -12v-143l48 12v-104l-48 -12v-187h-30zM78 63v-143l68 17v143z" />
    <glyph glyph-name="quotedbl" unicode="&#x122;" horiz-adv-x="198" 
d="M0 -178v669h30v-391q49 38 89 38q30 0 54.5 -25t24.5 -59q0 -21 -8 -39.5t-27 -40t-65 -57.5q-34 -27 -98 -95zM30 55v-167l59 72q35 49 35 85q0 48 -39 54q-15 3 -36 -15q-18 -18 -19 -29z" />
    <glyph glyph-name="numbersign" unicode="&#x123;" horiz-adv-x="176" 
d="M0 -181v531h30v-206l146 37v-531h-30v206zM30 49v-127l116 29v127z" />
    <glyph glyph-name="dollar" unicode="&#x124;" horiz-adv-x="266" 
d="M266 -135h-90l-8 59q-4 34 -35 37q-30 0 -36 -36l-10 -60h-87v85l56 8q10 0 23 11t13 25q0 29 -36 35l-56 8v85h87l10 -60q6 -36 36 -36q29 0 35 37l8 59h90v-86l-57 -10q-36 -6 -36 -32q0 -27 36 -33l57 -10v-86z" />
    <glyph glyph-name="percent" unicode="&#x125;" horiz-adv-x="367" 
d="M169 -178v669h30v-391q49 38 89 38q30 0 54.5 -25t24.5 -59q0 -21 -8 -39.5t-27 -40t-65 -57.5q-34 -27 -98 -95zM0 -178v669h30v-391q49 38 89 38q30 0 54.5 -25t24.5 -59q0 -21 -8 -39.5t-27 -40t-65 -57.5q-34 -27 -98 -95zM199 55v-167l59 72q35 49 35 85
q0 48 -39 54q-15 3 -36 -15q-18 -18 -19 -29zM30 55v-167l59 72q35 49 35 85q0 48 -39 54q-15 3 -36 -15q-18 -18 -19 -29z" />
    <glyph glyph-name="ampersand" unicode="&#x126;" horiz-adv-x="550" 
d="M550 0q0 -90 -66 -176q-57 -75 -124 -99q86 65 118 126q14 29 21 64.5t7 84.5q0 93 -29.5 150.5t-116.5 123.5q67 -24 126 -104q64 -84 64 -170zM386 -157l-48 -12v-187h-30v180l-68 -17v-195h-30v187l-48 -12v104l48 12v143l-48 -12v101l48 12v195h30v-187l68 17v194h30
v-187l48 12v-101l-48 -12v-143l48 12v-104zM193 -275q-66 25 -125 99q-65 85 -65 176q0 83 65 170q58 77 125 104q-86 -64 -118 -126q-14 -29 -21 -64.5t-7 -83.5q0 -93 29 -151.5t117 -123.5zM308 -72v143l-68 -17v-143z" />
    <glyph glyph-name="quotesingle" unicode="&#x127;" horiz-adv-x="576" 
d="M213 -178v669h30v-391q49 38 89 38q30 0 54.5 -25t24.5 -59q0 -21 -8 -39.5t-27 -40t-65 -57.5q-34 -27 -98 -95zM165 -265l-8 -10q-157 106 -157 282q0 169 159 268l6 -10q-110 -75 -110 -252q0 -93 18 -150q24 -75 92 -128zM417 -275l-6 10q110 77 110 252
q0 97 -19 154q-24 78 -91 124l8 10q42 -20 88 -80q69 -90 69 -206q0 -81 -42.5 -151t-116.5 -113zM243 55v-167l59 72q35 49 35 85q0 48 -39 54q-15 3 -36 -15q-18 -18 -19 -29z" />
    <glyph glyph-name="parenleft" unicode="&#x128;" horiz-adv-x="574" 
d="M199 -181v531h30v-206l146 37v-531h-30v206zM165 -265l-8 -10q-157 106 -157 282q0 169 159 268l6 -10q-110 -75 -110 -252q0 -93 18 -150q24 -75 92 -128zM415 -275l-6 10q110 77 110 252q0 97 -19 154q-24 78 -91 124l8 10q42 -20 88 -80q69 -90 69 -206
q0 -81 -42.5 -151t-116.5 -113zM229 49v-127l116 29v127z" />
    <glyph glyph-name="parenright" unicode="&#x129;" horiz-adv-x="479" 
d="M479 0q0 -66 -47 -128q-40 -50 -90 -70q62 47 84.5 90.5t22.5 107.5q0 65 -23 107q-21 42 -84 90q47 -18 90 -75q47 -62 47 -122zM372 -135h-90l-8 59q-4 34 -35 37q-30 0 -36 -36l-10 -60h-87v85l56 8q10 0 23 11t13 25q0 29 -36 35l-56 8v85h87l10 -60q6 -36 36 -36
q29 0 35 37l8 59h90v-86l-57 -10q-36 -6 -36 -32q0 -27 36 -33l57 -10v-86zM137 -198q-48 18 -90 72q-47 61 -47 126q0 60 47 122q42 57 90 75q-61 -45 -84.5 -89.5t-23.5 -107.5q0 -67 22.5 -109t85.5 -89z" />
    <glyph glyph-name="asterisk" unicode="&#x12a;" horiz-adv-x="777" 
d="M405 -178v669h30v-391q49 38 89 38q30 0 54.5 -25t24.5 -59q0 -21 -8 -39.5t-27 -40t-65 -57.5q-34 -27 -98 -95zM236 -178v669h30v-391q49 38 89 38q30 0 54.5 -25t24.5 -59q0 -21 -8 -39.5t-27 -40t-65 -57.5q-34 -27 -98 -95zM165 -265l-8 -10q-157 106 -157 282
q0 169 159 268l6 -10q-110 -75 -110 -252q0 -93 18 -150q24 -75 92 -128zM618 -275l-6 10q110 77 110 252q0 97 -19 154q-24 78 -91 124l8 10q42 -20 88 -80q69 -90 69 -206q0 -81 -42.5 -151t-116.5 -113zM435 55v-167l59 72q35 49 35 85q0 48 -39 54q-15 3 -36 -15
q-18 -18 -19 -29zM266 55v-167l59 72q35 49 35 85q0 48 -39 54q-15 3 -36 -15q-18 -18 -19 -29z" />
    <glyph glyph-name="plus" unicode="&#x12b;" horiz-adv-x="112" 
d="M112 -83l-24 -6v-80h-15v76l-34 -8v-101h-15v97l-24 -6v52l24 6v72l-24 -6v50l24 6v78h15v-74l34 9v97h15v-94l24 6v-51l-24 -6v-71l24 6v-52zM73 -41v72l-34 -8v-72z" />
    <glyph glyph-name="comma" unicode="&#x12c;" horiz-adv-x="95" 
d="M95 18q0 -33 -46 -69q-10 -8 -15 -13q-14 -13 -34 -34v335h15v-196q25 19 45 19q15 0 25 -13t10 -29zM62 13q0 24 -19 27q-9 0 -18 -7.5t-10 -14.5v-83q47 53 47 78z" />
    <glyph glyph-name="hyphen" unicode="&#x12d;" horiz-adv-x="88" 
d="M88 -201h-15v114l-73 -18v282h15v-119l73 18v-277zM73 -39v63l-58 -15v-62z" />
    <glyph glyph-name="period" unicode="&#x12e;" horiz-adv-x="133" 
d="M133 -68h-45l-4 30q-2 17 -17 18q-18 0 -18 -18l-5 -30h-44v43l28 4q2 1 4.5 2t7 4.5t6.5 11.5q0 15 -18 18l-28 4v42h44l5 -30q0 -18 18 -18q14 0 17 19l4 29h45v-43l-28 -5q-18 -3 -18 -16q0 -12 18 -17l28 -5v-43z" />
    <glyph glyph-name="slash" unicode="&#x12f;" horiz-adv-x="184" 
d="M184 19q0 -30 -50 -70q-10 -8 -15 -13q-14 -13 -34 -34v334h15v-194q25 19 44 19q15 0 27.5 -13t12.5 -29zM99 19q0 -30 -50 -70q-10 -8 -15 -13q-14 -13 -34 -34v334h15v-194q25 19 45 19q15 0 27 -12.5t12 -29.5zM147 13q0 27 -20 27q-9 0 -18 -8t-9 -14v-83
q47 56 47 78zM62 13q0 27 -19 27q-8 0 -17 -7t-11 -15v-83q47 53 47 78z" />
    <glyph glyph-name="zero" unicode="&#x130;" horiz-adv-x="360" 
d="M360 0q0 -74 -42 -139q-51 -78 -138 -78t-138 78q-42 63 -42 139q0 74 42 140q51 78 138 78t138 -78q42 -63 42 -140zM256 -1q0 64 -13 113q-20 75 -63 75q-42 0 -63 -75q-13 -54 -13 -113q0 -185 76 -185t76 185z" />
    <glyph glyph-name="one" unicode="&#x131;" horiz-adv-x="250" 
d="M250 -209h-209v31q32 0 43 17q8 13 8 47v209l-68 -108l-24 10l91 212h108v-323q0 -34 9 -47.5t42 -16.5v-31z" />
    <glyph glyph-name="two" unicode="&#x132;" horiz-adv-x="340" 
d="M340 -60q0 -157 -103 -157q-32 0 -74 32t-69 35q-11 0 -19.5 -1.5t-21.5 -11.5q-19 -16 -19 -39h-31l-3 25q0 48 51 93q14 11 95.5 62t81.5 125q0 83 -75 83q-65 0 -65 -27q0 -5 27 -23q28 -16 28 -47q0 -24 -20.5 -42t-45.5 -18q-66 6 -66 66q0 51 39 86q46 37 136 37
q69 0 110 -38q36 -33 36 -84q0 -49 -43 -83q-21 -16 -91 -47q-63 -26 -85 -46l37 1q54 0 103 -29q9 -6 21 -6q36 0 36 54h30z" />
    <glyph glyph-name="three" unicode="&#x133;" horiz-adv-x="324" 
d="M324 -90q0 -66 -55 -100q-45 -27 -113 -27q-61 0 -101 20q-55 26 -55 80q0 26 19 45.5t46 19.5q26 0 44 -17.5t18 -43.5q0 -13 -7 -24l-14 -23q-3 -22 25 -26q21 0 35 4.5t28 17.5q26 24 26 62q0 95 -122 95v31q58 0 86.5 19t28.5 65q0 80 -75 80q-43 0 -43 -20
q3 -3 4 -5q6 -7 13 -13q18 -14 18 -45q0 -20 -18 -37q-18 -15 -44 -15t-43 18t-17 43q0 54 56 82q21 10 44 16t51 6q33 0 57 -5.5t49 -19.5q54 -32 54 -91q0 -32 -26 -58t-74 -35q20 -1 37.5 -8.5t33.5 -20.5q34 -26 34 -70z" />
    <glyph glyph-name="four" unicode="&#x134;" horiz-adv-x="329" 
d="M329 -95h-49v-19q0 -34 8 -47.5t40 -16.5v-31h-206v31q32 0 43 17q8 13 8 47v19h-173v33q90 86 114 271h147q-32 -57 -103 -142q-74 -90 -122 -129h137v86l107 103v-189h49v-33z" />
    <glyph glyph-name="five" unicode="&#x135;" 
d="M300 -65q0 -54 -40 -95q-49 -49 -138 -49q-45 0 -80 23q-42 26 -42 68q0 16 3.5 27.5t12.5 23.5q18 24 40 24q65 0 65 -65q0 -23 -23 -39q-7 -3 -8 -13q0 -19 33 -19q29 0 48 19t27 50q1 3 1 21.5t1 29.5q0 37 -26 66t-55 29q-47 0 -80 -43h-27l5 216q29 -5 61 -9t63 -4
q56 0 122 13q-18 -92 -133 -92q-38 0 -85 11l-3 -94q51 33 110 33q63 0 105.5 -35t42.5 -97z" />
    <glyph glyph-name="six" unicode="&#x136;" horiz-adv-x="334" 
d="M334 -84q0 -58 -50 -98q-46 -35 -107 -35q-87 0 -134 65q-43 58 -43 149q0 93 49 155q53 66 142 66q45 0 81 -23q21 -14 32 -30t11 -38q0 -25 -19 -44.5t-46 -19.5q-25 0 -43 17.5t-18 40.5q0 10 15 46l2 8q0 12 -26 12q-37 0 -59 -65q-10 -34 -13 -64v-62q29 15 55.5 23
t51.5 8q49 0 84 -30t35 -81zM230 -92q0 31 -12 57q-15 32 -44 32t-45 -32q-12 -24 -12 -57q0 -94 57 -94q56 0 56 94z" />
    <glyph glyph-name="seven" unicode="&#x137;" horiz-adv-x="341" 
d="M341 203q-12 -76 -22 -100q-10 -31 -48 -92q-28 -45 -42.5 -100.5t-14.5 -125.5h-147q0 112 151 227l40 39q16 20 22 49q-49 -38 -80 -38q-18 0 -34 13l-28 26q-30 28 -52 28q-33 0 -54 -56h-32v130h32q3 -24 19 -24q7 0 33 20q13 9 28 12.5t36 3.5q37 0 69 -35
q30 -30 44 -31q18 0 31.5 16.5t16.5 37.5h32z" />
    <glyph glyph-name="eight" unicode="&#x138;" horiz-adv-x="328" 
d="M328 -82q0 -53 -50 -94t-127 -41q-59 0 -102 28q-49 32 -49 87q0 63 79 102q-70 41 -70 104q0 54 52 87q45 27 102 27t98 -19q54 -26 54 -77q0 -49 -61 -100q74 -40 74 -104zM255 121q0 17 -7.5 29.5t-26.5 22.5q-28 14 -65 14q-68 0 -68 -45q0 -32 54 -66q50 -29 67 -31
q21 14 33.5 33t12.5 43zM240 -121q0 31 -49 61l-75 40q-56 -39 -56 -81q0 -32 29 -58t61 -26q5 -1 14 -1q23 0 47 15q29 18 29 50z" />
    <glyph glyph-name="nine" unicode="&#x139;" horiz-adv-x="334" 
d="M334 4q0 -88 -47 -150q-53 -71 -143 -71q-44 0 -81 24.5t-43 66.5q0 25 18.5 44.5t44.5 19.5q27 0 45 -18t18 -43q0 -14 -16 -45l-1 -7q0 -12 24 -12q74 0 74 192q-31 -16 -57 -23.5t-50 -7.5q-50 0 -85 30.5t-35 80.5q0 59 51 98q46 35 107 35q87 0 134 -65
q42 -57 42 -149zM217 103q0 84 -55 84q-57 0 -57 -84q0 -19 2 -34.5t8 -28.5q15 -36 47 -36q30 0 45 36q6 13 8 28.5t2 34.5z" />
    <glyph glyph-name="semicolon" unicode="&#x13b;" horiz-adv-x="408" 
d="M408 288q-27 -55 -88 -116q-37 -37 -76 -60q-8 -5 -31.5 -17.5t-62.5 -32.5v-217h-150v291q207 24 274 64q62 35 112 96z" />
    <glyph glyph-name="less" unicode="&#x13c;" horiz-adv-x="408" 
d="M408 -288l-22 -8q-48 59 -112.5 96.5t-273.5 63.5v291h150v-217l48 -24q34 -17 46 -26q38 -23 76 -60q60 -60 88 -116z" />
    <glyph glyph-name="equal" unicode="&#x13d;" horiz-adv-x="1000" 
d="M0 1000h1000v-18h-1000v18zM0 750h1000v-18h-1000v18zM0 500h1000v-18h-1000v18zM0 250h1000v-18h-1000v18zM0 0h1000v-18h-1000v18z" />
    <glyph glyph-name="greater" unicode="&#x13e;" 
d="M300 -450q0 -203 -69 -325q-61 -108 -231 -225v15q88 63 133.5 144.5t45.5 180.5q0 40 -9 100t-29 144l-73 309q-20 100 -30 180t-10 153q0 395 272 784v-15q-93 -173 -130 -279q-24 -70 -34 -141t-10 -154q0 -73 24 -191q21 -103 68 -271q40 -147 61 -250.5t21 -158.5z
" />
    <glyph glyph-name="question" unicode="&#x13f;" 
d="M300 -1000q-272 376 -272 774q0 143 40 333l73 309q20 83 29 142t9 102q0 188 -179 335v15q168 -123 231 -234q69 -122 69 -326q0 -111 -82 -409q-46 -170 -67 -270q-25 -120 -25 -192q0 -82 9.5 -152.5t34.5 -141.5q37 -107 130 -270v-15z" />
    <glyph glyph-name="at" unicode="&#x140;" horiz-adv-x="614" 
d="M614 -166h-35v332h35v-332zM548 -166h-35v332h35v-332zM513 0q0 -67 -74 -100q-58 -26 -129 -26q-74 0 -131 25q-78 34 -78 101q0 65 74 100q58 26 128 26q72 0 131 -25q79 -34 79 -101zM101 -166h-35v332h35v-332zM35 -166h-35v332h35v-332zM388 -22q0 30 -8.5 53
t-27.5 44q-14 17 -32 24t-41 7q-14 0 -24.5 -6t-19.5 -18.5t-9 -58.5q0 -56 35 -97q29 -33 61 -33q6 1 9 1q33 5 45 22.5t12 61.5z" />
    <glyph glyph-name="A" unicode="&#x141;" horiz-adv-x="412" 
d="M412 0q0 -67 -74 -100q-58 -26 -129 -26q-74 0 -131 25q-78 34 -78 101q0 65 74 100q58 26 128 26q72 0 131 -25q79 -34 79 -101zM287 -22q0 30 -8.5 53t-27.5 44q-14 17 -32 24t-41 7q-14 0 -24.5 -6t-19.5 -18.5t-9 -58.5q0 -56 35 -97q29 -33 61 -33q6 1 9 1
q33 5 45 22.5t12 61.5z" />
    <glyph glyph-name="B" unicode="&#x142;" 
d="M300 20q0 -56 -66 -106q-62 -45 -128 -45q-48 0 -70 13q-36 22 -36 87q0 59 66 108q31 23 62.5 35.5t65.5 12.5q39 0 81 -24v773h25v-854zM269 65q0 15 -12.5 17t-20.5 2q-51 0 -140 -68q-65 -50 -65 -89q0 -16 24 -21q26 0 58 13t70 40q43 30 64.5 57.5t21.5 48.5z" />
    <glyph glyph-name="C" unicode="&#x143;" 
d="M300 39q0 -62 -64.5 -113t-133.5 -51q-42 0 -72 24.5t-30 62.5q0 59 65 111t127 52q60 0 83 -22v771h25v-835z" />
    <glyph glyph-name="D" unicode="&#x144;" horiz-adv-x="546" 
d="M546 388q0 -123 -84 -264h-16l44 104q24 68 24 134q0 82 -56 152q-29 37 -72 62t-86 30v-567q0 -62 -64.5 -113t-133.5 -51q-42 0 -72 24.5t-30 62.5q0 59 65 111t127 52q60 0 83 -22v771h25q9 -71 13 -83q12 -53 47 -93l116 -130q70 -88 70 -180z" />
    <glyph glyph-name="E" unicode="&#x145;" horiz-adv-x="558" 
d="M558 234q0 -94 -50 -176h-16q16 24 31 72q13 48 13 84q0 43 -8 67q-8 30 -32.5 59.5t-91.5 71.5l-104 65v-438q0 -62 -64.5 -113t-133.5 -51q-42 0 -72 24.5t-30 62.5q0 59 65 111t127 52q60 0 83 -22v771h25q0 -40 13.5 -71.5t37.5 -53.5q86 -77 125 -125
q70 -88 70 -180q0 -54 -18 -114l-12 16q2 12 3 28.5t1 59.5q0 62 -62 136q-46 55 -158 120q0 -51 30 -105q26 -47 62 -79q69 -63 102 -102q64 -81 64 -170z" />
    <glyph glyph-name="F" unicode="&#x146;" horiz-adv-x="558" 
d="M558 234q0 -94 -50 -176h-16q16 24 31 72q13 48 13 84q0 20 -2 37t-5 29q-8 29 -32.5 59.5t-90.5 74.5l-106 73v-448q0 -62 -64.5 -113t-133.5 -51q-42 0 -72 24.5t-30 62.5q0 59 65 111t127 52q60 0 83 -22v916h25q0 -40 13.5 -71.5t37.5 -53.5q86 -77 125 -125
q70 -88 70 -180q0 -54 -18 -114l-12 16q2 12 3 28.5t1 59.5q0 62 -62 136q-46 55 -158 120q0 -36 13.5 -64.5t37.5 -50.5q86 -77 125 -125q70 -88 70 -180q0 -54 -18 -114l-12 16q2 12 3 28.5t1 59.5q0 62 -62 136q-46 55 -158 120q0 -30 20.5 -73t47.5 -66q86 -75 140 -138
q29 -35 39.5 -68.5t10.5 -81.5z" />
    <glyph glyph-name="G" unicode="&#x147;" horiz-adv-x="558" 
d="M558 234q0 -94 -50 -176h-16q16 24 31 72q13 48 13 84q0 43 -8 67q-8 30 -32.5 59.5t-91.5 71.5l-104 65v-438q0 -62 -64.5 -113t-133.5 -51q-42 0 -72 24.5t-30 62.5q0 59 65 111t127 52q60 0 83 -22v1139h25q0 -40 13.5 -71.5t37.5 -53.5q86 -77 125 -125
q70 -88 70 -180q0 -54 -18 -114l-12 16q2 12 3 28.5t1 59.5q0 62 -62 136q-46 55 -158 120q0 -40 13.5 -71.5t37.5 -53.5q86 -77 125 -125q70 -88 70 -180q0 -54 -18 -114l-12 16q2 12 3 28.5t1 59.5q0 62 -62 136q-46 55 -158 120q0 -40 13.5 -71.5t37.5 -53.5
q86 -77 125 -125q70 -88 70 -180q0 -54 -18 -114l-12 16q2 12 3 28.5t1 59.5q0 62 -62 136q-46 55 -158 120q0 -51 30 -105q26 -47 62 -79q69 -63 102 -102q64 -81 64 -170z" />
    <glyph glyph-name="H" unicode="&#x148;" horiz-adv-x="558" 
d="M558 234q0 -94 -50 -176h-16q16 24 31 72q13 48 13 84q0 20 -2 37t-5 29q-8 29 -32.5 59.5t-90.5 74.5l-106 73v-448q0 -62 -64.5 -113t-133.5 -51q-42 0 -72 24.5t-30 62.5q0 59 65 111t127 52q60 0 83 -22v1284h25q0 -40 13.5 -71.5t37.5 -53.5q86 -77 125 -125
q70 -88 70 -180q0 -54 -18 -114l-12 16q2 12 3 28.5t1 59.5q0 62 -62 136q-46 55 -158 120q0 -40 13.5 -71.5t37.5 -53.5q86 -77 125 -125q70 -88 70 -180q0 -54 -18 -114l-12 16q2 12 3 28.5t1 59.5q0 62 -62 136q-46 55 -158 120q0 -40 13.5 -71.5t37.5 -53.5
q86 -77 125 -125q70 -88 70 -180q0 -54 -18 -114l-12 16q2 12 3 28.5t1 59.5q0 62 -62 136q-46 55 -158 120q0 -36 13.5 -64.5t37.5 -50.5q86 -77 125 -125q70 -88 70 -180q0 -54 -18 -114l-12 16q2 12 3 28.5t1 59.5q0 62 -62 136q-46 55 -158 120q0 -30 20.5 -73t47.5 -66
q86 -75 140 -138q29 -35 39.5 -68.5t10.5 -81.5z" />
    <glyph glyph-name="I" unicode="&#x149;" horiz-adv-x="546" 
d="M546 388q0 -123 -84 -264h-16l44 104q24 68 24 134q0 82 -56 152q-72 92 -173 92h-10v268h25q9 -71 13 -83q12 -53 47 -93l116 -130q70 -88 70 -180z" />
    <glyph glyph-name="J" unicode="&#x14a;" horiz-adv-x="558" 
d="M558 234q0 -94 -50 -176h-16q16 24 31 72q13 48 13 84q0 43 -8 67q-7 30 -33 60q-23 29 -92 71l-118 65h-10v397h25q0 -40 13.5 -71.5t37.5 -53.5q86 -77 125 -125q70 -88 70 -180q0 -54 -18 -114l-12 16q2 12 3 28.5t1 59.5q0 62 -62 136q-46 55 -158 120q0 -51 30 -105
q26 -47 62 -79q69 -63 102 -102q64 -81 64 -170z" />
    <glyph glyph-name="K" unicode="&#x14b;" horiz-adv-x="558" 
d="M558 234q0 -94 -50 -176h-16q16 24 31 72q13 48 13 84q0 20 -2 37t-5 29q-8 29 -32.5 59.5t-91.5 75t-120 62.5h-10v542h25q0 -40 13.5 -71.5t37.5 -53.5q86 -77 125 -125q70 -88 70 -180q0 -54 -18 -114l-12 16q2 12 3 28.5t1 59.5q0 62 -62 136q-46 55 -158 120
q0 -36 13.5 -64.5t37.5 -50.5q86 -77 125 -125q70 -88 70 -180q0 -54 -18 -114l-12 16q2 12 3 28.5t1 59.5q0 62 -62 136q-46 55 -158 120q0 -30 20.5 -73t47.5 -66q86 -75 140 -138q29 -35 39.5 -68.5t10.5 -81.5z" />
    <glyph glyph-name="L" unicode="&#x14c;" horiz-adv-x="558" 
d="M558 234q0 -94 -50 -176h-16q16 24 31 72q13 48 13 84q0 43 -8 67q-8 31 -32 58q-22 28 -99 73l-112 65h-10v765h25q0 -40 13.5 -71.5t37.5 -53.5q86 -77 125 -125q70 -88 70 -180q0 -54 -18 -114l-12 16q2 12 3 28.5t1 59.5q0 62 -62 136q-46 55 -158 120
q0 -40 13.5 -71.5t37.5 -53.5q86 -77 125 -125q70 -88 70 -180q0 -54 -18 -114l-12 16q2 12 3 28.5t1 59.5q0 62 -62 136q-46 55 -158 120q0 -40 13.5 -71.5t37.5 -53.5q86 -77 125 -125q70 -88 70 -180q0 -54 -18 -114l-12 16q2 12 3 28.5t1 59.5q0 62 -62 136
q-46 55 -158 120q0 -51 30 -105q26 -47 62 -79q69 -63 102 -102q64 -81 64 -170z" />
    <glyph glyph-name="M" unicode="&#x14d;" horiz-adv-x="558" 
d="M558 234q0 -94 -50 -176h-16q16 24 31 72q13 48 13 84q0 20 -2 37t-5 29q-8 29 -32.5 59.5t-90.5 74.5q-75 50 -121 63h-10v910h25q0 -40 13.5 -71.5t37.5 -53.5q86 -77 125 -125q70 -88 70 -180q0 -54 -18 -114l-12 16q2 12 3 28.5t1 59.5q0 62 -62 136q-46 55 -158 120
q0 -40 13.5 -71.5t37.5 -53.5q86 -77 125 -125q70 -88 70 -180q0 -54 -18 -114l-12 16q2 12 3 28.5t1 59.5q0 62 -62 136q-46 55 -158 120q0 -40 13.5 -71.5t37.5 -53.5q86 -77 125 -125q70 -88 70 -180q0 -54 -18 -114l-12 16q2 12 3 28.5t1 59.5q0 62 -62 136
q-46 55 -158 120q0 -36 13.5 -64.5t37.5 -50.5q86 -77 125 -125q70 -88 70 -180q0 -54 -18 -114l-12 16q2 12 3 28.5t1 59.5q0 62 -62 136q-46 55 -158 120q0 -30 20.5 -73t47.5 -66q86 -75 140 -138q29 -35 39.5 -68.5t10.5 -81.5z" />
    <glyph glyph-name="N" unicode="&#x14e;" horiz-adv-x="212" 
d="M126 -1l86 -85l-21 -21l-86 86l-84 -84l-21 21l84 84l-84 84l21 21l84 -84l85 84l21 -20z" />
    <glyph glyph-name="O" unicode="&#x14f;" horiz-adv-x="499" 
d="M0 0l250 250l249 -250l-249 -250zM56 23l216 -216l171 171l-216 216z" />
    <glyph glyph-name="P" unicode="&#x150;" horiz-adv-x="331" 
d="M0 -211v80l331 330v-79z" />
    <glyph glyph-name="Q" unicode="&#x151;" horiz-adv-x="212" 
d="M282 -1q0 -73 -52 -125t-125 -52t-125 52t-52 125q0 72 53 125q26 26 56 39t68 13q73 0 125 -52t52 -125zM260 -1q0 64 -45.5 109.5t-110.5 45.5q-63 0 -108.5 -46t-45.5 -109t46 -109t109 -46t109 46t46 109zM126 -1l86 -85l-21 -21l-86 86l-84 -84l-21 21l84 84l-84 84
l21 21l84 -84l85 84l21 -20z" />
    <glyph glyph-name="R" unicode="&#x152;" 
d="M300 27q0 -61 -66 -113q-29 -23 -61.5 -35.5t-66.5 -12.5q-47 0 -81 21v-761h-25v847q0 60 66 113q62 48 128 48q49 0 70 -14q36 -23 36 -93zM269 75q0 14 -21 19q-4 1 -12 1q-50 0 -140 -72q-65 -53 -65 -95q0 -17 24 -22q25 0 57.5 14t70.5 42q86 65 86 113z" />
    <glyph glyph-name="S" unicode="&#x153;" 
d="M300 38q0 -60 -64 -111q-32 -26 -63 -39t-65 -13q-60 0 -83 22v-771h-25v835q0 66 66 117q62 47 132 47q44 0 73 -24.5t29 -62.5z" />
    <glyph glyph-name="T" unicode="&#x154;" 
d="M300 38q0 -60 -64 -111q-32 -26 -63 -39t-65 -13q-60 0 -83 22v-503q37 0 85 29q43 25 73 63q27 34 41.5 71.5t14.5 80.5q0 31 -5 64t-17.5 68t-44.5 100l15 6q84 -141 84 -264q0 -92 -70 -180l-116 -130q-31 -39 -47 -93l-13 -83h-25v835q0 66 66 117q62 47 132 47
q44 0 73 -24.5t29 -62.5z" />
    <glyph glyph-name="U" unicode="&#x155;" 
d="M300 38q0 -60 -64 -111q-32 -26 -63 -39t-65 -13q-60 0 -83 22v-399l104 65q65 41 92 72q23 27 32 59q3 12 5.5 32.5t2.5 34.5q0 32 -12 82q-12 44 -23 55l12 10q45 -72 45 -167q0 -90 -64 -170q-31 -39 -102 -102q-35 -30 -62 -79q-30 -57 -30 -105q41 23 71 43t47 34
q54 45 85 112q11 25 17.5 50.5t6.5 51.5v25q0 35 -4 47l8 12q16 -59 16 -90q0 -133 -76 -228q-22 -28 -120 -116q-39 -35 -51 -100h-25v835q0 66 66 117q62 47 132 47q44 0 73 -24.5t29 -62.5z" />
    <glyph glyph-name="V" unicode="&#x156;" 
d="M300 38q0 -60 -64 -111q-32 -26 -63 -39t-65 -13q-60 0 -83 22v-399l106 73q65 44 89.5 74t33.5 60q1 5 4 26.5t3 39.5q0 33 -12 78.5t-21 56.5l12 10q43 -74 43 -165q0 -48 -10 -81t-40 -69q-25 -30 -59.5 -64.5t-80.5 -73.5q-26 -21 -47 -64q-18 -42 -21 -75
q111 63 158 120q62 74 62 136v25v41q-3 15 -4 22l12 16q18 -59 18 -114q0 -92 -70 -180q-37 -46 -125 -125q-24 -21 -37.5 -49.5t-13.5 -65.5q111 63 158 120q62 74 62 136v25v41q-3 15 -4 22l12 16q18 -59 18 -114q0 -92 -70 -180q-37 -46 -125 -125q-24 -22 -37.5 -52.5
t-13.5 -72.5h-25v995q0 66 66 117q62 47 132 47q44 0 73 -24.5t29 -62.5z" />
    <glyph glyph-name="W" unicode="&#x157;" 
d="M300 38q0 -60 -64 -111q-32 -26 -63 -39t-65 -13q-60 0 -83 22v-399l106 73q65 44 89.5 74t33.5 60q1 5 4 26.5t3 39.5q0 33 -12 78.5t-21 56.5l12 10q43 -74 43 -165q0 -48 -10 -81t-40 -69q-25 -30 -59.5 -64.5t-80.5 -73.5q-26 -21 -47 -64q-18 -42 -21 -75
q111 63 158 120q62 74 62 136v25v41q-3 15 -4 22l12 16q18 -59 18 -114q0 -92 -70 -180q-37 -46 -125 -125q-24 -21 -37.5 -49.5t-13.5 -65.5q111 63 158 120q62 74 62 136v25v41q-3 15 -4 22l12 16q18 -59 18 -114q0 -92 -70 -180q-37 -46 -125 -125q-24 -22 -37.5 -52.5
t-13.5 -72.5q111 63 158 120q62 74 62 136v25v41q-3 15 -4 22l12 16q18 -59 18 -114q0 -92 -70 -180q-37 -46 -125 -125q-24 -22 -37.5 -52.5t-13.5 -72.5h-25v1179q0 66 66 117q62 47 132 47q44 0 73 -24.5t29 -62.5z" />
    <glyph glyph-name="X" unicode="&#x158;" 
d="M300 38q0 -60 -64 -111q-32 -26 -63 -39t-65 -13q-60 0 -83 22v-399l106 73q65 44 89.5 74t33.5 60q1 5 4 26.5t3 39.5q0 33 -12 78.5t-21 56.5l12 10q43 -74 43 -165q0 -48 -10 -81t-40 -69q-25 -30 -59.5 -64.5t-80.5 -73.5q-26 -21 -47 -64q-18 -42 -21 -75
q111 63 158 120q62 74 62 136v25v41q-3 15 -4 22l12 16q18 -59 18 -114q0 -92 -70 -180q-37 -46 -125 -125q-24 -21 -37.5 -49.5t-13.5 -65.5q111 63 158 120q62 74 62 136v25v41q-3 15 -4 22l12 16q18 -59 18 -114q0 -92 -70 -180q-37 -46 -125 -125q-24 -22 -37.5 -52.5
t-13.5 -72.5q111 63 158 120q62 74 62 136v25v41q-3 15 -4 22l12 16q18 -59 18 -114q0 -92 -70 -180q-37 -46 -125 -125q-24 -22 -37.5 -52.5t-13.5 -72.5q111 63 158 120q62 74 62 136v25v41q-3 15 -4 22l12 16q18 -59 18 -114q0 -92 -70 -180q-37 -46 -125 -125
q-24 -22 -37.5 -52.5t-13.5 -72.5h-25v1363q0 66 66 117q62 47 132 47q44 0 73 -24.5t29 -62.5z" />
    <glyph glyph-name="Y" unicode="&#x159;" horiz-adv-x="272" 
d="M271 -388q0 -92 -70 -180l-116 -130q-31 -39 -47 -93l-13 -83h-25v268h10q99 0 173 92q27 34 41.5 71.5t14.5 80.5q0 31 -5 64t-17.5 68t-44.5 100l15 6q84 -141 84 -264z" />
    <glyph glyph-name="Z" unicode="&#x15a;" horiz-adv-x="283" 
d="M283 -259q0 -90 -64 -170q-31 -39 -102 -102q-35 -30 -62 -79q-30 -57 -30 -105q41 23 71 43t47 34q54 45 85 112q11 25 17.5 50.5t6.5 51.5v25q0 35 -4 47l8 12q16 -59 16 -90q0 -133 -76 -228q-22 -28 -120 -116q-39 -35 -51 -100h-25v372h10q171 87 211 137
q23 27 32 59q3 12 5.5 32.5t2.5 34.5q0 32 -12 82q-12 44 -23 55l12 10q45 -72 45 -167z" />
    <glyph glyph-name="bracketleft" unicode="&#x15b;" 
d="M283 -353q0 -48 -10 -81t-40 -69q-25 -30 -59.5 -64.5t-80.5 -73.5q-26 -21 -47 -64q-18 -42 -21 -75q111 63 158 120q62 74 62 136v25v41q-3 15 -4 22l12 16q18 -59 18 -114q0 -92 -70 -180q-37 -46 -125 -125q-24 -21 -37.5 -49.5t-13.5 -65.5q111 63 158 120
q62 74 62 136v25v41q-3 15 -4 22l12 16q18 -59 18 -114q0 -92 -70 -180q-37 -46 -125 -125q-24 -22 -37.5 -52.5t-13.5 -72.5h-25v532h10q70 38 121 73q65 44 89.5 74t33.5 60q1 5 4 26.5t3 39.5q0 33 -12 78.5t-21 56.5l12 10q43 -74 43 -165z" />
    <glyph glyph-name="backslash" unicode="&#x15c;" 
d="M283 -353q0 -48 -10 -81t-40 -69q-25 -30 -59.5 -64.5t-80.5 -73.5q-26 -21 -47 -64q-18 -42 -21 -75q111 63 158 120q62 74 62 136v25v41q-3 15 -4 22l12 16q18 -59 18 -114q0 -92 -70 -180q-37 -46 -125 -125q-24 -21 -37.5 -49.5t-13.5 -65.5q111 63 158 120
q62 74 62 136v25v41q-3 15 -4 22l12 16q18 -59 18 -114q0 -92 -70 -180q-37 -46 -125 -125q-24 -22 -37.5 -52.5t-13.5 -72.5q111 63 158 120q62 74 62 136v25v41q-3 15 -4 22l12 16q18 -59 18 -114q0 -92 -70 -180q-37 -46 -125 -125q-24 -22 -37.5 -52.5t-13.5 -72.5h-25
v716h10q49 24 121 73q65 44 89.5 74t33.5 60q1 5 4 26.5t3 39.5q0 33 -12 78.5t-21 56.5l12 10q43 -74 43 -165z" />
    <glyph glyph-name="bracketright" unicode="&#x15d;" 
d="M283 -353q0 -48 -10 -81t-40 -69q-25 -30 -59.5 -64.5t-80.5 -73.5q-26 -21 -47 -64q-18 -42 -21 -75q111 63 158 120q62 74 62 136v25v41q-3 15 -4 22l12 16q18 -59 18 -114q0 -92 -70 -180q-37 -46 -125 -125q-24 -21 -37.5 -49.5t-13.5 -65.5q111 63 158 120
q62 74 62 136v25v41q-3 15 -4 22l12 16q18 -59 18 -114q0 -92 -70 -180q-37 -46 -125 -125q-24 -22 -37.5 -52.5t-13.5 -72.5q111 63 158 120q62 74 62 136v25v41q-3 15 -4 22l12 16q18 -59 18 -114q0 -92 -70 -180q-37 -46 -125 -125q-24 -22 -37.5 -52.5t-13.5 -72.5
q111 63 158 120q62 74 62 136v25v41q-3 15 -4 22l12 16q18 -59 18 -114q0 -92 -70 -180q-37 -46 -125 -125q-24 -22 -37.5 -52.5t-13.5 -72.5h-25v900h10q43 22 121 73q65 44 89.5 74t33.5 60q1 5 4 26.5t3 39.5q0 33 -12 78.5t-21 56.5l12 10q43 -74 43 -165z" />
    <glyph glyph-name="asciicircum" unicode="&#x15e;" horiz-adv-x="628" 
d="M629 250l-501 -500h-128l501 500h128z" />
    <glyph glyph-name="underscore" unicode="&#x15f;" horiz-adv-x="930" 
d="M930 250l-500 -500h-430l500 500h430zM750 200h-170l-400 -400h170z" />
    <glyph glyph-name="grave" unicode="&#x160;" horiz-adv-x="150" 
d="M150 1h-150v240h150v-240z" />
    <glyph glyph-name="a" unicode="&#x161;" horiz-adv-x="313" 
d="M313 116h-313v125h313v-125z" />
    <glyph glyph-name="b" unicode="&#x162;" horiz-adv-x="313" 
d="M313 1h-313v125h313v-125z" />
    <glyph glyph-name="c" unicode="&#x163;" horiz-adv-x="257" 
d="M257 197q-50 -58 -74 -97q-14 -24 -21.5 -46.5t-7.5 -42.5q0 -47 32 -99q15 -23 66 -85l-15 -20q-43 23 -72 23q-33 0 -52 -29q-15 -23 -15 -48q0 -56 51 -97l-14 -20q-63 51 -87 77q-48 54 -48 104q0 39 26 62q26 21 67 21q34 0 77 -23l-154 207q97 88 97 179
q0 51 -59 128h42z" />
    <glyph glyph-name="d" unicode="&#x164;" horiz-adv-x="262" 
d="M262 40l-120 -433h-35l94 339q-70 -35 -108 -35q-36 0 -64.5 23t-28.5 57q0 32 20 55t52 23q25 0 45.5 -21.5t20.5 -48.5q0 -18 -5 -26l-3 -11q0 -7 10 -10l15 3q44 14 90 85h17z" />
    <glyph glyph-name="e" unicode="&#x165;" horiz-adv-x="330" 
d="M331 284l-190 -677h-35l95 339q-70 -35 -108 -35q-36 0 -64.5 23t-28.5 57q0 32 20.5 55t52.5 23q27 0 46 -23.5t19 -53.5q0 -10 -5 -19l-3 -14q1 -6 13 -7q26 0 72 43l54 195q-70 -35 -108 -35q-36 0 -64.5 23t-28.5 57q0 32 20 55t52 23q25 0 45.5 -21.5t20.5 -48.5
q0 -18 -5 -26l-3 -11q0 -8 10 -9q10 -2 15 2q44 14 90 85h18z" />
    <glyph glyph-name="f" unicode="&#x166;" horiz-adv-x="400" 
d="M400 540l-258 -933h-35l94 339q-70 -35 -108 -35q-36 0 -64.5 23t-28.5 57q0 32 20.5 55t52.5 23q27 0 46 -22t19 -50q0 -13 -5 -23l-3 -15q3 -6 13 -7q32 0 73 47l54 195q-70 -35 -108 -35q-36 0 -64.5 23t-28.5 57q0 32 20.5 55t52.5 23q27 0 46 -23.5t19 -53.5
q0 -10 -5 -20l-3 -13q3 -6 13 -7q16 0 39 16t34 35l54 195q-70 -35 -108 -35q-36 0 -64.5 23t-28.5 57q0 32 20 55t52 23q25 0 45.5 -21.5t20.5 -48.5q0 -18 -5 -26l-3 -11q0 -8 10 -9q10 -2 15 2q44 14 90 85h17z" />
    <glyph glyph-name="g" unicode="&#x167;" horiz-adv-x="469" 
d="M469 790l-327 -1183h-35l94 339q-70 -35 -108 -35q-36 0 -64.5 23t-28.5 57q0 32 20.5 55t52.5 23q27 0 46 -22t19 -50q0 -13 -5 -23l-3 -15q3 -6 13 -7q32 0 73 47l54 195q-70 -35 -108 -35q-36 0 -64.5 23t-28.5 57q0 32 20.5 55t52.5 23q27 0 46 -23.5t19 -53.5
q0 -10 -5 -20l-3 -13q3 -6 13 -7q16 0 39 16t34 35l53 193q-70 -35 -108 -35q-36 0 -64.5 23t-28.5 57q0 32 20.5 55t52.5 23q27 0 46 -23.5t19 -53.5q0 -10 -5 -20l-3 -13q3 -6 13 -7q16 0 37.5 16t36.5 35l52 195q-70 -35 -108 -35q-36 0 -64.5 23t-28.5 57q0 32 20.5 55
t52.5 23q27 0 46 -23.5t19 -53.5q0 -10 -5 -20l-3 -13q3 -6 13 -7q19 0 54 24q35 28 50 64h17z" />
    <glyph glyph-name="h" unicode="&#x168;" horiz-adv-x="538" 
d="M538 1040l-396 -1433h-35l94 339q-70 -35 -108 -35q-36 0 -64.5 23t-28.5 57q0 32 20.5 55t52.5 23q27 0 46 -22t19 -50q0 -13 -5 -23l-3 -15q3 -6 13 -7q32 0 73 47l54 195q-70 -35 -108 -35q-36 0 -64.5 23t-28.5 57q0 32 20.5 55t52.5 23q27 0 46 -23.5t19 -53.5
q0 -10 -5 -20l-3 -13q3 -6 13 -7q16 0 39 16t34 35l54 195q-70 -35 -108 -35q-36 0 -64.5 23t-28.5 57q0 32 20 55t52 23q25 0 45.5 -21.5t20.5 -48.5q0 -18 -5 -26l-3 -11q0 -8 10 -9q10 -2 15 2q30 9 61 46l54 195q-70 -35 -108 -35q-36 0 -64.5 23t-28.5 57q0 32 20 55
t52 23q25 0 45.5 -21.5t20.5 -48.5q0 -18 -5 -26l-3 -11q0 -8 10 -9q10 -2 15 2q31 9 61 46l54 195q-70 -35 -108 -35q-36 0 -64.5 23t-28.5 57q0 32 20 55t52 23q25 0 45.5 -21.5t20.5 -48.5q0 -18 -5 -26l-3 -11q0 -8 10 -9q10 -2 15 2q44 14 90 85h17z" />
    <glyph glyph-name="i" unicode="&#x169;" horiz-adv-x="500" 
d="M500 -9h-30v112h-440v-112h-30v500h30v-103h440v103h30v-500zM470 181v129h-440v-129h440z" />
    <glyph glyph-name="j" unicode="&#x16a;" 
d="M300 25h-25v858h25v-858z" />
    <glyph glyph-name="k" unicode="&#x16b;" horiz-adv-x="25" 
d="M25 -865h-25v839h25v-839z" />
    <glyph glyph-name="l" unicode="&#x16c;" 
d="M300 0h-25v250h25v-250z" />
    <glyph glyph-name="m" unicode="&#x16d;" horiz-adv-x="25" 
d="M25 -250h-25v250h25v-250z" />
    <glyph glyph-name="n" unicode="&#x16e;" horiz-adv-x="400" 
d="M400 -13h-400v26h400v-26z" />
    <glyph glyph-name="o" unicode="&#x16f;" horiz-adv-x="529" 
d="M529 265l-529 -265v40l529 265v-40z" />
    <glyph glyph-name="p" unicode="&#x170;" 
d="M300 -116h-300l151 271z" />
    <glyph glyph-name="q" unicode="&#x171;" 
d="M300 108q0 -131 -44 -181q-34 -37 -106 -37t-106 37q-44 50 -44 181h300z" />
    <glyph glyph-name="r" unicode="&#x172;" 
d="M300 0l-150 -150l-150 150l150 150z" />
    <glyph glyph-name="s" unicode="&#x173;" 
d="M300 -190l-300 300h300v-300z" />
    <glyph glyph-name="t" unicode="&#x174;" 
d="M300 38q0 -62 -64.5 -112t-133.5 -50q-44 0 -73 26q-29 24 -29 64q0 56 65 108t127 52q108 0 108 -88z" />
    <glyph glyph-name="u" unicode="&#x175;" 
d="M300 -124h-300v248h300v-248z" />
    <glyph glyph-name="v" unicode="&#x176;" 
d="M300 29l-150 -150l-150 150l63 57q39 30 85 30q39 0 84 -30q14 -9 68 -57z" />
    <glyph glyph-name="w" unicode="&#x177;" 
d="M299 -133h-299v299z" />
    <glyph glyph-name="x" unicode="&#x178;" 
d="M300 -116h-300l151 271zM241 -82l-89 168l-93 -168h182z" />
    <glyph glyph-name="y" unicode="&#x179;" 
d="M300 108q0 -130 -47 -181q-34 -37 -103 -37t-103 37q-47 52 -47 181h300zM263 74h-226q0 -88 36 -123q24 -24 77 -24q50 0 76 24q37 34 37 123z" />
    <glyph glyph-name="z" unicode="&#x17a;" 
d="M300 0l-150 -150l-150 150l150 150zM250 0l-100 100l-100 -100l100 -100z" />
    <glyph glyph-name="braceleft" unicode="&#x17b;" 
d="M300 -190l-300 300h300v-300zM266 -106v183h-183z" />
    <glyph glyph-name="bar" unicode="&#x17c;" 
d="M300 22q0 -59 -67 -109q-63 -47 -127 -47q-49 0 -70 14q-36 23 -36 90q0 60 64.5 108t129.5 48q49 0 70 -14q36 -23 36 -90zM269 69q0 15 -12.5 17t-20.5 2q-49 0 -140 -70q-65 -50 -65 -92q0 -16 24 -21q27 0 57 12.5t71 41.5q86 63 86 110z" />
    <glyph glyph-name="braceright" unicode="&#x17d;" 
d="M300 -150h-300v300h300v-300zM266 -116v232h-232v-232h232z" />
    <glyph glyph-name="asciitilde" unicode="&#x17e;" 
d="M300 29l-150 -150l-150 150l63 57q39 30 85 30q39 0 84 -30q14 -9 68 -57zM252 29l-43 35q-30 21 -59 21q-33 0 -62 -18q-7 -5 -11 -9q-20 -17 -32 -27l105 -105z" />
    <glyph unicode="&#x180;" horiz-adv-x="646" 
d="M646 6q0 -167 -168 -246l45 -188l1 -49q0 -81 -46.5 -131.5t-133.5 -59.5q-6 -1 -19 -1q-56 0 -109 36q-34 23 -52 51t-18 65q-1 7 -1 11q0 39 25 77q16 22 35.5 34t43.5 12q6 1 10 1q33 0 62 -27q35 -32 35 -75q0 -20 -4 -34q-7 -26 -30 -45q-30 -24 -63 -24l-11 1
q0 -23 37 -38q9 -4 23.5 -7t23.5 -3q7 1 11 1q147 15 147 159q0 39 -9 78l-36 141q-54 -14 -98 -14q-134 0 -236 102q-52 54 -81 116.5t-29 136.5q0 72 20 141t65.5 133.5t194.5 219.5q-32 125 -32 234q0 47 8 92t27 96q42 117 113 144q30 12 75 -105.5t45 -208.5
q0 -106 -49 -215q-45 -100 -124 -179l35 -179l42 2q100 0 162.5 -74.5t62.5 -180.5zM473 920q0 29 -17 50q-15 21 -43 21q-57 -12 -93 -103q-15 -40 -22.5 -74.5t-7.5 -72.5q0 -55 21 -132q70 58 115 138q25 43 36 85t11 88zM579 -30q0 36 -14.5 66t-41.5 55q-48 47 -122 47
l72 -348q48 25 80 76q14 22 20 48.5t6 55.5zM440 -222l-71 357q-44 -15 -76 -57t-32 -88q0 -72 83 -118q6 0 6 -9q0 -14 -15 -12q-60 21 -97.5 77t-37.5 120q0 65 42.5 123.5t103.5 80.5l-31 158q-110 -98 -161 -167q-77 -108 -77 -215q0 -121 89 -195q40 -33 91.5 -49.5
t111.5 -16.5q32 0 71 11z" />
    <glyph glyph-name="c129" unicode="&#x181;" horiz-adv-x="691" 
d="M675 110q0 -21 -15 -39q-16 -16 -39 -16q-24 0 -39.5 16.5t-15.5 38.5q0 20 15 38q8 8 17 12t23 4q25 0 39 -17q15 -15 15 -37zM675 -109q0 -20 -15 -37.5t-39 -17.5t-39.5 16t-15.5 39q0 20 15 38q8 8 17 12t23 4q24 0 39 -16.5t15 -37.5zM524 5q0 -88 -54 -190.5
t-128 -163.5q-112 -91 -352 -209l-6 21q79 52 125 85q52 36 70 52q85 71 143 173q64 113 64 226q0 89 -24 136q-18 36 -55 57q-19 11 -39.5 15t-46.5 4q-85 -7 -118 -43t-33 -57q0 -24 26 -24l20 4l20 5q21 0 36 -4.5t30 -16.5q29 -24 29 -60q0 -33 -27 -62
q-16 -14 -33.5 -21t-40.5 -7q-48 0 -84 30.5t-36 76.5q0 50 28.5 95.5t75.5 73.5q24 15 71 27.5t69 12.5q108 0 181 -61q47 -38 68 -77t21 -98z" />
    <glyph glyph-name="quotesinglbase" unicode="&#x182;" horiz-adv-x="674" 
d="M674 -271q0 -106 -59.5 -172t-156.5 -66q-70 0 -119 26q-64 34 -64 96q0 30 19.5 52.5t48.5 22.5t49 -17t20 -46q0 -27 -21 -48t-21 -27q0 -30 59 -30q113 0 113 196q0 89 -11 125q-20 66 -76 66h-10q-43 0 -76 -51q-24 -38 -30 -91q-37 171 -126 227v-501h-37v1018h37
v-500q85 51 124 226q9 -53 32 -90q16 -24 35 -37.5t44 -13.5q33 0 53.5 16t30.5 53q4 17 7 47.5t3 79.5q0 88 -16 125q-24 57 -97 64q-24 0 -37 -4q-22 -8 -22 -25q3 -4 5 -7q7 -9 16 -19q21 -21 21 -48q0 -29 -20 -46q-11 -8 -21.5 -12t-27.5 -4q-28 0 -49 22
q-19 22 -19 52q0 63 64 96q52 25 119 25q96 0 155.5 -64.5t59.5 -173.5q0 -86 -50 -146.5t-133 -69.5q-30 0 -51 3.5t-52 15.5l-46 -74l46 -73q27 10 52.5 14.5t50.5 4.5q80 -7 132 -70t52 -147zM117 -509h-117v1018h117v-1018z" />
    <glyph glyph-name="florin" unicode="&#x183;" horiz-adv-x="174" 
d="M174 -259h-58v500h58v-500zM58 -259h-58v500h58v-500z" />
    <glyph glyph-name="quotedblbase" unicode="&#x184;" horiz-adv-x="280" 
d="M280 -439h-280v860h280v-860zM235 -349v680h-190v-680h190z" />
    <glyph glyph-name="ellipsis" unicode="&#x185;" horiz-adv-x="646" 
d="M514 1247q0 -44 -39 -76q-33 -27 -74 -27q-36 0 -68 27q-29 27 -29 65q0 54 57 72q-47 15 -47 68q0 30 29 50t66 20t64 -20q27 -18 27 -50q0 -24 -14.5 -41.5t-37.5 -23.5q21 -4 43.5 -21.5t22.5 -42.5zM646 6q0 -167 -168 -246l45 -188l1 -49q0 -81 -46.5 -131.5
t-133.5 -59.5q-6 -1 -19 -1q-56 0 -109 36q-34 23 -52 51t-18 65q-1 7 -1 11q0 39 25 77q16 22 35.5 34t43.5 12q6 1 10 1q33 0 62 -27q35 -32 35 -75q0 -20 -4 -34q-7 -26 -30 -45q-30 -24 -63 -24l-11 1q0 -23 37 -38q9 -4 23.5 -7t23.5 -3q7 1 11 1q147 15 147 159
q0 39 -9 78l-36 141q-54 -14 -98 -14q-134 0 -236 102q-52 54 -81 116.5t-29 136.5q0 72 20 141t65.5 133.5t194.5 219.5q-32 125 -32 234q0 47 8 92t27 96q42 117 113 144q30 12 75 -105.5t45 -208.5q0 -106 -49 -215q-45 -100 -124 -179l35 -179l42 2q100 0 162.5 -74.5
t62.5 -180.5zM475 1374q0 24 -18 39t-48 15q-26 0 -48.5 -17t-22.5 -37q0 -14 20 -27q15 -10 32 -16l34 -7q9 0 30 18t21 32zM479 1237q0 9 -16.5 22.5t-36.5 21.5l-35 12q-16 0 -39.5 -21.5t-23.5 -34.5q0 -29 21 -53q21 -21 52 -21q30 0 54 24t24 50zM473 920q0 29 -17 50
q-15 21 -43 21q-57 -12 -93 -103q-15 -40 -22.5 -74.5t-7.5 -72.5q0 -55 21 -132q70 58 115 138q25 43 36 85t11 88zM579 -30q0 36 -14.5 66t-41.5 55q-48 47 -122 47l72 -348q48 25 80 76q14 22 20 48.5t6 55.5zM440 -222l-71 357q-44 -15 -76 -57t-32 -88q0 -72 83 -118
q6 0 6 -9q0 -14 -15 -12q-60 21 -97.5 77t-37.5 120q0 65 42.5 123.5t103.5 80.5l-31 158q-110 -98 -161 -167q-77 -108 -77 -215q0 -121 89 -195q40 -33 91.5 -49.5t111.5 -16.5q32 0 71 11z" />
    <glyph glyph-name="dagger" unicode="&#x186;" horiz-adv-x="646" 
d="M646 6q0 -167 -168 -246l45 -188l1 -49q0 -81 -46.5 -131.5t-133.5 -59.5q-6 -1 -19 -1q-56 0 -109 36q-34 23 -52 51t-18 65q-1 7 -1 11q0 39 25 77q16 22 35.5 34t43.5 12q6 1 10 1q33 0 62 -27q35 -32 35 -75q0 -20 -4 -34q-7 -26 -30 -45q-30 -24 -63 -24l-11 1
q0 -23 37 -38q9 -4 23.5 -7t23.5 -3q7 1 11 1q147 15 147 159q0 39 -9 78l-36 141q-54 -14 -98 -14q-134 0 -236 102q-52 54 -81 116.5t-29 136.5q0 72 20 141t65.5 133.5t194.5 219.5q-32 125 -32 234q0 47 8 92t27 96q42 117 113 144q30 12 75 -105.5t45 -208.5
q0 -106 -49 -215q-45 -100 -124 -179l35 -179l42 2q100 0 162.5 -74.5t62.5 -180.5zM506 -861q0 -44 -39 -76q-33 -27 -74 -27q-37 0 -67 27.5t-30 64.5q0 54 57 72q-47 15 -47 68q0 31 29.5 50.5t65.5 19.5t63.5 -19.5t27.5 -50.5q0 -24 -14.5 -41.5t-37.5 -23.5
q21 -5 43.5 -22t22.5 -42zM473 920q0 29 -17 50q-15 21 -43 21q-57 -12 -93 -103q-15 -40 -22.5 -74.5t-7.5 -72.5q0 -55 21 -132q70 58 115 138q25 43 36 85t11 88zM579 -30q0 36 -14.5 66t-41.5 55q-48 47 -122 47l72 -348q48 25 80 76q14 22 20 48.5t6 55.5zM440 -222
l-71 357q-44 -15 -76 -57t-32 -88q0 -72 83 -118q6 0 6 -9q0 -14 -15 -12q-60 21 -97.5 77t-37.5 120q0 65 42.5 123.5t103.5 80.5l-31 158q-110 -98 -161 -167q-77 -108 -77 -215q0 -121 89 -195q40 -33 91.5 -49.5t111.5 -16.5q32 0 71 11zM467 -734q0 24 -18 39t-48 15
q-26 0 -48.5 -17t-22.5 -37q0 -14 18 -26t34 -16l34 -8q9 0 30 18t21 32zM471 -871q0 9 -16.5 22.5t-36.5 21.5l-35 12q-15 0 -39 -21t-24 -35q0 -29 21 -52q10 -10 23 -16t29 -6q30 0 54 24t24 50z" />
    <glyph glyph-name="daggerdbl" unicode="&#x187;" horiz-adv-x="691" 
d="M691 110q0 -21 -15 -39q-16 -16 -39 -16q-24 0 -39.5 16.5t-15.5 38.5q0 20 15 38q8 8 17 12t23 4q25 0 39 -17q15 -15 15 -37zM691 -109q0 -20 -15 -37.5t-39 -17.5t-39.5 16t-15.5 39q0 20 15 38q8 8 17 12t23 4q24 0 39 -16.5t15 -37.5zM541 -17q0 -81 -58 -181
q-51 -91 -125 -151q-112 -91 -352 -209l-6 21q79 52 125 85q52 36 70 52q85 71 143 173q64 113 64 226q0 89 -24 136q-18 36 -55 57q-19 11 -39.5 15t-46.5 4q-85 -7 -118 -43t-33 -57q0 -24 26 -24l20 4l20 5q21 0 36 -4.5t30 -16.5q29 -24 29 -60q0 -33 -27 -62
q-16 -14 -33.5 -21t-40.5 -7q-48 0 -84 30.5t-36 76.5q0 50 28.5 95.5t75.5 73.5q24 15 71 27.5t69 12.5q108 0 181 -61q90 -75 90 -197zM372 383q0 -44 -39 -76q-33 -27 -74 -27q-36 0 -68 27q-29 27 -29 65q0 54 57 72q-47 15 -47 68q0 30 29 50t66 20t64 -20
q27 -18 27 -50q0 -24 -14.5 -41.5t-37.5 -23.5q21 -4 43.5 -21.5t22.5 -42.5zM333 510q0 24 -18 39t-48 15q-26 0 -48.5 -17t-22.5 -37q0 -14 20 -27q15 -10 32 -16l34 -7q9 0 30 18t21 32zM337 373q0 9 -16.5 22.5t-36.5 21.5l-35 12q-16 0 -39.5 -21.5t-23.5 -34.5
q0 -29 21 -53q21 -21 52 -21q30 0 54 24t24 50z" />
    <glyph glyph-name="circumflex" unicode="&#x188;" horiz-adv-x="691" 
d="M691 110q0 -21 -15 -39q-16 -16 -39 -16q-24 0 -39.5 16.5t-15.5 38.5q0 20 15 38q8 8 17 12t23 4q25 0 39 -17q15 -15 15 -37zM691 -109q0 -20 -15 -37.5t-39 -17.5t-39.5 16t-15.5 39q0 20 15 38q8 8 17 12t23 4q24 0 39 -16.5t15 -37.5zM541 -17q0 -81 -58 -181
q-51 -91 -125 -151q-112 -91 -352 -209l-6 21q79 52 125 85q52 36 70 52q85 71 143 173q64 113 64 226q0 89 -24 136q-18 36 -55 57q-19 11 -39.5 15t-46.5 4q-85 -7 -118 -43t-33 -57q0 -24 26 -24l20 4l20 5q21 0 36 -4.5t30 -16.5q29 -24 29 -60q0 -33 -27 -62
q-16 -14 -33.5 -21t-40.5 -7q-48 0 -84 30.5t-36 76.5q0 50 28.5 95.5t75.5 73.5q24 15 71 27.5t69 12.5q108 0 181 -61q90 -75 90 -197zM391 -649q0 -44 -39 -76q-33 -27 -74 -27q-37 0 -67 27.5t-30 64.5q0 54 57 72q-47 15 -47 68q0 31 29.5 50.5t65.5 19.5t63.5 -19.5
t27.5 -50.5q0 -24 -14.5 -41.5t-37.5 -23.5q21 -5 43.5 -22t22.5 -42zM352 -522q0 24 -18 39t-48 15q-26 0 -48.5 -17t-22.5 -37q0 -14 18 -26t34 -16l34 -8q9 0 30 18t21 32zM356 -659q0 9 -16.5 22.5t-36.5 21.5l-35 12q-15 0 -39 -21t-24 -35q0 -29 21 -52q10 -10 23 -16
t29 -6q30 0 54 24t24 50z" />
    <glyph glyph-name="perthousand" unicode="&#x189;" horiz-adv-x="330" 
d="M308 638h-18l-2 4q0 28 -14.5 38t-54.5 10h-33v-255q0 -25 7.5 -33.5t35.5 -8.5l2 -12h-134v12q30 0 37 10q7 4 7 32v255h-32q-41 0 -53 -9q-12 -6 -17 -39l-2 -4h-17l7 75l114 -4h45q14 0 56.5 2t57.5 2zM330 -44h-98v12h5l17 2l2 11q0 11 -9 29l-20 49h-143l-20 -49
q-2 -4 -4.5 -14l-3.5 -14q0 -10 22 -13l5 -1v-12h-83v12h4q14 0 20 9q8 5 20 33l117 283h11l122 -283l15 -34q7 -7 17 -8h4v-12zM282 -383q0 -42 -31.5 -65t-75.5 -23h-132v13h5q15 0 29 9q5 13 5 32v218q0 21 -5 35q-12 7 -29 7h-5v14h115q67 0 88 -14q26 -18 26 -47
q0 -28 -20 -49q-15 -21 -54 -39q84 -21 84 -91zM219 75l-66 155l-62 -155h128zM230 -214q0 26 -21 44q-18 13 -62 13h-21v-132h39q21 0 46 26q19 21 19 49zM242 -394q0 41 -31 66q-36 28 -77 28h-8v-116q0 -42 55 -42q30 0 45.5 18t15.5 46z" />
    <glyph glyph-name="Scaron" unicode="&#x18a;" horiz-adv-x="421" 
d="M421 -52q0 -42 -15.5 -78.5t-42.5 -65.5q-55 -58 -142 -58q-44 0 -92.5 26.5t-76.5 64.5q-52 70 -52 173q0 104 80 181q67 64 152 64q69 0 124 -37q62 -42 62 -109q0 -34 -23 -63t-61 -29q-33 0 -57.5 20t-24.5 53q0 54 65 78l15 3q9 2 12 8q1 9 -9 19q-14 13 -28.5 19
t-35.5 6q-11 1 -15 1q-59 0 -93.5 -46.5t-34.5 -159.5v-82q0 -49 17 -86q30 -69 97 -69q32 0 58.5 12t48.5 40q32 41 46 115h26z" />
    <glyph glyph-name="guilsinglleft" unicode="&#x18b;" horiz-adv-x="421" 
d="M421 -52q0 -42 -15.5 -78.5t-42.5 -65.5q-55 -58 -143 -58v-170h-30v174q-89 15 -143 94q-47 71 -47 166q0 85 53 152.5t137 86.5v176h30v-170q74 0 131 -35q67 -41 67 -111q0 -34 -23 -63t-61 -29q-33 0 -57.5 20t-24.5 53q0 54 65 78l15 3q11 0 12 8q3 16 -28 31
q-21 8 -46 13q-8 1 -12 1q-7 0 -16 -1.5t-22 -5.5v-432q19 -7 34 -7q47 0 87.5 48.5t53.5 121.5h26zM190 -204v406q-62 -33 -62 -138v-134q0 -97 62 -134z" />
    <glyph glyph-name="OE" unicode="&#x18c;" horiz-adv-x="37" 
d="M37 906h-37v94h37v-94zM37 723h-37v94h37v-94zM37 540h-37v94h37v-94zM37 357h-37v94h37v-94zM37 174h-37v94h37v-94zM37 -9h-37v94h37v-94z" />
    <glyph glyph-name="c141" unicode="&#x18d;" horiz-adv-x="634" 
d="M525 120q0 -24 -17.5 -40.5t-39.5 -16.5q-23 0 -40 17t-17 40t16.5 40t40.5 17q23 0 40 -17t17 -40zM634 507l-507 -507h-127l507 507h127zM217 386q0 -24 -17 -41q-15 -17 -39 -17t-41 17t-17 41q0 23 17 39.5t41 16.5q23 0 39 -17q17 -15 17 -39z" />
    <glyph glyph-name="c142" unicode="&#x18e;" horiz-adv-x="845" 
d="M739 120q0 -24 -17.5 -40.5t-39.5 -16.5q-23 0 -40 17t-17 40t16.5 40t40.5 17q23 0 40 -17t17 -40zM845 507l-507 -507h-127l507 507h127zM634 507l-507 -507h-127l507 507h127zM220 387q0 -23 -17 -40q-15 -17 -40 -17q-23 0 -40 17t-17 40q0 24 17 40.5t40 16.5
t40 -17t17 -40z" />
    <glyph glyph-name="c143" unicode="&#x18f;" horiz-adv-x="1268" 
d="M1268 507l-507 -507h-127l507 507h127zM1134 120q0 -24 -17.5 -40.5t-39.5 -16.5q-23 0 -40 17t-17 40t16.5 40t40.5 17q23 0 40 -17t17 -40zM1057 507l-507 -507h-127l507 507h127zM845 507l-507 -507h-127l507 507h127zM634 507l-507 -507h-127l507 507h127zM220 387
q0 -23 -17 -40q-15 -17 -40 -17q-23 0 -40 17t-17 40q0 24 17 40.5t40 16.5t40 -17t17 -40z" />
    <glyph glyph-name="c144" unicode="&#x190;" horiz-adv-x="445" 
d="M445 165q0 -62 -47.5 -121.5t-108.5 -59.5q-35 0 -67 33l-50 -142q-3 -15 11 -15h49v-32h-232v32h52q21 0 25 20l119 333q3 7 -0.5 13t-9.5 8q-29 0 -89 -117h-24q71 149 147 149q27 0 33 -41q76 41 106 41q86 0 86 -101zM361 202q0 32 -22 32q-39 5 -72 -75
q-23 -58 -23 -104q0 -38 24 -38q33 0 66 78q27 69 27 107z" />
    <glyph glyph-name="quoteleft" unicode="&#x191;" horiz-adv-x="820" 
d="M821 165q0 -62 -47.5 -121.5t-108.5 -59.5q-35 0 -67 33l-50 -142q-3 -15 11 -15h49v-32h-232v32h52q21 0 25 20l119 333q3 7 -0.5 13t-9.5 8q-29 0 -89 -117h-24q71 149 147 149q27 0 33 -41q76 41 106 41q86 0 86 -101zM445 165q0 -62 -47.5 -121.5t-108.5 -59.5
q-35 0 -67 33l-50 -142q-3 -15 11 -15h49v-32h-232v32h52q21 0 25 20l119 333q3 7 -0.5 13t-9.5 8q-29 0 -89 -117h-24q71 149 147 149q27 0 33 -41q76 41 106 41q86 0 86 -101zM737 202q0 32 -22 32q-39 5 -72 -75q-23 -58 -23 -104q0 -38 24 -38q33 0 66 78q27 69 27 107z
M361 202q0 32 -22 32q-39 5 -72 -75q-23 -58 -23 -104q0 -38 24 -38q33 0 66 78q27 69 27 107z" />
    <glyph glyph-name="quoteright" unicode="&#x192;" horiz-adv-x="1198" 
d="M1197 165q0 -62 -47.5 -121.5t-108.5 -59.5q-35 0 -67 33l-50 -142q-3 -15 11 -15h49v-32h-232v32h52q21 0 25 20l119 333q3 7 -0.5 13t-9.5 8q-29 0 -89 -117h-24q71 149 147 149q27 0 33 -41q76 41 106 41q86 0 86 -101zM821 165q0 -62 -47.5 -121.5t-108.5 -59.5
q-35 0 -67 33l-50 -142q-3 -15 11 -15h49v-32h-232v32h52q21 0 25 20l119 333q3 7 -0.5 13t-9.5 8q-29 0 -89 -117h-24q71 149 147 149q27 0 33 -41q76 41 106 41q86 0 86 -101zM445 165q0 -62 -47.5 -121.5t-108.5 -59.5q-35 0 -67 33l-50 -142q-3 -15 11 -15h49v-32h-232
v32h52q21 0 25 20l119 333q3 7 -0.5 13t-9.5 8q-29 0 -89 -117h-24q71 149 147 149q27 0 33 -41q76 41 106 41q86 0 86 -101zM1113 202q0 32 -22 32q-39 5 -72 -75q-23 -58 -23 -104q0 -38 24 -38q33 0 66 78q27 69 27 107zM737 202q0 32 -22 32q-39 5 -72 -75
q-23 -58 -23 -104q0 -38 24 -38q33 0 66 78q27 69 27 107zM361 202q0 32 -22 32q-39 5 -72 -75q-23 -58 -23 -104q0 -38 24 -38q33 0 66 78q27 69 27 107z" />
    <glyph glyph-name="quotedblleft" unicode="&#x193;" horiz-adv-x="1569" 
d="M1569 165q0 -62 -47.5 -121.5t-108.5 -59.5q-35 0 -67 33l-50 -142q-3 -15 11 -15h49v-32h-232v32h52q21 0 25 20l119 333q3 7 -0.5 13t-9.5 8q-29 0 -89 -117h-24q71 149 147 149q27 0 33 -41q76 41 106 41q86 0 86 -101zM1197 165q0 -62 -47.5 -121.5t-108.5 -59.5
q-35 0 -67 33l-50 -142q-3 -15 11 -15h49v-32h-232v32h52q21 0 25 20l119 333q3 7 -0.5 13t-9.5 8q-29 0 -89 -117h-24q71 149 147 149q27 0 33 -41q76 41 106 41q86 0 86 -101zM821 165q0 -62 -47.5 -121.5t-108.5 -59.5q-35 0 -67 33l-50 -142q-3 -15 11 -15h49v-32h-232
v32h52q21 0 25 20l119 333q3 7 -0.5 13t-9.5 8q-29 0 -89 -117h-24q71 149 147 149q27 0 33 -41q76 41 106 41q86 0 86 -101zM445 165q0 -62 -47.5 -121.5t-108.5 -59.5q-35 0 -67 33l-50 -142q-3 -15 11 -15h49v-32h-232v32h52q21 0 25 20l119 333q3 7 -0.5 13t-9.5 8
q-29 0 -89 -117h-24q71 149 147 149q27 0 33 -41q76 41 106 41q86 0 86 -101zM1485 202q0 32 -22 32q-39 5 -72 -75q-23 -58 -23 -104q0 -38 24 -38q33 0 66 78q27 69 27 107zM1113 202q0 32 -22 32q-39 5 -72 -75q-23 -58 -23 -104q0 -38 24 -38q33 0 66 78q27 69 27 107z
M737 202q0 32 -22 32q-39 5 -72 -75q-23 -58 -23 -104q0 -38 24 -38q33 0 66 78q27 69 27 107zM361 202q0 32 -22 32q-39 5 -72 -75q-23 -58 -23 -104q0 -38 24 -38q33 0 66 78q27 69 27 107z" />
    <glyph glyph-name="quotedblright" unicode="&#x194;" horiz-adv-x="800" 
d="M800 165q0 -62 -47.5 -121.5t-108.5 -59.5q-35 0 -67 33l-50 -142q-3 -15 11 -15h49v-32h-232v32h52q21 0 25 20l119 333q3 7 -0.5 13t-9.5 8q-29 0 -89 -117h-24q71 149 147 149q27 0 33 -41q76 41 106 41q86 0 86 -101zM460 86q-47 -86 -90 -86q-32 0 -51 13.5
t-19 32.5l3 14l62 157q2 6 -4 10t-13 4q-20 0 -43 -47l-65 -184h-71l78 217q2 6 -5 10l-12 4q-21 0 -43 -47l-66 -184h-70l78 213l1 6q0 15 -12 15q-35 0 -88 -117h-24q35 69 56 96q42 53 92 53q28 0 32 -41q49 41 86 41q29 0 35 -41q52 41 87 41q20 0 32.5 -9.5t13.5 -23.5
l-2 -10l-64 -170q0 -19 11 -20q24 0 56 53h19zM716 202q0 32 -22 32q-39 5 -72 -75q-23 -58 -23 -104q0 -38 24 -38q33 0 66 78q27 69 27 107z" />
    <glyph glyph-name="bullet" unicode="&#x195;" horiz-adv-x="515" 
d="M514 367l1 -15q0 -57 -56 -67q-14 0 -24 10.5t-10 26.5q0 11 6.5 19.5t18.5 16.5q21 13 22 17q0 14 -22 14q-18 0 -34 -11.5t-33 -37.5q-21 -33 -39 -90h87v-33h-96l-34 -114q-11 -41 -40 -99q-37 -78 -71 -117q-46 -53 -109 -59q-34 0 -57.5 20t-23.5 53q0 54 49 61
q21 0 34 -12q12 -13 12 -35q-2 -15 -32 -42q-5 -3 -5 -11q0 -5 9 -7q54 0 100 139l64 223h-66v33h79q27 67 79 113q58 50 125 50q48 0 66 -46z" />
    <glyph glyph-name="endash" unicode="&#x196;" horiz-adv-x="781" 
d="M780 367l1 -15q0 -57 -56 -67q-14 0 -24 10.5t-10 26.5q0 11 6.5 19.5t18.5 16.5q21 13 22 17q0 14 -22 14q-18 0 -34 -11.5t-33 -37.5q-21 -33 -39 -90h87v-33h-96l-34 -114q-29 -99 -75 -170q-33 -51 -69 -78t-76 -27q-34 0 -57.5 20t-23.5 53q0 54 49 61q21 0 34 -12
q12 -13 12 -35q-2 -15 -32 -42q-5 -3 -5 -11q0 -5 9 -7q54 0 100 139l64 223h-162l-34 -114q-29 -99 -75 -170q-33 -51 -69 -78t-76 -27q-34 0 -57.5 20t-23.5 53q0 54 49 61q21 0 34 -12q12 -13 12 -35q-2 -15 -32 -42q-5 -3 -5 -11q0 -5 9 -7q54 0 100 139l64 223h-66v33
h79q27 67 79 113q58 50 125 50q48 0 66 -46l1 -15q0 -57 -56 -67q-14 0 -24 10.5t-10 26.5q0 11 6.5 19.5t18.5 16.5q21 13 22 17q0 14 -22 14q-18 0 -34 -11.5t-33 -37.5q-21 -33 -39 -90h166q27 67 79 113q58 50 125 50q48 0 66 -46z" />
    <glyph glyph-name="emdash" unicode="&#x197;" horiz-adv-x="1047" 
d="M1046 367l1 -15q0 -57 -56 -67q-14 0 -24 10.5t-10 26.5q0 11 6.5 19.5t18.5 16.5q21 13 22 17q0 14 -22 14q-18 0 -34 -11.5t-33 -37.5q-21 -33 -39 -90h87v-33h-96l-34 -114q-29 -99 -75 -170q-33 -51 -69 -78t-76 -27q-34 0 -57.5 20t-23.5 53q0 54 49 61q21 0 34 -12
q12 -13 12 -35q-2 -15 -32 -42q-5 -3 -5 -11q0 -5 9 -7q54 0 100 139l64 223h-162l-34 -114q-29 -99 -75 -170q-33 -51 -69 -78t-76 -27q-34 0 -57.5 20t-23.5 53q0 54 49 61q21 0 34 -12q12 -13 12 -35q-2 -15 -32 -42q-5 -3 -5 -11q0 -5 9 -7q54 0 100 139l64 223h-162
l-34 -114q-29 -99 -75 -170q-33 -51 -69 -78t-76 -27q-34 0 -57.5 20t-23.5 53q0 54 49 61q21 0 34 -12q12 -13 12 -35q-2 -15 -32 -42q-5 -3 -5 -11q0 -5 9 -7q54 0 100 139l64 223h-66v33h79q27 67 79 113q58 50 125 50q48 0 66 -46l1 -15q0 -57 -56 -67q-14 0 -24 10.5
t-10 26.5q0 11 6.5 19.5t18.5 16.5q21 13 22 17q0 14 -22 14q-18 0 -34 -11.5t-33 -37.5q-21 -33 -39 -90h166q27 67 79 113q58 50 125 50q48 0 66 -46l1 -15q0 -57 -56 -67q-14 0 -24 10.5t-10 26.5q0 11 6.5 19.5t18.5 16.5q21 13 22 17q0 14 -22 14q-18 0 -34 -11.5
t-33 -37.5q-21 -33 -39 -90h166q27 67 79 113q58 50 125 50q48 0 66 -46z" />
    <glyph glyph-name="tilde" unicode="&#x198;" horiz-adv-x="1314" 
d="M1312 367l1 -15q0 -57 -56 -67q-14 0 -24 10.5t-10 26.5q0 11 6.5 19.5t18.5 16.5q21 13 22 17q0 14 -22 14q-18 0 -34 -11.5t-33 -37.5q-21 -33 -39 -90h87v-33h-96l-34 -118q-27 -97 -75 -168q-33 -51 -69 -77t-76 -26q-34 0 -57.5 20t-23.5 53q0 54 49 61q21 0 34 -12
q12 -13 12 -35q-2 -15 -32 -42q-5 -3 -5 -11q0 -5 9 -7q54 0 100 139l64 223h-162l-34 -114q-29 -99 -75 -170q-33 -51 -69 -78t-76 -27q-34 0 -57.5 20t-23.5 53q0 54 49 61q21 0 34 -12q12 -13 12 -35q-2 -15 -32 -42q-5 -3 -5 -11q0 -5 9 -7q54 0 100 139l64 223h-162
l-34 -114q-29 -99 -75 -170q-33 -51 -69 -78t-76 -27q-34 0 -57.5 20t-23.5 53q0 54 49 61q21 0 34 -12q12 -13 12 -35q-2 -15 -32 -42q-5 -3 -5 -11q0 -5 9 -7q54 0 100 139l64 223h-162l-34 -114q-29 -99 -75 -170q-33 -51 -69 -78t-76 -27q-34 0 -57.5 20t-23.5 53
q0 54 49 61q21 0 34 -12q12 -13 12 -35q-2 -15 -32 -42q-5 -3 -5 -11q0 -5 9 -7q54 0 100 139l64 223h-66v33h79q27 67 79 113q58 50 125 50q48 0 66 -46l1 -15q0 -57 -56 -67q-14 0 -24 10.5t-10 26.5q0 11 6.5 19.5t18.5 16.5q21 13 22 17q0 14 -22 14q-18 0 -34 -11.5
t-33 -37.5q-21 -33 -39 -90h166q27 67 79 113q58 50 125 50q48 0 66 -46l1 -15q0 -57 -56 -67q-14 0 -24 10.5t-10 26.5q0 11 6.5 19.5t18.5 16.5q21 13 22 17q0 14 -22 14q-18 0 -34 -11.5t-33 -37.5q-21 -33 -39 -90h166q27 67 79 113q58 50 125 50q48 0 66 -46l1 -15
q0 -57 -56 -67q-14 0 -24 10.5t-10 26.5q0 11 6.5 19.5t18.5 16.5q21 13 22 17q0 14 -22 14q-18 0 -34 -11.5t-33 -37.5q-21 -33 -39 -90h166q27 67 79 113q58 50 125 50q48 0 66 -46z" />
    <glyph glyph-name="trademark" unicode="&#x199;" horiz-adv-x="836" 
d="M833 367l1 -15q0 -57 -56 -67q-14 0 -24 10.5t-10 26.5q0 11 6.5 19.5t18.5 16.5q21 13 22 17q0 14 -22 14q-18 0 -34 -11.5t-33 -37.5q-21 -33 -39 -90h87v-33h-96l-34 -114q-29 -99 -75 -170q-33 -51 -68.5 -78t-76.5 -27q-34 0 -57.5 20t-23.5 53q0 54 49 61
q21 0 34 -12q12 -13 12 -35q-2 -15 -32 -42q-5 -3 -5 -11q0 -5 9 -7q54 0 100 139l64 223h-66v33h79q27 67 79 113q58 50 125 50q48 0 66 -46zM479 106l-47 -75q-33 -47 -68 -47q-33 0 -51 14q-18 12 -18 33l2 13l62 173q2 6 -4 10t-13 4q-20 0 -43 -47l-65 -184h-71l78 217
q2 6 -5 10l-12 4q-21 0 -43 -47l-66 -184h-70l78 213l1 6q0 15 -12 15q-35 0 -88 -117h-24q35 69 56 96q42 53 92 53q28 0 32 -41q49 41 86 41q29 0 35 -41q52 41 87 41q20 0 32 -9.5t14 -24.5l-2 -9l-64 -186q0 -19 11 -20q16 0 46 39q11 20 34 50h20z" />
    <glyph glyph-name="scaron" unicode="&#x19a;" horiz-adv-x="599" 
d="M598 367l1 -15q0 -57 -56 -67q-14 0 -24.5 11.5t-9.5 26.5q3 19 24 33t23 19q0 14 -22 14q-18 0 -34 -11.5t-33 -37.5q-21 -33 -39 -90h87v-33h-96l-34 -114q-29 -99 -75 -170q-33 -51 -69 -78t-76 -27q-34 0 -57.5 20t-23.5 53q0 54 49 61q21 0 34 -12q12 -13 12 -35
q-2 -16 -20 -30q-15 -14 -17 -21q-2 -9 9 -9q54 0 100 139l64 223h-66v33h79q27 65 78 112q59 51 126 51q48 0 66 -46zM226 204q0 -12 -7.5 -21t-20.5 -10q-29 0 -33 25l1 10l2 10q0 9 -9.5 13t-20.5 4q-12 0 -25 -11.5t-13 -24.5q0 -15 30 -36q44 -28 53 -38q25 -25 25 -64
q-3 -33 -34 -55q-16 -11 -33 -16.5t-38 -5.5q-23 0 -38 3t-33 14q-32 20 -32 53q0 42 33 42q19 0 30 -21q0 -11 -6 -25q-2 -4 -3 -8.5t-2 -7.5q2 -17 42 -17q15 0 30 10t17 27q0 17 -27 38l-49 33q-28 25 -28 55q0 38 28 63q29 23 73 23q88 0 88 -62z" />
    <glyph glyph-name="guilsinglright" unicode="&#x19b;" horiz-adv-x="653" 
d="M651 226l-199 -166q17 13 47 13q10 0 24 -7l27 -11q8 -3 12.5 4t2.5 17l-12 10q-6 6 -6 16q0 8 7.5 15.5t20.5 8.5q30 0 30 -38q0 -35 -23.5 -61.5t-57.5 -26.5q-30 0 -58 16q-14 11 -34 11q-15 0 -30 -12h-27q1 15 16 28l189 160h-70q-18 0 -39 -33h-20l25 80h175v-24z
M514 367l1 -15q0 -57 -56 -67q-14 0 -24 10.5t-10 26.5q0 11 6.5 19.5t18.5 16.5q21 13 22 17q0 14 -22 14q-18 0 -34 -11.5t-33 -37.5q-21 -33 -39 -90h87v-33h-96l-34 -114q-11 -41 -40 -99q-37 -78 -71 -117q-46 -53 -109 -59q-34 0 -57.5 20t-23.5 53q0 54 49 61
q21 0 34 -12q12 -13 12 -35q-2 -15 -32 -42q-5 -3 -5 -11q0 -5 9 -7q54 0 100 139l64 223h-66v33h79q27 67 79 113q58 50 125 50q48 0 66 -46z" />
    <glyph glyph-name="oe" unicode="&#x19c;" horiz-adv-x="731" 
d="M733 222l-210 -174l2 -2q17 15 48 15l53 -19q8 -1 13 5.5t3 16.5l-13 11q-6 6 -6 17q0 8 8.5 16.5t21.5 8.5q31 0 31 -40q0 -38 -24.5 -65.5t-60.5 -27.5q-31 0 -61 17q-15 12 -36 12q-15 0 -31 -13h-29q2 17 17 30l199 168h-74q-18 0 -41 -35h-21l26 87h185v-28z
M598 367l1 -15q0 -57 -56 -67q-14 0 -24.5 11.5t-9.5 26.5q3 19 24 33t23 19q0 14 -22 14q-18 0 -34 -11.5t-33 -37.5q-21 -33 -39 -90h87v-33h-96l-34 -114q-29 -99 -75 -170q-33 -51 -69 -78t-76 -27q-34 0 -57.5 20t-23.5 53q0 54 49 61q21 0 34 -12q12 -13 12 -35
q-2 -16 -20 -30q-15 -14 -17 -21q-2 -9 9 -9q54 0 100 139l64 223h-66v33h79q27 65 78 112q59 51 126 51q48 0 66 -46zM226 204q0 -12 -7.5 -21t-20.5 -10q-29 0 -33 25l1 10l2 10q0 9 -9.5 13t-20.5 4q-12 0 -25 -11.5t-13 -24.5q0 -15 30 -36q44 -28 53 -38q25 -25 25 -64
q-3 -33 -34 -55q-16 -11 -33 -16.5t-38 -5.5q-23 0 -38 3t-33 14q-32 20 -32 53q0 42 33 42q19 0 30 -21q0 -11 -6 -25q-2 -4 -3 -8.5t-2 -7.5q2 -17 42 -17q15 0 30 10t17 27q0 17 -27 38l-49 33q-28 25 -28 55q0 38 28 63q29 23 73 23q88 0 88 -62z" />
    <glyph glyph-name="c157" unicode="&#x19d;" horiz-adv-x="776" 
d="M514 367l1 -15q0 -57 -56 -67q-14 0 -24 10.5t-10 26.5q0 11 6.5 19.5t18.5 16.5q21 13 22 17q0 11 -24 14q-32 3 -65 -49q-21 -33 -39 -90h87v-33h-96l-34 -114q-11 -41 -40 -99q-37 -78 -71 -117q-46 -53 -109 -59q-34 0 -57.5 20t-23.5 53q0 54 49 61q21 0 34 -12
q12 -13 12 -35q-2 -15 -32 -42q-5 -3 -5 -11q0 -5 9 -7q54 0 100 139l64 223h-66v33h79q27 67 79 113q58 50 125 50q48 0 66 -46zM775 165q0 -62 -47.5 -121.5t-108.5 -59.5q-35 0 -67 33l-50 -142q-3 -15 11 -15h49v-32h-232v32h52q21 0 25 20l119 333q3 7 -0.5 13t-9.5 8
q-29 0 -89 -117h-24q71 149 147 149q27 0 33 -41q76 41 106 41q86 0 86 -101zM691 202q0 32 -22 32q-39 5 -72 -75q-23 -58 -23 -104q0 -38 24 -38q33 0 66 78q27 69 27 107z" />
    <glyph glyph-name="nbspace" unicode="&#x1a0;" horiz-adv-x="498" 
d="M498 217q0 -39 -35 -39q-27 0 -27 30l3 18l2 6q1 7 -7 8q-24 0 -52 -44q-19 -33 -30 -66l-39 -130h-70l67 226l1 7q-4 5 -6 5q-7 0 -32 -11q-17 -7 -70 -51q41 -52 36 -102q0 -16 -6.5 -32t-18.5 -30q-23 -28 -56 -28q-32 0 -54.5 14t-22.5 39l2 15l24 87q-15 -7 -41 -7
q-28 0 -49 21q-16 17 -16 49q6 64 72 64q34 0 69 -25l40 123h71l-53 -166q49 37 80 52q19 8 35.5 12t37.5 4q22 0 22 -24q0 -15 -5 -30l2 -2q36 56 80 56q46 0 46 -49zM135 219q-30 24 -63 24q-48 0 -48 -43q0 -45 49 -49q26 0 45 11zM219 85q0 33 -31 71l-41 -121l-2 -10
q0 -17 22 -17q25 0 41 32q11 21 11 45z" />
    <glyph glyph-name="exclamdown" unicode="&#x1a1;" horiz-adv-x="468" 
d="M468 223q0 -21 -9 -33t-26 -12q-27 0 -27 31l3 17l2 6q0 6 -9 8q-24 0 -51 -45q-8 -13 -15 -29t-14 -36l-43 -130h-66l11 34q-72 -47 -97 -47h-11q-28 0 -46 14q-22 15 -22 43q1 6 1 9l55 163h-104l12 35h103l23 70l68 48h19l-40 -118q15 0 31 1t38 5q48 9 69 9
q22 0 22 -23q0 -12 -7 -33q42 56 84 56q18 0 32 -13t14 -30zM280 221q4 12 -7 13q-27 -7 -99 -18l-54 -162q-5 -27 16 -27q13 0 35.5 10.5t56.5 33.5z" />
    <glyph glyph-name="cent" unicode="&#x1a2;" horiz-adv-x="270" 
d="M413 94q-118 -102 -169 -94q-29 5 -72 41t-64 39l-22 2q-24 0 -44 -13q-10 -7 -20 -15q-14 -13 -22 -20v32q124 106 174 98q30 -5 72 -39.5t64 -39.5l24 -2q23 0 41 11l38 32v-32z" />
    <glyph glyph-name="sterling" unicode="&#x1a3;" horiz-adv-x="606" 
d="M606 159l-130 -151q-10 -8 -18 -10q-5 0 -11 6l-105 94q-11 9 -18 9q-6 0 -11 -5l-81 -94q-10 -8 -18 -10q-5 0 -11 6l-105 94q-11 9 -18 9q-6 0 -11 -5l-69 -80v58l130 151q10 8 18 10q5 0 11 -6l105 -94q11 -9 18 -9q6 0 11 5l81 94q10 8 18 10q5 0 11 -6l105 -94
q11 -9 18 -9q6 0 11 5l69 80v-58z" />
    <glyph glyph-name="currency" unicode="&#x1a4;" horiz-adv-x="586" 
d="M586 140l-110 -132q-8 -9 -16 -9q-5 0 -13 5l-105 94q-11 9 -18 9q-6 0 -11 -5l-7 -8v-184h-30v149l-44 -51q-9 -9 -17 -9q-5 0 -12 5l-105 94q-11 9 -18 9q-6 0 -11 -5l-69 -80v58l131 152q5 6 11 6q7 0 18 -10l116 -103v185h30v-159l69 81q5 6 11 6q7 0 18 -10l106 -93
q5 -5 13 -5t16 8l47 56v-54z" />
    <glyph glyph-name="yen" unicode="&#x1a5;" horiz-adv-x="852" 
d="M852 160l-131 -152q-7 -8 -15 -8t-13 5l-106 93q-13 10 -20 10q-6 0 -10 -5l-80 -95q-7 -8 -16 -8q-7 0 -13 5l-106 93q-11 9 -20 9q-7 -2 -9 -4l-81 -95q-5 -8 -15 -8q-7 0 -13 5l-106 93q-13 10 -20 10q-6 0 -10 -5l-68 -81v58l130 153q5 6 11 6q7 0 19 -11l106 -93
q5 -5 12 -7q8 0 17 10l80 95q3 3 10 5q7 0 20 -10l106 -93q5 -5 12 -7q8 0 17 10l80 95q2 3 9 5q3 -2 5 -3q9 -5 13 -9l106 -93q5 -5 13 -5t16 8l70 81v-57z" />
    <glyph glyph-name="brokenbar" unicode="&#x1a6;" horiz-adv-x="618" 
d="M618 -2q0 -27 -9 -49.5t-30 -42.5q-42 -39 -96 -39q-75 0 -173 72l-112 84q-29 22 -51.5 31t-42.5 9q-34 -3 -53 -29q-15 -21 -15 -49q0 -24 13 -40.5t37 -16.5q10 0 30 14.5t39 14.5q33 0 45 -30q4 -28 -24 -46q-23 -13 -54 -13q-56 0 -91 44q-16 21 -23.5 45t-7.5 56
q0 103 131 120q82 0 176 -72l110 -86q57 -45 93 -39q34 3 55 27q17 22 17 49q0 24 -12 42t-38 18q-8 0 -30.5 -14.5t-41.5 -14.5t-31 11.5t-12 29.5q0 24 25 36t52 12q54 0 89 -41q16 -19 25.5 -43t9.5 -50z" />
    <glyph glyph-name="section" unicode="&#x1a7;" horiz-adv-x="618" 
d="M618 13q0 -60 -33 -102.5t-89 -42.5q-31 0 -54 13q-28 16 -24 46q11 30 45 30q18 0 38 -14.5t31 -14.5q24 0 37 17q3 4 8 14.5t5 25.5q0 26 -15 49q-17 23 -53 29q-35 3 -94 -40l-112 -84q-96 -72 -173 -72q-54 0 -94.5 37.5t-40.5 93.5q0 50 36 94q17 20 38 30t50 10
q28 0 49 -11q28 -12 28 -37q0 -18 -13 -29.5t-30 -11.5q-20 0 -41 14.5t-31 14.5q-25 0 -37.5 -18.5t-12.5 -41.5q0 -28 17 -49q10 -12 24 -19.5t31 -7.5q35 -6 93 39l110 86q93 72 176 72q131 -15 131 -120z" />
    <glyph glyph-name="dieresis" unicode="&#x1a8;" 
d="M300 150l-300 -150v77l300 150v-77z" />
    <glyph glyph-name="copyright" unicode="&#x1a9;" 
d="M300 275l-300 -150v77l300 150v-77zM300 150l-300 -150v77l300 150v-77z" />
    <glyph glyph-name="ordfeminine" unicode="&#x1aa;" 
d="M300 400l-300 -150v77l300 150v-77zM300 275l-300 -150v77l300 150v-77zM300 150l-300 -150v77l300 150v-77z" />
    <glyph glyph-name="guillemotleft" unicode="&#x1ab;" 
d="M300 524l-300 -150v77l300 150v-77zM300 400l-300 -150v77l300 150v-77zM300 275l-300 -150v77l300 150v-77zM300 150l-300 -150v77l300 150v-77z" />
    <glyph glyph-name="logicalnot" unicode="&#x1ac;" horiz-adv-x="166" 
d="M165 244q-5 -29 -41 -72t-39 -64l-2 -22q0 -24 13 -44q7 -10 16 -20.5t19 -21.5h-32q-106 124 -98 174q5 29 40.5 72.5t38.5 63.5l2 24q0 23 -11 41l-32 38h32q102 -118 94 -169z" />
    <glyph glyph-name="degree" unicode="&#x1b0;" horiz-adv-x="511" 
d="M511 427q0 -19 -14.5 -33.5t-34.5 -14.5q-21 0 -35 14t-14 34t14 34.5t35 14.5q19 0 34 -14.5t15 -34.5zM487 673l-193 -293q83 -48 120 -86q58 -60 58 -131q0 -59 -41.5 -111t-100.5 -52q-43 0 -79.5 22t-42.5 63q-3 24 14.5 43.5t42.5 19.5q46 0 53 -47.5t43 -47.5
q20 0 36 21t16 49q0 51 -67 97l-115 62l-177 -282h-53l188 301q-90 50 -126 85q-63 59 -63 131q0 60 42 111t101 51q43 0 78 -21q37 -24 43 -64q3 -25 -14 -44t-42 -19q-46 0 -55 52q-6 43 -41 43q-19 0 -37 -21q-8 -11 -12 -21.5t-4 -27.5q0 -51 72 -96l120 -61l181 274h55
zM99 252q0 -18 -14.5 -33.5t-34.5 -15.5q-21 0 -35 15t-14 34q0 20 13.5 34t34.5 14q20 0 35 -14t15 -34z" />
    <glyph glyph-name="plusminus" unicode="&#x1b1;" horiz-adv-x="443" 
d="M443 182h-58q0 -23 -13 -58q-10 -32 -25 -53q-41 -57 -109 -71v-57h-33v57q-65 12 -109 71q-12 16 -26 53q-5 17 -7 23q-5 19 -5 35h-58v31h58q0 23 12 57.5t26 53.5q43 57 109 71v57h33v-57q66 -12 109 -71q13 -17 25 -54q2 -6 7.5 -25t5.5 -32h58v-31zM305 213
q0 25 -9 91q-6 24 -22 43t-36 19v-153h67zM205 213v153q-21 0 -36.5 -18.5t-20.5 -39t-7.5 -43t-2.5 -52.5h67zM305 182h-67v-153q20 0 36 18.5t21 38.5t7.5 42.5t2.5 53.5zM205 29v153h-67q0 -25 9 -91q5 -25 21 -43.5t37 -18.5z" />
    <glyph glyph-name="twosuperior" unicode="&#x1b2;" horiz-adv-x="658" 
d="M658 0h-34q0 53 -25 98t-73 83q-90 70 -198 70q-55 0 -102.5 -17t-94 -54.5t-72 -82.5t-25.5 -97h-34q12 143 97 243q94 109 231 109t232 -108q46 -54 72 -114t26 -130zM383 51q0 -21 -15.5 -36t-38.5 -15t-41 15q-16 16 -16 36q0 18 15.5 33t41.5 15q21 0 37.5 -14.5
t16.5 -33.5z" />
    <glyph glyph-name="threesuperior" unicode="&#x1b3;" horiz-adv-x="658" 
d="M386 -51q0 -18 -15.5 -33t-41.5 -15q-22 0 -38 14.5t-16 33.5q0 21 15 36t39 15q23 0 41 -15q16 -16 16 -36zM658 0q-12 -143 -97 -243q-94 -109 -231 -109t-232 108q-46 54 -72 114t-26 130h34q0 -51 25.5 -97t73.5 -84q88 -70 197 -70q55 0 102.5 17t94 54.5t72 82.5
t25.5 97h34z" />
    <glyph glyph-name="acute" unicode="&#x1b4;" horiz-adv-x="619" 
d="M592 184q-9 -9 -18 -9q-8 0 -7 13l14 58q-3 -13 -28 -39q-31 -34 -55 -34q-34 0 -34 41q0 40 30.5 84.5t69.5 44.5q16 0 37 -15l3 14l11 1l-34 -142q-1 -6 0 -9.5t5 -2.5l4 2l28 21zM454 311q0 -41 -40 -90.5t-64 -49.5q-31 0 -31 28l3 16q27 69 27 106q0 15 -8 15l-9 -4
l-23 -15l-4 4l23 18q14 11 29 11q14 -2 14 -21q0 -7 -4.5 -25t-12.5 -41q-14 -46 -16 -64q0 -15 14 -15q22 0 56.5 46.5t31.5 79.5q-5 6 -10.5 8.5t-8.5 9t-3 10.5q0 11 16 11q20 0 20 -38zM288 112q0 -50 -43 -81t-100 -31t-99 30q-46 34 -46 85q0 58 26 72l71 37
q-36 6 -60.5 37t-24.5 68q0 45 43 76q38 27 85 27q50 0 93 -29.5t43 -76.5q0 -17 -6.5 -37.5t-17.5 -26.5l-67 -33q36 0 71 -38q32 -34 32 -79zM598 317q-19 16 -35 16q-27 0 -55 -44q-24 -39 -24 -74q0 -24 16 -24q27 0 59 38q27 31 28 41zM242 326q0 34 -26 63
q-30 33 -76 33q-44 0 -74 -34q-23 -29 -23 -60q0 -44 58 -68l72 -27q69 20 69 93zM252 114q0 49 -62 74l-79 31q-75 -21 -75 -104q0 -38 28 -69q32 -36 81 -36q48 0 80 38q27 32 27 66z" />
    <glyph glyph-name="mu" unicode="&#x1b5;" horiz-adv-x="612" 
d="M573 339q39 0 39 -45q0 -41 -32 -81t-81 -40q-16 0 -28.5 7.5t-9.5 20.5l56 221l-25 4q8 0 17 2t14 3t19 12l-45 -157q33 53 76 53zM455 311q0 -40 -39.5 -90t-64.5 -50q-32 0 -32 27q0 9 4 17q27 63 27 105q0 15 -8 16l-10 -4l-22 -15l-4 4l22 18q14 11 30 11
q14 -2 14 -20q0 -19 -16 -65t-18 -66q0 -15 14 -15q22 0 57 46t32 80q-6 6 -11.5 8.5t-8 8t-2.5 8.5q0 8 9 13l6 1q21 0 21 -38zM289 112q0 -49 -45 -82q-41 -30 -99 -30q-57 0 -99 30q-46 34 -46 85q0 57 27 72l70 37q-37 6 -60 38q-24 30 -24 67q0 44 42 76q38 27 86 27
q49 0 92 -29.5t43 -76.5q0 -17 -6.5 -37.5t-17.5 -26.5l-66 -33q36 0 71 -38q32 -34 32 -79zM575 330q-24 0 -53 -28q-19 -18 -29 -36l-18 -71q11 -12 28 -12q41 0 72 47q26 38 26 74q0 26 -26 26zM242 326q0 34 -26 63q-29 33 -75 33q-44 0 -74 -34q-23 -28 -23 -60
q0 -45 57 -68l72 -27q69 20 69 93zM252 114q0 49 -62 74l-79 31q-74 -23 -74 -104q0 -37 29 -71t79 -34q49 0 81 38q26 32 26 66z" />
    <glyph glyph-name="paragraph" unicode="&#x1b6;" horiz-adv-x="917" 
d="M917 249l-27 -25q-9 -9 -18 -9q-8 0 -7 13l14 58q-3 -13 -28 -39q-31 -34 -55 -34q-34 0 -34 41q0 40 30.5 84.5t69.5 44.5q12 0 25 -7l12 -8l3 14l11 1l-34 -142q-2 -8 -1 -11t5 -2l5 3l28 21zM748 259q-1 -4 -2.5 -7.5t-11.5 -16.5q-15 -21 -27 -21q-21 0 -21 15l2 8
l42 111q0 25 -16 25q-22 0 -36 -24l-51 -129h-21l52 128q3 29 -15 29q-10 0 -18.5 -6.5t-18.5 -21.5l-51 -129h-24l54 131q0 7 -2.5 14.5t-11.5 9.5q-29 3 -69 -64h-7q43 75 83 75q17 0 24 -25q24 26 46 26q17 0 23 -26q18 25 45 25q5 -1 8 -1q21 -3 24 -36l-42 -107
q-1 -4 -1.5 -7.5t-0.5 -4.5q0 -6 5 -6q12 0 35 38zM461 432l-44 -66h-159l-27 -70q45 -11 124 -40q92 -44 92 -112q0 -34 -16.5 -69t-37.5 -50q-46 -32 -108 -32q-33 0 -64 14t-31 39q0 11 16 12q13 0 25 -3.5t37 -28.5q16 -19 39 -19q45 0 73 44q10 16 16 32.5t6 36.5
q0 28 -15.5 50t-49.5 40q-40 21 -138 48l55 150h150q22 0 46 17l8 10zM188 0h-188v7l52 14q11 3 20 16q4 8 4 29v254q0 22 -5 27t-17 5q-8 0 -19 -3l-35 -11v8l111 67v-347q0 -18 6.5 -29.5t19.5 -15.5l51 -14v-7zM896 357q-19 16 -35 16q-29 0 -54 -43.5t-25 -75.5
q0 -21 15 -23q28 0 60 38q26 31 28 40z" />
    <glyph glyph-name="periodcentered" unicode="&#x1b7;" horiz-adv-x="288" 
d="M288 112q0 -50 -43 -81t-100 -31t-99 30q-46 34 -46 85q0 58 26 72l71 37q-36 6 -60.5 37t-24.5 68q0 45 43 76q38 27 85 27q50 0 93 -29.5t43 -76.5q0 -17 -6.5 -37.5t-17.5 -26.5l-67 -33q36 0 71 -38q32 -34 32 -79zM242 326q0 34 -26 63q-30 33 -76 33q-44 0 -74 -34
q-23 -29 -23 -60q0 -44 58 -68l72 -27q69 20 69 93zM252 114q0 49 -62 74l-79 31q-75 -21 -75 -104q0 -38 28 -69q32 -36 81 -36q48 0 80 38q27 32 27 66z" />
    <glyph glyph-name="cedilla" unicode="&#x1b8;" horiz-adv-x="461" 
d="M461 432l-44 -66h-159l-27 -70q45 -11 124 -40q92 -44 92 -112q0 -34 -16.5 -69t-37.5 -50q-46 -32 -108 -32q-33 0 -64 14t-31 39q0 11 16 12q13 0 25 -3.5t37 -28.5q16 -19 39 -19q45 0 73 44q10 16 16 32.5t6 36.5q0 28 -15.5 50t-49.5 40q-40 21 -138 48l55 150h150
q22 0 46 17l8 10zM188 0h-188v7l52 14q11 3 20 16q4 8 4 29v254q0 22 -5 27t-17 5q-8 0 -19 -3l-35 -11v8l111 67v-347q0 -18 6.5 -29.5t19.5 -15.5l51 -14v-7z" />
    <glyph glyph-name="onesuperior" unicode="&#x1b9;" horiz-adv-x="182" 
d="M182 -44q0 -34 -11.5 -63.5t-35.5 -58.5q-40 -47 -101 -65l-3 17q33 10 55 40t22 63l-2 20q-6 26 -25 23h-23q-25 5 -42 25q-9 11 -12.5 19.5t-3.5 21.5q0 33 30 54q27 16 60 16q42 0 70 -35q22 -30 22 -77z" />
    <glyph glyph-name="ordmasculine" unicode="&#x1ba;" horiz-adv-x="511" 
d="M511 509l-285 -509h-50l285 509h50zM335 509l-285 -509h-50l285 509h50z" />
    <glyph glyph-name="guillemotright" unicode="&#x1bb;" horiz-adv-x="37" 
d="M37 -8h-37v1008h37v-1008z" />
    <glyph glyph-name="onequarter" unicode="&#x1bc;" horiz-adv-x="150" 
d="M150 -10h-150v1010h150v-1010z" />
    <glyph glyph-name="onehalf" unicode="&#x1bd;" horiz-adv-x="258" 
d="M258 -9h-37v1009h37v-1009zM150 -9h-150v1009h150v-1009z" />
    <glyph glyph-name="threequarters" unicode="&#x1be;" horiz-adv-x="258" 
d="M258 -9h-150v1009h150v-1009zM37 -9h-37v1009h37v-1009z" />
    <glyph glyph-name="questiondown" unicode="&#x1bf;" horiz-adv-x="126" 
d="M126 624q0 -24 -19 -43.5t-44 -19.5q-24 0 -43.5 19t-19.5 44t18.5 44.5t44.5 19.5q25 0 44 -19t19 -45zM126 362q0 -24 -19 -43.5t-44 -19.5q-24 0 -43.5 19t-19.5 44t18.5 44.5t44.5 19.5q25 0 44 -19t19 -45z" />
    <glyph glyph-name="Agrave" unicode="&#x1c0;" horiz-adv-x="417" 
d="M417 130l-417 -126v33l310 93l-310 94v33z" />
    <glyph glyph-name="Aacute" unicode="&#x1c1;" horiz-adv-x="417" 
d="M417 211l-417 -126v33l310 93l-310 94v33zM255 45q0 -18 -13 -31.5t-32 -13.5q-18 0 -31.5 13t-13.5 32q0 18 13 31.5t32 13.5q18 0 31.5 -13t13.5 -32z" />
    <glyph glyph-name="Acircumflex" unicode="&#x1c2;" horiz-adv-x="265" 
d="M263 0h-69l-95 269l-74 -269h-25l116 417z" />
    <glyph glyph-name="Atilde" unicode="&#x1c3;" horiz-adv-x="278" 
d="M278 0h-64l-101 283l-88 -283h-25l130 416zM163 45q0 -18 -13 -31.5t-32 -13.5q-18 0 -31.5 13t-13.5 32q0 18 13 31.5t32 13.5q18 0 31.5 -13t13.5 -32z" />
    <glyph glyph-name="Adieresis" unicode="&#x1c4;" horiz-adv-x="278" 
d="M278 416l-130 -416l-148 416h64l101 -283l88 283h25z" />
    <glyph glyph-name="Aring" unicode="&#x1c5;" horiz-adv-x="278" 
d="M205 371q0 -18 -13 -31.5t-32 -13.5q-18 0 -31.5 13t-13.5 32q0 18 13 31.5t32 13.5q18 0 31.5 -13t13.5 -32zM278 416l-130 -416l-148 416h64l101 -283l88 283h25z" />
    <glyph glyph-name="AE" unicode="&#x1c6;" horiz-adv-x="228" 
d="M228 199l-113 -199l-115 199h228z" />
    <glyph glyph-name="Ccedilla" unicode="&#x1c7;" horiz-adv-x="94" 
d="M94 1q0 -20 -14 -33q-12 -14 -33 -14q-19 0 -33 14q-14 12 -14 33q0 20 14 33.5t33 13.5q20 0 33 -14q14 -12 14 -33z" />
    <glyph glyph-name="Egrave" unicode="&#x1c8;" 
d="M300 -19h-300v38h300v-38z" />
    <glyph glyph-name="Eacute" unicode="&#x1c9;" horiz-adv-x="120" 
d="M120 4q0 -28 -16 -45t-44 -20q-25 0 -42.5 17.5t-17.5 41.5q0 25 16 44q18 18 44 18q24 0 40.5 -15.5t19.5 -40.5zM108 5q0 43 -50 43q-21 0 -33.5 -13.5t-12.5 -35.5q0 -48 47 -48q23 0 36 14t13 40z" />
    <glyph glyph-name="Ecircumflex" unicode="&#x1ca;" horiz-adv-x="297" 
d="M300 0q-81 -52 -150 -131q-70 94 -150 132q79 54 150 131q71 -94 150 -132zM233 -22l-110 97l-55 -51l110 -97z" />
    <glyph glyph-name="Edieresis" unicode="&#x1cb;" 
d="M300 -17h-133v-133h-35v133h-132v35h132v132h35v-132h133v-35z" />
    <glyph glyph-name="Igrave" unicode="&#x1cc;" horiz-adv-x="228" 
d="M229 417l-113 -417l-116 417h30l85 -330l86 330h28z" />
    <glyph glyph-name="Iacute" unicode="&#x1cd;" horiz-adv-x="340" 
d="M340 0h-30v200h-280v-200h-30v351h340v-351z" />
    <glyph glyph-name="Icircumflex" unicode="&#x1ce;" horiz-adv-x="228" 
d="M229 -1h-28l-84 330l-87 -330h-30l116 417z" />
    <glyph glyph-name="Idieresis" unicode="&#x1cf;" horiz-adv-x="340" 
d="M340 1h-340v351h30v-200h280v200h30v-351z" />
    <glyph glyph-name="Eth" unicode="&#x1d0;" horiz-adv-x="792" 
d="M792 36q0 -15 -9.5 -24.5t-26.5 -11.5q-15 0 -26 10q-9 10 -10 26q0 15 10 25t26 11q15 0 25 -11q9 -8 11 -25zM713 130q0 -22 -8 -44t-22 -42q-30 -44 -77 -44q-30 0 -51 19.5t-28 49.5l-91 -66q-8 -6 -16 -6q-30 0 -57 76l-84 -73q-9 0 -13 11l-7 22q-18 46 -53 66
q-72 -99 -107 -99q-16 0 -17 14q0 40 96 97q41 24 41 67q0 12 -10 32l-51 70q-9 12 -9 26q4 8 6 13q9 19 18 36q26 47 34 84q-54 0 -109.5 -33.5t-55.5 -87.5q0 -38 29 -38l12 2q23 8 30 56l18 -1l2 -21q0 -40 -20 -68.5t-49 -28.5q-30 0 -50 24q-13 19 -13 46v11
q0 64 66.5 111t152.5 47q60 0 107 -37q53 -41 53 -97q0 -21 -12 -36.5t-34 -18.5q-57 0 -86 83l18 8q12 -37 40 -37q6 0 14 4q18 9 15 32q-9 59 -103 81l-33 -78l-2 -12q0 -15 11 -30l50 -72q11 -13 11 -29q0 -20 -20 -51l-33 -50q33 -3 62 -19l47 -26q15 2 33 22l-1 23
q0 48 22.5 90t66.5 46q19 0 32 -15t13 -32q-6 -47 -88 -101q18 -51 48 -54q18 0 34.5 9.5t35.5 30.5l-2 25q0 93 90 137q-52 90 -199 124l3 19q120 -17 203 -80q97 -72 97 -187zM654 113q0 36 -9 66.5t-25 54.5q-33 -18 -45 -57l-8 -56v-11q0 -29 15 -56t38 -22q34 10 34 81
zM434 219q-38 0 -38 -58q0 -22 5 -36q55 37 55 68q0 26 -22 26z" />
    <glyph glyph-name="Ntilde" unicode="&#x1d1;" horiz-adv-x="361" 
d="M361 176q0 -37 -36 -43q-16 -1 -34 15q-16 17 -27 19q-9 0 -20 -4q-9 -5 -9 -14t7 -19q8 -8 16 -9h34q30 -9 30 -39q0 -14 -12 -29q-11 -11 -28 -13q-17 0 -29 11.5t-12 27.5q0 48 -24 48q-28 0 -28 -32q0 -9 14 -23q13 -11 16 -27q6 -45 -41 -45q-39 0 -39 34q1 7 1 11
q2 14 16.5 26.5t17.5 24.5q0 27 -17 31l-10 1q-27 0 -27 -49q0 -14 -12 -28q-11 -9 -28 -11q-16 0 -28.5 12.5t-12.5 29.5q0 30 32 39l33 1q8 0 14.5 8t8.5 19q0 8 -9 13t-21 5q-9 0 -26 -17.5t-34 -15.5q-37 0 -37 42q0 34 37 40q15 2 32.5 -14.5t27.5 -18.5q30 -3 30 18
q0 9 -8 17q-6 9 -15 9l-33 2q-32 6 -32 38q0 15 12.5 28.5t28.5 13.5t28 -11.5t12 -28.5q0 -47 27 -47l10 1q17 3 17 30q-1 9 -16 21.5t-17 22.5t-2 18q0 35 42 35q41 0 41 -34q0 -8 -2 -18t-15.5 -22t-16.5 -23q0 -24 17 -30l10 -2q26 0 26 48q0 40 41 40q15 0 27.5 -12.5
t12.5 -29.5q0 -30 -30 -39l-34 -1q-7 0 -14.5 -8t-8.5 -18q0 -18 30 -18q8 0 26 18t34 16q36 -5 36 -41zM210 176q0 9 -8.5 18.5t-21.5 9.5t-21 -8q-6 -8 -8 -20q0 -27 29 -31q13 0 21.5 8.5t8.5 22.5z" />
    <glyph glyph-name="Ograve" unicode="&#x1d2;" 
d="M300 0h-44l-106 293l-106 -293h-44l150 415z" />
    <glyph glyph-name="Oacute" unicode="&#x1d3;" 
d="M300 150q0 -62 -44 -106t-106 -44t-106 44t-44 106v264h38v-264q0 -114 112 -114q44 0 78 33t34 81v264h38v-264z" />
    <glyph glyph-name="Ocircumflex" unicode="&#x1d4;" horiz-adv-x="616" 
d="M616 150q0 -61 -44.5 -105.5t-106.5 -44.5t-106 44t-44 106v264h38v-264q0 -114 112 -114q45 0 79 33t34 81v264h38v-264zM300 0h-44l-106 293l-106 -293h-44l150 415zM616 469l-1 -3l-31 25q-34 28 -76 46q-63 25 -133 25q-73 0 -132 -25q-41 -17 -76 -46l-30 -25l-1 3
q0 30 59 74q76 55 180 55q105 0 182 -55q59 -42 59 -74z" />
    <glyph glyph-name="Otilde" unicode="&#x1d5;" horiz-adv-x="604" 
d="M480 469l-1 -3l-31 25q-34 28 -76 46q-63 25 -133 25q-73 0 -132 -25q-41 -17 -76 -46l-30 -25l-1 3q0 30 59 74q76 55 180 55q105 0 182 -55q59 -42 59 -74zM614 0h-44l-106 293l-106 -293h-44l150 415zM300 150q0 -62 -44 -106t-106 -44t-106 44t-44 106v264h38v-264
q0 -114 112 -114q44 0 78 33t34 81v264h38v-264z" />
    <glyph glyph-name="Odieresis" unicode="&#x1d6;" horiz-adv-x="417" 
d="M417 202l-417 -126v33l310 93l-310 94v33zM417 0h-417v38h417v-38z" />
    <glyph glyph-name="multiply" unicode="&#x1d7;" horiz-adv-x="277" 
d="M278 76h-64l-101 283l-88 -283h-25l130 416zM278 0h-278v38h278v-38z" />
    <glyph glyph-name="Oslash" unicode="&#x1d8;" 
d="M300 150q0 -62 -44 -106t-106 -44t-106 44t-44 106v64h38v-64q0 -46 33 -80t79 -34q44 0 78 33t34 81v64h38v-64z" />
    <glyph glyph-name="Ugrave" unicode="&#x1d9;" horiz-adv-x="245" 
d="M0 0v9q109 36 163 102q42 55 72 164h9q0 -123 -48 -185q-54 -72 -196 -90z" />
    <glyph glyph-name="Uacute" unicode="&#x1da;" horiz-adv-x="295" 
d="M138 77v98l-53 -36v17l53 37v244h13l6 -42q6 -25 24 -46l58 -65l10 -15l35 24v-18l-27 -19q17 -34 17 -62q0 -63 -42 -132h-8q18 39 26 68.5t8 50.5q0 33 -19 63l-88 -60v-122l-61 -62l61 -61l-14 -14l-61 61l-61 -60l-13 14l61 61l-61 60l13 14l61 -61zM151 303v-101
l80 54q-34 43 -80 47z" />
    <glyph glyph-name="Ucircumflex" unicode="&#x1db;" horiz-adv-x="604" 
d="M600 17l-17 -32l-493 154l-72 -139l-18 11l87 168z" />
    <glyph glyph-name="Udieresis" unicode="&#x1dc;" horiz-adv-x="472" 
d="M254 281l1 -250q0 -16 12 -22q6 -3 27 -3v-6h-116v6q22 0 31 5.5t9 25.5v191q0 20 -13 20q-9 0 -30 -9v5l76 39zM442 141q0 84 -60 145t-146 61q-84 0 -145 -60t-61 -146q0 -84 60 -145t146 -61q84 0 145 60t61 146zM472 141q0 -96 -69 -166t-167 -70q-96 0 -166 69
t-70 167q0 96 69 166t167 70q96 0 166 -69t70 -167z" />
    <glyph glyph-name="Yacute" unicode="&#x1dd;" horiz-adv-x="472" 
d="M143 5l80 84q50 61 50 102q0 26 -15 44t-41 18q-43 0 -65 -55l-8 2q18 84 87 84q32 0 56 -21q22 -22 22 -55q0 -40 -47 -96l-77 -80h94q20 0 29 5t17 23l6 -3l-23 -57h-165v5zM442 141q0 84 -60 145t-146 61q-84 0 -145 -60t-61 -146q0 -84 60 -145t146 -61q84 0 145 60
t61 146zM472 141q0 -96 -69 -166t-167 -70q-96 0 -166 69t-70 167q0 96 69 166t167 70q96 0 166 -69t70 -167z" />
    <glyph glyph-name="Thorn" unicode="&#x1de;" horiz-adv-x="472" 
d="M196 27q16 -9 32 -11q25 0 41 18t16 44q0 67 -76 67l-11 -1l-1 5q71 26 71 69q0 45 -49 45q-34 0 -60 -44l-6 1q18 69 82 69q27 0 46.5 -15.5t19.5 -41.5q0 -29 -39 -58q54 -23 54 -75q0 -44 -37 -74q-34 -25 -81 -25q-46 0 -46 24q0 15 14 15q12 0 30 -12zM442 141
q0 84 -60 145t-146 61q-84 0 -145 -60t-61 -146q0 -84 60 -145t146 -61q84 0 145 60t61 146zM472 141q0 -96 -69 -166t-167 -70q-96 0 -166 69t-70 167q0 96 69 166t167 70q96 0 166 -69t70 -167z" />
    <glyph glyph-name="germandbls" unicode="&#x1df;" horiz-adv-x="472" 
d="M252 241l-101 -143h101v143zM265 283h20v-185h43v-28h-43v-70h-33v70h-119v28zM442 141q0 84 -60 145t-146 61q-84 0 -145 -60t-61 -146q0 -84 60 -145t146 -61q84 0 145 60t61 146zM472 141q0 -96 -69 -166t-167 -70q-96 0 -166 69t-70 167q0 96 69 166t167 70
q96 0 166 -69t70 -167z" />
    <glyph glyph-name="agrave" unicode="&#x1e0;" horiz-adv-x="472" 
d="M199 30q17 -12 29 -13q27 0 43 22t16 50q0 51 -57 77q-20 8 -33 10.5t-25 2.5h-6l-3 2l1 3l46 101h88q9 0 20 10l3 -3l-16 -38q-7 -3 -13 -3h-79l-18 -36q11 -2 24 -4t25 -7q74 -24 74 -97q0 -46 -34 -77q-34 -29 -81 -29q-53 0 -53 27q0 15 18 15q12 0 31 -13zM442 141
q0 84 -60 145t-146 61q-84 0 -145 -60t-61 -146q0 -84 60 -145t146 -61q84 0 145 60t61 146zM472 141q0 -96 -69 -166t-167 -70q-96 0 -166 69t-70 167q0 96 69 166t167 70q96 0 166 -69t70 -167z" />
    <glyph glyph-name="aacute" unicode="&#x1e1;" horiz-adv-x="472" 
d="M297 30q-24 -30 -63 -30q-43 0 -72 42q-11 17 -17 37.5t-6 44.5q0 74 57 125q50 44 116 44l1 -7q-70 -12 -106 -73q-12 -23 -18 -46q32 19 55 19q36 0 56.5 -25t20.5 -63q0 -35 -24 -68zM275 131q-14 35 -49 35q-49 0 -49 -56q0 -35 13 -62q15 -35 47 -35q47 0 47 69
q0 26 -9 49zM442 141q0 84 -60 145t-146 61q-84 0 -145 -60t-61 -146q0 -84 60 -145t146 -61q84 0 145 60t61 146zM472 141q0 -96 -69 -166t-167 -70q-96 0 -166 69t-70 167q0 96 69 166t167 70q96 0 166 -69t70 -167z" />
    <glyph glyph-name="acircumflex" unicode="&#x1e2;" horiz-adv-x="472" 
d="M325 283v-7l-90 -276h-27l83 252h-89q-20 0 -31 -9q-5 -4 -20 -26l-7 4l16 40l9 22h156zM442 141q0 84 -60 145t-146 61q-84 0 -145 -60t-61 -146q0 -84 60 -145t146 -61q84 0 145 60t61 146zM472 141q0 -96 -69 -166t-167 -70q-96 0 -166 69t-70 167q0 96 69 166t167 70
q96 0 166 -69t70 -167z" />
    <glyph glyph-name="atilde" unicode="&#x1e3;" horiz-adv-x="472" 
d="M274 25q12 12 12 33q0 24 -22 46l-44 32q-33 -21 -33 -63q0 -61 51 -61q24 0 36 13zM268 192q12 15 12 38q0 47 -48 47q-17 0 -30.5 -11.5t-13.5 -29.5q0 -35 53 -67q20 15 27 23zM172 180q-15 20 -15 44q0 31 26 48q23 17 55 17q28 0 50 -16t22 -44q0 -35 -57 -68
q65 -48 65 -91q0 -32 -24 -52q-24 -18 -58 -18q-33 0 -57.5 17.5t-24.5 50.5q0 38 55 77q-27 21 -37 35zM442 141q0 84 -60 145t-146 61q-84 0 -145 -60t-61 -146q0 -84 60 -145t146 -61q84 0 145 60t61 146zM472 141q0 -96 -69 -166t-167 -70q-96 0 -166 69t-70 167
q0 96 69 166t167 70q96 0 166 -69t70 -167z" />
    <glyph glyph-name="adieresis" unicode="&#x1e4;" horiz-adv-x="401" 
d="M431 7l-41 -100q-35 -68 -70 -68t-73 78l-60 145q-35 78 -67 78q-29 0 -62 -64q-11 -23 -37 -92l-23 9q32 87 43 105q18 34 37.5 50.5t41.5 16.5q41 0 83 -78l61 -145q33 -78 56 -78q21 0 52 65q8 22 16 43q5 13 19 44z" />
    <glyph glyph-name="aring" unicode="&#x1e5;" horiz-adv-x="401" 
d="M428 10l-15 -93q-15 -74 -42 -74q-23 0 -39 68l-14 86q-24 147 -47 147t-47 -147l-16 -89q-15 -65 -40 -65q-24 0 -40 70l-13 84q-18 147 -46 147q-18 0 -33 -72q-5 -27 -7.5 -51.5t-3.5 -33.5l-25 1q0 28 4 53.5t11 53.5q18 74 54 74q35 0 56 -71l15 -97q6 -53 10 -67
q8 -48 18 -63q11 17 26 109.5t25 123.5q18 65 52 65q33 0 54 -72l17 -96l11 -66q9 -46 18 -64q9 13 20 69l12 75z" />
    <glyph glyph-name="ae" unicode="&#x1e6;" horiz-adv-x="362" 
d="M290 -146l-180 246l-74 -102h-37l111 152l179 -246l73 99h37z" />
    <glyph glyph-name="ccedilla" unicode="&#x1e7;" horiz-adv-x="160" 
d="M160 -29l-54 -113l-79 170l-27 -57v57l54 114l79 -171l27 57v-57z" />
    <glyph glyph-name="egrave" unicode="&#x1e8;" horiz-adv-x="382" 
d="M104 116q-27 0 -63 -37l-36 -37q-3 4 -3 7q0 12 56 68q64 64 106 64q47 0 82 -30l53 -56q33 -30 83 -30q27 0 63 36l36 37q3 -4 3 -6q0 -13 -56 -69q-63 -63 -106 -63q-47 0 -82 30l-54 56q-35 30 -82 30z" />
    <glyph glyph-name="eacute" unicode="&#x1e9;" horiz-adv-x="133" 
d="M88 1q-14 0 -32 21q-10 10 -31 21q-10 0 -25 -14v39q23 26 45 31q15 -1 32 -23q10 -10 31 -21q7 0 25 14v-38q-24 -27 -45 -30z" />
    <glyph glyph-name="iacute" unicode="&#x1ed;" horiz-adv-x="437" 
d="M218 409q-80 0 -135 -56.5t-55 -134.5q0 -79 56.5 -134.5t133.5 -55.5q79 0 135 56t56 134t-56.5 134.5t-134.5 56.5zM0 218q0 90 64 154t154 64q61 0 114.5 -33t81.5 -88q22 -47 22 -97q0 -61 -33 -114t-89 -81q-46 -23 -96 -23q-90 0 -154 65t-64 153z" />
    <glyph glyph-name="icircumflex" unicode="&#x1ee;" horiz-adv-x="436" 
d="M93 74q52 -47 125 -47q81 0 135.5 56t54.5 135q0 74 -46 127zM344 362q-53 47 -126 47q-80 0 -134.5 -55t-54.5 -136q0 -78 46 -127zM364 381l66 67l17 -16l-65 -67q54 -66 54 -148q0 -90 -63.5 -153.5t-154.5 -63.5q-81 0 -146 53l-69 -69l-16 19l68 68q-55 58 -55 146
q0 63 33 117t91 81q44 21 95 21q87 0 145 -55z" />
    <glyph glyph-name="idieresis" unicode="&#x1ef;" horiz-adv-x="399" 
d="M0 0v52l168 381h58l173 -381v-52h-399zM48 52h288l-145 324z" />
    <glyph glyph-name="eth" unicode="&#x1f0;" horiz-adv-x="233" 
d="M233 211q0 -40 -9 -74.5t-31 -71.5q-47 -80 -118 -80q-33 0 -54 27.5t-21 61.5q0 40 9 74t31 70q49 79 119 79q35 0 54.5 -26.5t19.5 -59.5zM183 242q0 37 -25 37q-46 0 -81 -102q-27 -83 -27 -137q0 -14 8 -26q8 -9 19 -11q45 0 79 103q27 81 27 136z" />
    <glyph glyph-name="ntilde" unicode="&#x1f1;" horiz-adv-x="198" 
d="M198 297l-82 -263q-3 -9 15 -13l26 -1l-6 -20h-151l6 20q44 0 53 23l53 169l-68 -54l-10 10l105 129h59z" />
    <glyph glyph-name="ograve" unicode="&#x1f2;" horiz-adv-x="249" 
d="M249 220q0 -38 -38 -61l-68 -30q-53 -16 -91 -57h20q18 0 51 -15q13 -6 26 -9.5t19 -3.5q23 0 44 36l16 -8q-47 -87 -89 -87q-17 0 -43.5 19.5t-45.5 19.5q-17 -3 -28 -24h-22q0 66 64 112q30 20 73 40q57 24 57 72l1 12q0 43 -38 43q-42 0 -50 -42l3 -13l2 -14
q1 -10 -5 -18t-19 -10q-11 0 -19 9q-6 9 -6 18q0 32 30 61q30 27 66 27q90 0 90 -77z" />
    <glyph glyph-name="oacute" unicode="&#x1f3;" horiz-adv-x="244" 
d="M244 231q0 -28 -18.5 -49.5t-60.5 -39.5q37 -28 37 -61q0 -18 -9.5 -35.5t-27.5 -32.5q-34 -28 -75 -28q-34 0 -57 11q-33 15 -33 43q0 43 35 47q11 0 21 -8.5t12 -21.5q0 -8 -12 -20q-10 -8 -11 -20q7 -13 27 -13q33 0 54 37q17 30 17 66q-4 21 -24 29q-7 2 -15 3t-24 1
l6 22q51 0 73 13q30 18 30 67q-3 19 -8 24q-9 14 -30 14q-31 0 -31 -18q3 -11 5 -16q6 -8 7 -17q0 -17 -21 -25q-13 -1 -24 6t-12 20q0 27 26.5 47.5t52.5 20.5q90 0 90 -66z" />
    <glyph glyph-name="ocircumflex" unicode="&#x1f4;" horiz-adv-x="248" 
d="M248 105l-6 -20h-57l-15 -50q-1 -7 9.5 -11t32.5 -4l-6 -20h-149l6 20q43 0 51 26l12 39h-126l5 20q24 20 70 81q38 51 57 111h92q-23 -39 -81 -94q-16 -15 -31 -28q-34 -30 -79 -68l103 -2l20 68l76 74h6l-43 -142h53z" />
    <glyph glyph-name="otilde" unicode="&#x1f5;" horiz-adv-x="230" 
d="M230 297q-40 -55 -86 -55q-29 0 -55 12l-35 -103q38 27 82 27q32 0 52.5 -21.5t20.5 -54.5q0 -48 -40 -85q-36 -32 -89 -32q-74 0 -80 64q0 11 8.5 24t24.5 16q11 0 19 -9q5 -8 5 -20q-2 -11 -11 -22l-7 -15q0 -20 36 -20q32 0 57 44q22 37 22 71q0 13 -11 24.5t-27 11.5
t-34 -8t-35 -23h-20l59 174q30 -11 66 -11q31 0 78 11z" />
    <glyph glyph-name="odieresis" unicode="&#x1f6;" horiz-adv-x="205" 
d="M205 250q0 -16 -11 -28q-9 -12 -25 -15q-15 0 -23.5 8t-7.5 20q2 11 7 18q11 7 18 17q-2 9 -18 9q-57 0 -81 -135q39 33 79 33q54 -8 54 -59q0 -27 -6.5 -48t-24.5 -43q-33 -42 -82 -42q-84 0 -84 103q0 76 44 142.5t103 66.5q52 0 58 -47zM142 117q0 10 -9 21
q-5 9 -18 11q-21 6 -41 -32q-19 -40 -19 -76q0 -38 26 -38t47 46q14 36 14 68z" />
    <glyph glyph-name="divide" unicode="&#x1f7;" horiz-adv-x="233" 
d="M233 297q-6 -42 -31 -89l-45 -83q-16 -29 -25 -60t-9 -65h-96q6 29 57 98l63 70q31 34 52 83l-2 2q-39 -35 -71 -35l-26 15q-13 8 -28 8q-35 -4 -52 -60h-20l36 116h20q-6 -10 -8 -20q0 -8 10 -14l23 19q15 12 39 15q13 0 32 -19q15 -15 31 -15q24 0 31 34h19z" />
    <glyph glyph-name="oslash" unicode="&#x1f8;" horiz-adv-x="262" 
d="M262 210q-4 -43 -66 -70q33 -44 33 -70q0 -85 -118 -85q-40 0 -73 20q-38 24 -38 63q0 52 85 85q-27 36 -27 68q0 35 36 58q29 18 68 18q38 0 70 -24q30 -25 30 -63zM225 214q3 22 -14.5 43.5t-41.5 21.5q-15 0 -30.5 -8.5t-18.5 -27.5q0 -25 24 -52l40 -39q34 20 41 62z
M168 45q-5 25 -29 52l-43 43q-56 -33 -56 -78q0 -23 24 -43q22 -16 47 -16q24 0 42 11t15 31z" />
    <glyph glyph-name="ugrave" unicode="&#x1f9;" horiz-adv-x="215" 
d="M215 191q0 -67 -41 -129q-44 -67 -107 -77q-24 -3 -48 15q-19 16 -19 42q0 28 26 28q25 0 25 -25l-5 -26q-3 -15 12 -16q51 0 87 128l-36 -19q-18 -9 -35 -9q-30 0 -48 18.5t-18 50.5q0 48 31.5 86.5t85.5 38.5q90 0 90 -106zM160 238q0 13 -6.5 26.5t-19.5 14.5
q-29 0 -51 -37q-17 -31 -20 -65q0 -42 29 -46q27 -3 47.5 36.5t20.5 70.5z" />
    <glyph glyph-name="uacute" unicode="&#x1fa;" horiz-adv-x="301" 
d="M181 -372q-37 28 -37 104v132q0 71 -35 99q-26 20 -104 29v15q79 7 109 33q30 24 30 96v132q0 77 37 104.5t120 27.5v-12q-44 0 -74 -24q-26 -21 -26 -85v-112q0 -88 -28.5 -117.5t-138.5 -49.5q109 -18 138 -49q15 -15 22 -43t7 -75v-112q0 -63 27 -84q14 -11 32 -17.5
t41 -6.5v-13q-83 0 -120 28z" />
    <glyph glyph-name="ucircumflex" unicode="&#x1fb;" horiz-adv-x="241" 
d="M0 -400v801h241v-28h-175v-745h175v-28h-241z" />
    <glyph glyph-name="udieresis" unicode="&#x1fc;" horiz-adv-x="97" 
d="M96 176q-61 -55 -61 -176q0 -120 61 -175l-8 -9q-88 65 -88 184t88 185z" />
    <glyph glyph-name="yacute" unicode="&#x1fd;" horiz-adv-x="97" 
d="M1 176l8 9q88 -65 88 -185q0 -118 -88 -184l-8 9q61 55 61 175q0 119 -61 176z" />
    <glyph glyph-name="thorn" unicode="&#x1fe;" horiz-adv-x="99" 
d="M88 -406q-89 143 -89 406q0 265 89 407l9 -20q-38 -75 -53 -189q-9 -72 -9 -198q0 -123 10.5 -216.5t51.5 -169.5z" />
    <glyph glyph-name="ydieresis" unicode="&#x1ff;" horiz-adv-x="99" 
d="M96 0q0 -263 -88 -405l-8 19q38 75 53 189q8 77 8 197q0 134 -8 198q-14 114 -53 189l8 19q44 -72 66 -171.5t22 -234.5z" />
  </font>
</defs>
</svg>
