<?xml version="1.0" encoding="UTF-8" standalone="no"?>
<!DOCTYPE score-partwise PUBLIC "-//Recordare//DTD MusicXML 3.0 Partwise//EN" "http://www.musicxml.org/dtds/partwise.dtd">
<score-partwise version="3.0">
  <movement-title>小  步  舞  曲</movement-title>
  <identification>
    <encoding>
      <software>Finale 2014 for Mac</software>
      <software>Dolet Light for Finale 2014</software>
      <encoding-date>2015-04-29</encoding-date>
      <supports attribute="new-system" element="print" type="yes" value="yes"/>
      <supports attribute="new-page" element="print" type="yes" value="yes"/>
      <supports element="accidental" type="yes"/>
      <supports element="beam" type="yes"/>
      <supports element="stem" type="yes"/>
    </encoding>
  </identification>
  <defaults>
    <scaling>
      <millimeters>7.9551</millimeters>
      <tenths>40</tenths>
    </scaling>
    <page-layout>
      <page-height>1493</page-height>
      <page-width>1055</page-width>
      <page-margins type="both">
        <left-margin>86</left-margin>
        <right-margin>64</right-margin>
        <top-margin>64</top-margin>
        <bottom-margin>64</bottom-margin>
      </page-margins>
    </page-layout>
    <system-layout>
      <system-margins>
        <left-margin>0</left-margin>
        <right-margin>0</right-margin>
      </system-margins>
      <system-distance>121</system-distance>
      <top-system-distance>70</top-system-distance>
    </system-layout>
    <staff-layout>
      <staff-distance>93</staff-distance>
    </staff-layout>
    <appearance>
      <line-width type="stem">1.4583</line-width>
      <line-width type="beam">4.2513</line-width>
      <line-width type="staff">0.944</line-width>
      <line-width type="light barline">1.4583</line-width>
      <line-width type="heavy barline">5.0391</line-width>
      <line-width type="leger">1.3216</line-width>
      <line-width type="ending">1.4583</line-width>
      <line-width type="wedge">1.4583</line-width>
      <line-width type="enclosure">1.4583</line-width>
      <line-width type="tuplet bracket">1.4583</line-width>
      <note-size type="grace">50</note-size>
      <note-size type="cue">50</note-size>
      <distance type="hyphen">60</distance>
      <distance type="beam">8</distance>
    </appearance>
    <music-font font-family="Maestro Wide,engraved" font-size="22.6"/>
    <word-font font-family="Times New Roman" font-size="11.3"/>
  </defaults>
  <credit page="1">
    <credit-type>title</credit-type>
    <credit-words default-x="64" default-y="1440" font-family="????_GBK" font-size="24.2" halign="left" justify="center" valign="top" xml:lang="zh" xml:space="preserve">小  步  舞  曲
</credit-words>
  </credit>
  <part-list>
    <score-part id="P1">
      <part-name print-object="no">MusicXML Part</part-name>
      <score-instrument id="P1-I1">
        <instrument-name>Acoustic Grand Piano</instrument-name>
      </score-instrument>
      <midi-instrument id="P1-I1">
        <midi-channel>1</midi-channel>
        <midi-program>1</midi-program>
        <volume>80</volume>
        <pan>0</pan>
      </midi-instrument>
    </score-part>
  </part-list>
  <!--=========================================================-->
  <part id="P1">
    <measure number="1" width="233">
      <print>
        <page-layout>
          <page-height>1493</page-height>
          <page-width>1055</page-width>
          <page-margins>
            <left-margin>50</left-margin>
            <right-margin>45</right-margin>
            <top-margin>50</top-margin>
            <bottom-margin>84</bottom-margin>
          </page-margins>
        </page-layout>
        <system-layout>
          <system-margins>
            <left-margin>50</left-margin>
            <right-margin>0</right-margin>
          </system-margins>
          <top-system-distance>181</top-system-distance>
        </system-layout>
        <staff-layout number="2">
          <staff-distance>74</staff-distance>
        </staff-layout>
      </print>
      <attributes>
        <divisions>8</divisions>
        <key>
          <fifths>1</fifths>
          <mode>major</mode>
        </key>
        <time>
          <beats>3</beats>
          <beat-type>4</beat-type>
        </time>
        <staves>2</staves>
        <clef number="1">
          <sign>G</sign>
          <line>2</line>
        </clef>
        <clef number="2">
          <sign>F</sign>
          <line>4</line>
        </clef>
        <staff-details number="1">
          <staff-size>110</staff-size>
        </staff-details>
        <staff-details number="2">
          <staff-size>110</staff-size>
        </staff-details>
      </attributes>
      <direction placement="below">
        <direction-type>
          <dynamics default-y="-66" halign="left">
            <p/>
          </dynamics>
        </direction-type>
        <staff>1</staff>
        <sound dynamics="54"/>
      </direction>
      <direction placement="above">
        <direction-type>
          <words default-x="71" default-y="42" font-size="14.5" font-weight="bold">Allegretto</words>
        </direction-type>
        <staff>1</staff>
        <sound tempo="120"/>
      </direction>
      <note default-x="104">
        <pitch>
          <step>D</step>
          <octave>5</octave>
        </pitch>
        <duration>8</duration>
        <voice>1</voice>
        <type>quarter</type>
        <stem default-y="-50">down</stem>
        <staff>1</staff>
        <notations>
          <slur bezier-x="32" bezier-y="31" default-x="8" default-y="0" number="1" placement="above" type="start"/>
          <technical>
            <fingering default-x="-14" default-y="11" placement="above">5</fingering>
          </technical>
        </notations>
      </note>
      <note default-x="140">
        <pitch>
          <step>G</step>
          <octave>4</octave>
        </pitch>
        <duration>4</duration>
        <voice>1</voice>
        <type>eighth</type>
        <stem default-y="14">up</stem>
        <staff>1</staff>
        <beam number="1">begin</beam>
      </note>
      <direction placement="above">
        <direction-type>
          <words default-x="204" default-y="41" font-size="10.3" font-weight="bold">M.M.</words>
        </direction-type>
        <staff>1</staff>
        <sound tempo="120"/>
      </direction>
      <note default-x="164">
        <pitch>
          <step>A</step>
          <octave>4</octave>
        </pitch>
        <duration>4</duration>
        <voice>1</voice>
        <type>eighth</type>
        <stem default-y="14">up</stem>
        <staff>1</staff>
        <beam number="1">continue</beam>
      </note>
      <note default-x="186">
        <pitch>
          <step>B</step>
          <octave>4</octave>
        </pitch>
        <duration>4</duration>
        <voice>1</voice>
        <type>eighth</type>
        <stem default-y="14">up</stem>
        <staff>1</staff>
        <beam number="1">continue</beam>
      </note>
      <note default-x="209">
        <pitch>
          <step>C</step>
          <octave>5</octave>
        </pitch>
        <duration>4</duration>
        <voice>1</voice>
        <type>eighth</type>
        <stem default-y="14">up</stem>
        <staff>1</staff>
        <beam number="1">end</beam>
      </note>
      <backup>
        <duration>24</duration>
      </backup>
      <note default-x="104">
        <pitch>
          <step>G</step>
          <octave>3</octave>
        </pitch>
        <duration>16</duration>
        <voice>2</voice>
        <type>half</type>
        <stem default-y="-44.5">down</stem>
        <staff>2</staff>
        <notations>
          <slur bezier-x="36" bezier-y="25" default-x="7" default-y="26" number="2" placement="above" type="start"/>
        </notations>
      </note>
      <note default-x="104">
        <chord/>
        <pitch>
          <step>B</step>
          <octave>3</octave>
        </pitch>
        <duration>16</duration>
        <voice>2</voice>
        <type>half</type>
        <stem>down</stem>
        <staff>2</staff>
      </note>
      <note default-x="104">
        <chord/>
        <pitch>
          <step>D</step>
          <octave>4</octave>
        </pitch>
        <duration>16</duration>
        <voice>2</voice>
        <type>half</type>
        <stem>down</stem>
        <staff>2</staff>
      </note>
      <note default-x="186">
        <pitch>
          <step>A</step>
          <octave>3</octave>
        </pitch>
        <duration>8</duration>
        <voice>2</voice>
        <type>quarter</type>
        <stem default-y="-39">down</stem>
        <staff>2</staff>
      </note>
    </measure>
    <!--=======================================================-->
    <measure number="2" width="127">
      <direction placement="above">
        <direction-type>
          <metronome default-x="19" default-y="37" font-family="Engraver Text T" font-size="12.4" halign="left">
            <beat-unit>quarter</beat-unit>
            <per-minute>120-132</per-minute>
          </metronome>
        </direction-type>
        <staff>1</staff>
      </direction>
      <note default-x="11">
        <pitch>
          <step>D</step>
          <octave>5</octave>
        </pitch>
        <duration>8</duration>
        <voice>1</voice>
        <type>quarter</type>
        <stem default-y="-50">down</stem>
        <staff>1</staff>
        <notations>
          <slur bezier-x="-30" bezier-y="32" default-x="7" default-y="4" number="1" type="stop"/>
          <technical>
            <fingering default-x="88" default-y="10" placement="above">3</fingering>
          </technical>
        </notations>
      </note>
      <note default-x="50">
        <pitch>
          <step>G</step>
          <octave>4</octave>
        </pitch>
        <duration>8</duration>
        <voice>1</voice>
        <type>quarter</type>
        <stem default-y="7">up</stem>
        <staff>1</staff>
        <notations>
          <articulations>
            <staccato default-x="-30" default-y="-51" placement="below"/>
          </articulations>
        </notations>
      </note>
      <note default-x="87">
        <pitch>
          <step>G</step>
          <octave>4</octave>
        </pitch>
        <duration>8</duration>
        <voice>1</voice>
        <type>quarter</type>
        <stem default-y="7">up</stem>
        <staff>1</staff>
        <notations>
          <articulations>
            <staccato default-x="-34" default-y="-51" placement="below"/>
          </articulations>
        </notations>
      </note>
      <backup>
        <duration>24</duration>
      </backup>
      <note default-x="11">
        <pitch>
          <step>B</step>
          <octave>3</octave>
        </pitch>
        <duration>24</duration>
        <voice>2</voice>
        <type>half</type>
        <dot/>
        <stem default-y="-34">down</stem>
        <staff>2</staff>
        <notations>
          <slur bezier-x="-33" bezier-y="30" default-x="8" default-y="15" number="2" type="stop"/>
        </notations>
      </note>
    </measure>
    <!--=======================================================-->
    <measure number="3" width="143">
      <note default-x="14">
        <pitch>
          <step>E</step>
          <octave>5</octave>
        </pitch>
        <duration>8</duration>
        <voice>1</voice>
        <type>quarter</type>
        <stem default-y="-45">down</stem>
        <staff>1</staff>
        <notations>
          <slur bezier-x="29" bezier-y="33" default-x="9" default-y="4" number="1" placement="above" type="start"/>
        </notations>
      </note>
      <note default-x="50">
        <pitch>
          <step>C</step>
          <octave>5</octave>
        </pitch>
        <duration>4</duration>
        <voice>1</voice>
        <type>eighth</type>
        <stem default-y="-55">down</stem>
        <staff>1</staff>
        <beam number="1">begin</beam>
        <notations>
          <ornaments>
            <mordent default-x="-52" default-y="6" placement="above"/>
          </ornaments>
        </notations>
      </note>
      <note default-x="73">
        <pitch>
          <step>D</step>
          <octave>5</octave>
        </pitch>
        <duration>4</duration>
        <voice>1</voice>
        <type>eighth</type>
        <stem default-y="-53">down</stem>
        <staff>1</staff>
        <beam number="1">continue</beam>
      </note>
      <note default-x="96">
        <pitch>
          <step>E</step>
          <octave>5</octave>
        </pitch>
        <duration>4</duration>
        <voice>1</voice>
        <type>eighth</type>
        <stem default-y="-51">down</stem>
        <staff>1</staff>
        <beam number="1">continue</beam>
      </note>
      <note default-x="118">
        <pitch>
          <step>F</step>
          <alter>1</alter>
          <octave>5</octave>
        </pitch>
        <duration>4</duration>
        <voice>1</voice>
        <type>eighth</type>
        <stem default-y="-49">down</stem>
        <staff>1</staff>
        <beam number="1">end</beam>
      </note>
      <backup>
        <duration>24</duration>
      </backup>
      <note default-x="14">
        <pitch>
          <step>C</step>
          <octave>4</octave>
        </pitch>
        <duration>24</duration>
        <voice>2</voice>
        <type>half</type>
        <dot/>
        <stem default-y="-28">down</stem>
        <staff>2</staff>
        <notations>
          <slur bezier-x="36" bezier-y="26" default-x="8" default-y="22" number="2" placement="above" type="start"/>
        </notations>
      </note>
    </measure>
    <!--=======================================================-->
    <measure number="4" width="127">
      <note default-x="11">
        <pitch>
          <step>G</step>
          <octave>5</octave>
        </pitch>
        <duration>8</duration>
        <voice>1</voice>
        <type>quarter</type>
        <stem default-y="-34">down</stem>
        <staff>1</staff>
        <notations>
          <slur bezier-x="-31" bezier-y="26" default-x="7" default-y="17" number="1" type="stop"/>
        </notations>
      </note>
      <note default-x="50">
        <pitch>
          <step>G</step>
          <octave>4</octave>
        </pitch>
        <duration>8</duration>
        <voice>1</voice>
        <type>quarter</type>
        <stem default-y="7">up</stem>
        <staff>1</staff>
        <notations>
          <articulations>
            <staccato default-x="-55" default-y="-51" placement="below"/>
          </articulations>
        </notations>
      </note>
      <note default-x="87">
        <pitch>
          <step>G</step>
          <octave>4</octave>
        </pitch>
        <duration>8</duration>
        <voice>1</voice>
        <type>quarter</type>
        <stem default-y="7">up</stem>
        <staff>1</staff>
        <notations>
          <articulations>
            <staccato default-x="-58" default-y="-51" placement="below"/>
          </articulations>
        </notations>
      </note>
      <backup>
        <duration>24</duration>
      </backup>
      <note default-x="11">
        <pitch>
          <step>B</step>
          <octave>3</octave>
        </pitch>
        <duration>24</duration>
        <voice>2</voice>
        <type>half</type>
        <dot/>
        <stem default-y="-34">down</stem>
        <staff>2</staff>
        <notations>
          <slur bezier-x="-33" bezier-y="29" default-x="8" default-y="15" number="2" type="stop"/>
        </notations>
      </note>
    </measure>
    <!--=======================================================-->
    <measure number="5" width="140">
      <note default-x="11">
        <pitch>
          <step>C</step>
          <octave>5</octave>
        </pitch>
        <duration>8</duration>
        <voice>1</voice>
        <type>quarter</type>
        <stem default-y="-55.5">down</stem>
        <staff>1</staff>
        <notations>
          <slur bezier-x="35" bezier-y="28" default-x="8" default-y="-9" number="1" placement="above" type="start"/>
          <technical>
            <fingering default-x="-66" default-y="9" placement="above">4</fingering>
          </technical>
          <ornaments>
            <mordent default-x="-73" default-y="21" placement="above"/>
          </ornaments>
        </notations>
      </note>
      <note default-x="48">
        <pitch>
          <step>D</step>
          <octave>5</octave>
        </pitch>
        <duration>4</duration>
        <voice>1</voice>
        <type>eighth</type>
        <stem default-y="-60">down</stem>
        <staff>1</staff>
        <beam number="1">begin</beam>
      </note>
      <note default-x="71">
        <pitch>
          <step>C</step>
          <octave>5</octave>
        </pitch>
        <duration>4</duration>
        <voice>1</voice>
        <type>eighth</type>
        <stem default-y="-62">down</stem>
        <staff>1</staff>
        <beam number="1">continue</beam>
      </note>
      <note default-x="93">
        <pitch>
          <step>B</step>
          <octave>4</octave>
        </pitch>
        <duration>4</duration>
        <voice>1</voice>
        <type>eighth</type>
        <stem default-y="-64">down</stem>
        <staff>1</staff>
        <beam number="1">continue</beam>
      </note>
      <note default-x="116">
        <pitch>
          <step>A</step>
          <octave>4</octave>
        </pitch>
        <duration>4</duration>
        <voice>1</voice>
        <type>eighth</type>
        <stem default-y="-65.5">down</stem>
        <staff>1</staff>
        <beam number="1">end</beam>
      </note>
      <backup>
        <duration>24</duration>
      </backup>
      <note default-x="11">
        <pitch>
          <step>A</step>
          <octave>3</octave>
        </pitch>
        <duration>24</duration>
        <voice>2</voice>
        <type>half</type>
        <dot/>
        <stem default-y="-39">down</stem>
        <staff>2</staff>
        <notations>
          <slur bezier-x="35" bezier-y="27" default-x="8" default-y="11" number="2" placement="above" type="start"/>
        </notations>
      </note>
    </measure>
    <!--=======================================================-->
    <measure number="6" width="140">
      <note default-x="11">
        <pitch>
          <step>B</step>
          <octave>4</octave>
        </pitch>
        <duration>8</duration>
        <voice>1</voice>
        <type>quarter</type>
        <stem default-y="-61">down</stem>
        <staff>1</staff>
        <notations>
          <slur bezier-x="-34" bezier-y="28" default-x="8" default-y="-11" number="1" type="stop"/>
          <slur bezier-x="24" bezier-y="36" default-x="8" default-y="-10" number="1" placement="above" type="start"/>
        </notations>
      </note>
      <direction placement="above">
        <direction-type>
          <words default-x="19" default-y="37" font-size="11.3">BWV Anh 114</words>
        </direction-type>
        <staff>1</staff>
      </direction>
      <note default-x="48">
        <pitch>
          <step>C</step>
          <octave>5</octave>
        </pitch>
        <duration>4</duration>
        <voice>1</voice>
        <type>eighth</type>
        <stem default-y="17">up</stem>
        <staff>1</staff>
        <beam number="1">begin</beam>
      </note>
      <note default-x="71">
        <pitch>
          <step>B</step>
          <octave>4</octave>
        </pitch>
        <duration>4</duration>
        <voice>1</voice>
        <type>eighth</type>
        <stem default-y="15">up</stem>
        <staff>1</staff>
        <beam number="1">continue</beam>
      </note>
      <note default-x="94">
        <pitch>
          <step>A</step>
          <octave>4</octave>
        </pitch>
        <duration>4</duration>
        <voice>1</voice>
        <type>eighth</type>
        <stem default-y="14">up</stem>
        <staff>1</staff>
        <beam number="1">continue</beam>
      </note>
      <note default-x="116">
        <pitch>
          <step>G</step>
          <octave>4</octave>
        </pitch>
        <duration>4</duration>
        <voice>1</voice>
        <type>eighth</type>
        <stem default-y="12">up</stem>
        <staff>1</staff>
        <beam number="1">end</beam>
        <notations>
          <slur bezier-x="-33" bezier-y="24" default-x="14" default-y="15" number="1" type="stop"/>
        </notations>
      </note>
      <backup>
        <duration>24</duration>
      </backup>
      <note default-x="11">
        <pitch>
          <step>G</step>
          <octave>3</octave>
        </pitch>
        <duration>24</duration>
        <voice>2</voice>
        <type>half</type>
        <dot/>
        <stem default-y="-44.5">down</stem>
        <staff>2</staff>
        <notations>
          <slur bezier-x="-33" bezier-y="29" default-x="8" default-y="5" number="2" type="stop"/>
        </notations>
      </note>
    </measure>
    <!--=======================================================-->
    <measure number="7" width="210">
      <print new-system="yes">
        <system-layout>
          <system-distance>60</system-distance>
        </system-layout>
        <staff-layout number="2">
          <staff-distance>79</staff-distance>
        </staff-layout>
      </print>
      <note default-x="74">
        <pitch>
          <step>F</step>
          <alter>1</alter>
          <octave>4</octave>
        </pitch>
        <duration>8</duration>
        <voice>1</voice>
        <type>quarter</type>
        <stem default-y="1">up</stem>
        <staff>1</staff>
        <notations>
          <slur bezier-x="35" bezier-y="48" default-x="20" default-y="-3" number="1" placement="above" type="start"/>
          <technical>
            <fingering default-x="-8" default-y="-55" placement="below">2</fingering>
          </technical>
        </notations>
      </note>
      <note default-x="113">
        <pitch>
          <step>G</step>
          <octave>4</octave>
        </pitch>
        <duration>4</duration>
        <voice>1</voice>
        <type>eighth</type>
        <stem default-y="16.5">up</stem>
        <staff>1</staff>
        <beam number="1">begin</beam>
        <notations>
          <technical>
            <fingering default-x="-10" default-y="-55" placement="below">1</fingering>
          </technical>
        </notations>
      </note>
      <note default-x="137">
        <pitch>
          <step>A</step>
          <octave>4</octave>
        </pitch>
        <duration>4</duration>
        <voice>1</voice>
        <type>eighth</type>
        <stem default-y="16.5">up</stem>
        <staff>1</staff>
        <beam number="1">continue</beam>
      </note>
      <note default-x="161">
        <pitch>
          <step>B</step>
          <octave>4</octave>
        </pitch>
        <duration>4</duration>
        <voice>1</voice>
        <type>eighth</type>
        <stem default-y="16.5">up</stem>
        <staff>1</staff>
        <beam number="1">continue</beam>
      </note>
      <note default-x="184">
        <pitch>
          <step>G</step>
          <octave>4</octave>
        </pitch>
        <duration>4</duration>
        <voice>1</voice>
        <type>eighth</type>
        <stem default-y="16.5">up</stem>
        <staff>1</staff>
        <beam number="1">end</beam>
      </note>
      <backup>
        <duration>24</duration>
      </backup>
      <note default-x="74">
        <pitch>
          <step>D</step>
          <octave>4</octave>
        </pitch>
        <duration>8</duration>
        <voice>2</voice>
        <type>quarter</type>
        <stem default-y="-22.5">down</stem>
        <staff>2</staff>
      </note>
      <note default-x="113">
        <pitch>
          <step>B</step>
          <octave>3</octave>
        </pitch>
        <duration>8</duration>
        <voice>2</voice>
        <type>quarter</type>
        <stem default-y="-33.5">down</stem>
        <staff>2</staff>
        <notations>
          <technical>
            <fingering default-x="-13" default-y="20" placement="above">3</fingering>
          </technical>
        </notations>
      </note>
      <note default-x="161">
        <pitch>
          <step>G</step>
          <octave>3</octave>
        </pitch>
        <duration>8</duration>
        <voice>2</voice>
        <type>quarter</type>
        <stem default-y="-45">down</stem>
        <staff>2</staff>
      </note>
    </measure>
    <!--=======================================================-->
    <measure number="8" width="171">
      <note default-x="9">
        <grace/>
        <pitch>
          <step>B</step>
          <octave>4</octave>
        </pitch>
        <voice>1</voice>
        <type>eighth</type>
        <stem default-y="-2">up</stem>
        <staff>1</staff>
        <notations>
          <slur bezier-x="4" bezier-y="-11" default-x="3" default-y="-26" number="2" placement="below" type="start"/>
        </notations>
      </note>
      <note default-x="28">
        <pitch>
          <step>A</step>
          <octave>4</octave>
        </pitch>
        <duration>24</duration>
        <voice>1</voice>
        <type>half</type>
        <dot/>
        <stem default-y="12">up</stem>
        <staff>1</staff>
        <notations>
          <slur bezier-x="-38" bezier-y="41" default-x="8" default-y="8" number="1" type="stop"/>
          <slur bezier-x="-9" bezier-y="-4" default-x="8" default-y="-36" number="2" type="stop"/>
        </notations>
      </note>
      <backup>
        <duration>24</duration>
      </backup>
      <note default-x="28">
        <pitch>
          <step>D</step>
          <octave>4</octave>
        </pitch>
        <duration>8</duration>
        <voice>2</voice>
        <type>quarter</type>
        <stem default-y="-22.5">down</stem>
        <staff>2</staff>
        <notations>
          <slur bezier-x="40" bezier-y="25" default-x="8" default-y="26" number="1" placement="above" type="start"/>
        </notations>
      </note>
      <note default-x="69">
        <pitch>
          <step>D</step>
          <octave>3</octave>
        </pitch>
        <duration>4</duration>
        <voice>2</voice>
        <type>eighth</type>
        <stem default-y="-60">down</stem>
        <staff>2</staff>
        <beam number="1">begin</beam>
      </note>
      <note default-x="94">
        <pitch>
          <step>C</step>
          <octave>4</octave>
        </pitch>
        <duration>4</duration>
        <voice>2</voice>
        <type>eighth</type>
        <stem default-y="-58.5">down</stem>
        <staff>2</staff>
        <beam number="1">continue</beam>
        <notations>
          <technical>
            <fingering default-x="-28" default-y="29" placement="above">1</fingering>
          </technical>
        </notations>
      </note>
      <note default-x="119">
        <pitch>
          <step>B</step>
          <octave>3</octave>
        </pitch>
        <duration>4</duration>
        <voice>2</voice>
        <type>eighth</type>
        <stem default-y="-57">down</stem>
        <staff>2</staff>
        <beam number="1">continue</beam>
      </note>
      <note default-x="144">
        <pitch>
          <step>A</step>
          <octave>3</octave>
        </pitch>
        <duration>4</duration>
        <voice>2</voice>
        <type>eighth</type>
        <stem default-y="-55">down</stem>
        <staff>2</staff>
        <beam number="1">end</beam>
      </note>
    </measure>
    <!--=======================================================-->
    <measure number="9" width="147">
      <note default-x="11">
        <pitch>
          <step>D</step>
          <octave>5</octave>
        </pitch>
        <duration>8</duration>
        <voice>1</voice>
        <type>quarter</type>
        <stem default-y="-50">down</stem>
        <staff>1</staff>
        <notations>
          <slur bezier-x="27" bezier-y="38" default-x="8" default-y="2" number="2" placement="above" type="start"/>
          <technical>
            <fingering default-x="-38" default-y="13" placement="above">5</fingering>
          </technical>
        </notations>
      </note>
      <note default-x="50">
        <pitch>
          <step>G</step>
          <octave>4</octave>
        </pitch>
        <duration>4</duration>
        <voice>1</voice>
        <type>eighth</type>
        <stem default-y="16.5">up</stem>
        <staff>1</staff>
        <beam number="1">begin</beam>
      </note>
      <note default-x="74">
        <pitch>
          <step>A</step>
          <octave>4</octave>
        </pitch>
        <duration>4</duration>
        <voice>1</voice>
        <type>eighth</type>
        <stem default-y="18">up</stem>
        <staff>1</staff>
        <beam number="1">continue</beam>
      </note>
      <note default-x="98">
        <pitch>
          <step>B</step>
          <octave>4</octave>
        </pitch>
        <duration>4</duration>
        <voice>1</voice>
        <type>eighth</type>
        <stem default-y="20.5">up</stem>
        <staff>1</staff>
        <beam number="1">continue</beam>
      </note>
      <note default-x="121">
        <pitch>
          <step>C</step>
          <octave>5</octave>
        </pitch>
        <duration>4</duration>
        <voice>1</voice>
        <type>eighth</type>
        <stem default-y="22">up</stem>
        <staff>1</staff>
        <beam number="1">end</beam>
      </note>
      <backup>
        <duration>24</duration>
      </backup>
      <note default-x="11">
        <pitch>
          <step>B</step>
          <octave>3</octave>
        </pitch>
        <duration>16</duration>
        <voice>2</voice>
        <type>half</type>
        <stem default-y="-33.5">down</stem>
        <staff>2</staff>
        <notations>
          <slur bezier-x="-36" bezier-y="30" default-x="9" default-y="15" number="1" type="stop"/>
          <slur bezier-x="37" bezier-y="25" default-x="10" default-y="15" number="1" placement="above" type="start"/>
        </notations>
      </note>
      <note default-x="98">
        <pitch>
          <step>A</step>
          <octave>3</octave>
        </pitch>
        <duration>8</duration>
        <voice>2</voice>
        <type>quarter</type>
        <stem default-y="-39">down</stem>
        <staff>2</staff>
      </note>
    </measure>
    <!--=======================================================-->
    <measure number="10" width="133">
      <note default-x="11">
        <pitch>
          <step>D</step>
          <octave>5</octave>
        </pitch>
        <duration>8</duration>
        <voice>1</voice>
        <type>quarter</type>
        <stem default-y="-50">down</stem>
        <staff>1</staff>
        <notations>
          <slur bezier-x="-29" bezier-y="40" default-x="8" default-y="6" number="2" type="stop"/>
        </notations>
      </note>
      <note default-x="52">
        <pitch>
          <step>G</step>
          <octave>4</octave>
        </pitch>
        <duration>8</duration>
        <voice>1</voice>
        <type>quarter</type>
        <stem default-y="6">up</stem>
        <staff>1</staff>
        <notations>
          <articulations>
            <staccato default-x="-53" default-y="-51" placement="below"/>
          </articulations>
        </notations>
      </note>
      <note default-x="91">
        <pitch>
          <step>G</step>
          <octave>4</octave>
        </pitch>
        <duration>8</duration>
        <voice>1</voice>
        <type>quarter</type>
        <stem default-y="6">up</stem>
        <staff>1</staff>
        <notations>
          <articulations>
            <staccato default-x="-57" default-y="-51" placement="below"/>
          </articulations>
        </notations>
      </note>
      <backup>
        <duration>24</duration>
      </backup>
      <note default-x="11">
        <pitch>
          <step>G</step>
          <octave>3</octave>
        </pitch>
        <duration>8</duration>
        <voice>2</voice>
        <type>quarter</type>
        <stem default-y="-45">down</stem>
        <staff>2</staff>
        <notations>
          <slur bezier-x="-33" bezier-y="30" default-x="5" default-y="3" number="1" type="stop"/>
          <technical>
            <fingering default-x="-51" default-y="10" placement="above">4</fingering>
          </technical>
        </notations>
      </note>
      <note default-x="52">
        <pitch>
          <step>B</step>
          <octave>3</octave>
        </pitch>
        <duration>8</duration>
        <voice>2</voice>
        <type>quarter</type>
        <stem default-y="-33.5">down</stem>
        <staff>2</staff>
        <notations>
          <articulations>
            <staccato default-x="-54" default-y="17" placement="above"/>
          </articulations>
        </notations>
      </note>
      <note default-x="91">
        <pitch>
          <step>G</step>
          <octave>3</octave>
        </pitch>
        <duration>8</duration>
        <voice>2</voice>
        <type>quarter</type>
        <stem default-y="-45">down</stem>
        <staff>2</staff>
        <notations>
          <articulations>
            <staccato default-x="-58" default-y="6" placement="above"/>
          </articulations>
        </notations>
      </note>
    </measure>
    <!--=======================================================-->
    <measure number="11" width="150">
      <note default-x="14">
        <pitch>
          <step>E</step>
          <octave>5</octave>
        </pitch>
        <duration>8</duration>
        <voice>1</voice>
        <type>quarter</type>
        <stem default-y="-45">down</stem>
        <staff>1</staff>
        <notations>
          <slur bezier-x="30" bezier-y="33" default-x="15" default-y="8" number="1" placement="above" type="start"/>
          <technical>
            <fingering default-x="-62" default-y="10" placement="above">3</fingering>
          </technical>
        </notations>
      </note>
      <note default-x="53">
        <pitch>
          <step>C</step>
          <octave>5</octave>
        </pitch>
        <duration>4</duration>
        <voice>1</voice>
        <type>eighth</type>
        <stem default-y="-55">down</stem>
        <staff>1</staff>
        <beam number="1">begin</beam>
        <notations>
          <ornaments>
            <mordent default-x="-76" default-y="6" placement="above"/>
          </ornaments>
        </notations>
      </note>
      <note default-x="76">
        <pitch>
          <step>D</step>
          <octave>5</octave>
        </pitch>
        <duration>4</duration>
        <voice>1</voice>
        <type>eighth</type>
        <stem default-y="-53">down</stem>
        <staff>1</staff>
        <beam number="1">continue</beam>
      </note>
      <note default-x="100">
        <pitch>
          <step>E</step>
          <octave>5</octave>
        </pitch>
        <duration>4</duration>
        <voice>1</voice>
        <type>eighth</type>
        <stem default-y="-51">down</stem>
        <staff>1</staff>
        <beam number="1">continue</beam>
      </note>
      <note default-x="124">
        <pitch>
          <step>F</step>
          <alter>1</alter>
          <octave>5</octave>
        </pitch>
        <duration>4</duration>
        <voice>1</voice>
        <type>eighth</type>
        <stem default-y="-49.5">down</stem>
        <staff>1</staff>
        <beam number="1">end</beam>
      </note>
      <backup>
        <duration>24</duration>
      </backup>
      <note default-x="14">
        <pitch>
          <step>C</step>
          <octave>4</octave>
        </pitch>
        <duration>24</duration>
        <voice>2</voice>
        <type>half</type>
        <dot/>
        <stem default-y="-28">down</stem>
        <staff>2</staff>
        <notations>
          <slur number="2" placement="above" type="start"/>
          <technical>
            <fingering default-x="-63" default-y="28" placement="above">1</fingering>
          </technical>
          <slur default-x="282" default-y="19" number="2" type="continue"/>
        </notations>
      </note>
    </measure>
    <!--=======================================================-->
    <measure number="12" width="149">
      <note default-x="11">
        <pitch>
          <step>G</step>
          <octave>5</octave>
        </pitch>
        <duration>8</duration>
        <voice>1</voice>
        <type>quarter</type>
        <stem default-y="-33.5">down</stem>
        <staff>1</staff>
        <notations>
          <slur bezier-x="-34" bezier-y="29" default-x="7" default-y="17" number="1" type="stop"/>
        </notations>
      </note>
      <note default-x="50">
        <pitch>
          <step>G</step>
          <octave>4</octave>
        </pitch>
        <duration>8</duration>
        <voice>1</voice>
        <type>quarter</type>
        <stem default-y="6">up</stem>
        <staff>1</staff>
        <notations>
          <articulations>
            <staccato default-x="-79" default-y="-51" placement="below"/>
          </articulations>
        </notations>
      </note>
      <note default-x="99">
        <pitch>
          <step>G</step>
          <octave>4</octave>
        </pitch>
        <duration>8</duration>
        <voice>1</voice>
        <type>quarter</type>
        <stem default-y="6">up</stem>
        <staff>1</staff>
        <notations>
          <articulations>
            <staccato default-x="-83" default-y="-51" placement="below"/>
          </articulations>
        </notations>
      </note>
      <backup>
        <duration>24</duration>
      </backup>
      <note default-x="11">
        <pitch>
          <step>B</step>
          <octave>3</octave>
        </pitch>
        <duration>8</duration>
        <voice>2</voice>
        <type>quarter</type>
        <stem default-y="-33.5">down</stem>
        <staff>2</staff>
        <notations>
          <technical>
            <fingering default-x="-77" default-y="19" placement="above">2</fingering>
          </technical>
        </notations>
      </note>
      <note default-x="50">
        <pitch>
          <step>C</step>
          <octave>4</octave>
        </pitch>
        <duration>4</duration>
        <voice>2</voice>
        <type>eighth</type>
        <stem default-y="-34.5">down</stem>
        <staff>2</staff>
        <beam number="1">begin</beam>
      </note>
      <note default-x="75">
        <pitch>
          <step>B</step>
          <octave>3</octave>
        </pitch>
        <duration>4</duration>
        <voice>2</voice>
        <type>eighth</type>
        <stem default-y="-35">down</stem>
        <staff>2</staff>
        <beam number="1">continue</beam>
      </note>
      <note default-x="99">
        <pitch>
          <step>A</step>
          <octave>3</octave>
        </pitch>
        <duration>4</duration>
        <voice>2</voice>
        <type>eighth</type>
        <stem default-y="-36">down</stem>
        <staff>2</staff>
        <beam number="1">continue</beam>
      </note>
      <note default-x="123">
        <pitch>
          <step>G</step>
          <octave>3</octave>
        </pitch>
        <duration>4</duration>
        <voice>2</voice>
        <type>eighth</type>
        <stem default-y="-37">down</stem>
        <staff>2</staff>
        <beam number="1">end</beam>
        <notations>
          <technical>
            <fingering default-x="-86" default-y="9" placement="above">4</fingering>
          </technical>
        </notations>
      </note>
    </measure>
    <!--=======================================================-->
    <measure number="13" width="204">
      <print new-system="yes">
        <system-layout>
          <system-distance>75</system-distance>
        </system-layout>
        <staff-layout number="2">
          <staff-distance>76</staff-distance>
        </staff-layout>
      </print>
      <note default-x="72">
        <pitch>
          <step>C</step>
          <octave>5</octave>
        </pitch>
        <duration>8</duration>
        <voice>1</voice>
        <type>quarter</type>
        <stem default-y="-55.5">down</stem>
        <staff>1</staff>
        <notations>
          <slur bezier-x="35" bezier-y="26" default-x="7" default-y="-6" number="1" placement="above" type="start"/>
          <technical>
            <fingering default-x="-9" default-y="8" placement="above">4</fingering>
          </technical>
          <ornaments>
            <mordent default-x="-16" default-y="20" placement="above"/>
          </ornaments>
        </notations>
      </note>
      <note default-x="110">
        <pitch>
          <step>D</step>
          <octave>5</octave>
        </pitch>
        <duration>4</duration>
        <voice>1</voice>
        <type>eighth</type>
        <stem default-y="-60">down</stem>
        <staff>1</staff>
        <beam number="1">begin</beam>
      </note>
      <note default-x="132">
        <pitch>
          <step>C</step>
          <octave>5</octave>
        </pitch>
        <duration>4</duration>
        <voice>1</voice>
        <type>eighth</type>
        <stem default-y="-62">down</stem>
        <staff>1</staff>
        <beam number="1">continue</beam>
      </note>
      <note default-x="156">
        <pitch>
          <step>B</step>
          <octave>4</octave>
        </pitch>
        <duration>4</duration>
        <voice>1</voice>
        <type>eighth</type>
        <stem default-y="-64">down</stem>
        <staff>1</staff>
        <beam number="1">continue</beam>
      </note>
      <note default-x="179">
        <pitch>
          <step>A</step>
          <octave>4</octave>
        </pitch>
        <duration>4</duration>
        <voice>1</voice>
        <type>eighth</type>
        <stem default-y="-66">down</stem>
        <staff>1</staff>
        <beam number="1">end</beam>
      </note>
      <backup>
        <duration>24</duration>
      </backup>
      <note default-x="72">
        <pitch>
          <step>A</step>
          <octave>3</octave>
        </pitch>
        <duration>16</duration>
        <voice>2</voice>
        <type>half</type>
        <stem default-y="-39">down</stem>
        <staff>2</staff>
        <notations>
          <technical>
            <fingering default-x="-8" default-y="18" placement="above">1</fingering>
          </technical>
        </notations>
      </note>
      <note default-x="156">
        <pitch>
          <step>F</step>
          <alter>1</alter>
          <octave>3</octave>
        </pitch>
        <duration>8</duration>
        <voice>2</voice>
        <type>quarter</type>
        <stem default-y="-50">down</stem>
        <staff>2</staff>
        <notations>
          <technical>
            <fingering default-x="-15" default-y="10" placement="above">3</fingering>
          </technical>
        </notations>
      </note>
    </measure>
    <!--=======================================================-->
    <measure number="14" width="143">
      <note default-x="11">
        <pitch>
          <step>B</step>
          <octave>4</octave>
        </pitch>
        <duration>8</duration>
        <voice>1</voice>
        <type>quarter</type>
        <stem default-y="-61">down</stem>
        <staff>1</staff>
        <notations>
          <slur bezier-x="-34" bezier-y="29" default-x="5" default-y="-11" number="1" type="stop"/>
          <slur bezier-x="32" bezier-y="55" default-x="10" default-y="-10" number="1" placement="above" type="start"/>
        </notations>
      </note>
      <note default-x="49">
        <pitch>
          <step>C</step>
          <octave>5</octave>
        </pitch>
        <duration>4</duration>
        <voice>1</voice>
        <type>eighth</type>
        <stem default-y="22">up</stem>
        <staff>1</staff>
        <beam number="1">begin</beam>
      </note>
      <note default-x="72">
        <pitch>
          <step>B</step>
          <octave>4</octave>
        </pitch>
        <duration>4</duration>
        <voice>1</voice>
        <type>eighth</type>
        <stem default-y="20">up</stem>
        <staff>1</staff>
        <beam number="1">continue</beam>
      </note>
      <note default-x="95">
        <pitch>
          <step>A</step>
          <octave>4</octave>
        </pitch>
        <duration>4</duration>
        <voice>1</voice>
        <type>eighth</type>
        <stem default-y="18.5">up</stem>
        <staff>1</staff>
        <beam number="1">continue</beam>
      </note>
      <note default-x="119">
        <pitch>
          <step>G</step>
          <octave>4</octave>
        </pitch>
        <duration>4</duration>
        <voice>1</voice>
        <type>eighth</type>
        <stem default-y="17">up</stem>
        <staff>1</staff>
        <beam number="1">end</beam>
      </note>
      <backup>
        <duration>24</duration>
      </backup>
      <note default-x="12">
        <pitch>
          <step>G</step>
          <octave>3</octave>
        </pitch>
        <duration>16</duration>
        <voice>2</voice>
        <type>half</type>
        <stem default-y="-44.5">down</stem>
        <staff>2</staff>
        <notations>
          <slur bezier-x2="45" bezier-y2="25" default-x="-173" default-y="19" number="2" type="continue"/>
          <slur bezier-x="-41" bezier-y="32" default-x="8" default-y="4" number="2" type="stop"/>
          <slur bezier-x="40" bezier-y="33" default-x="10" default-y="4" number="2" placement="above" type="start"/>
          <technical>
            <fingering default-x="-22" default-y="11" placement="above">2</fingering>
          </technical>
        </notations>
      </note>
      <note default-x="95">
        <pitch>
          <step>B</step>
          <octave>3</octave>
        </pitch>
        <duration>8</duration>
        <voice>2</voice>
        <type>quarter</type>
        <stem default-y="-34">down</stem>
        <staff>2</staff>
        <notations>
          <technical>
            <fingering default-x="-29" default-y="20" placement="above">1</fingering>
          </technical>
        </notations>
      </note>
    </measure>
    <!--=======================================================-->
    <measure number="15" width="146">
      <note default-x="13">
        <pitch>
          <step>A</step>
          <octave>4</octave>
        </pitch>
        <duration>8</duration>
        <voice>1</voice>
        <type>quarter</type>
        <stem default-y="12">up</stem>
        <staff>1</staff>
        <notations>
          <slur bezier-x="-38" bezier-y="48" default-x="9" default-y="4" number="1" type="stop"/>
          <slur number="1" placement="above" type="start"/>
        </notations>
      </note>
      <note default-x="51">
        <pitch>
          <step>B</step>
          <octave>4</octave>
        </pitch>
        <duration>4</duration>
        <voice>1</voice>
        <type>eighth</type>
        <stem default-y="17">up</stem>
        <staff>1</staff>
        <beam number="1">begin</beam>
      </note>
      <note default-x="75">
        <pitch>
          <step>A</step>
          <octave>4</octave>
        </pitch>
        <duration>4</duration>
        <voice>1</voice>
        <type>eighth</type>
        <stem default-y="15">up</stem>
        <staff>1</staff>
        <beam number="1">continue</beam>
      </note>
      <note default-x="98">
        <pitch>
          <step>G</step>
          <octave>4</octave>
        </pitch>
        <duration>4</duration>
        <voice>1</voice>
        <type>eighth</type>
        <stem default-y="13">up</stem>
        <staff>1</staff>
        <beam number="1">continue</beam>
      </note>
      <note default-x="121">
        <pitch>
          <step>F</step>
          <alter>1</alter>
          <octave>4</octave>
        </pitch>
        <duration>4</duration>
        <voice>1</voice>
        <type>eighth</type>
        <stem default-y="11">up</stem>
        <staff>1</staff>
        <beam number="1">end</beam>
        <notations>
          <technical>
            <fingering default-x="-46" default-y="-56" placement="below">2</fingering>
          </technical>
        </notations>
      </note>
      <backup>
        <duration>24</duration>
      </backup>
      <note default-x="13">
        <pitch>
          <step>C</step>
          <octave>4</octave>
        </pitch>
        <duration>8</duration>
        <voice>2</voice>
        <type>quarter</type>
        <stem default-y="-28">down</stem>
        <staff>2</staff>
        <notations>
          <technical>
            <fingering default-x="-37" default-y="28" placement="above">2</fingering>
          </technical>
        </notations>
      </note>
      <note default-x="51">
        <pitch>
          <step>D</step>
          <octave>4</octave>
        </pitch>
        <duration>8</duration>
        <voice>2</voice>
        <type>quarter</type>
        <stem default-y="-23">down</stem>
        <staff>2</staff>
        <notations>
          <slur bezier-x="-46" bezier-y="24" default-x="9" default-y="25" number="2" type="stop"/>
        </notations>
      </note>
      <note default-x="98">
        <pitch>
          <step>D</step>
          <octave>3</octave>
        </pitch>
        <duration>8</duration>
        <voice>2</voice>
        <type>quarter</type>
        <stem default-y="-61">down</stem>
        <staff>2</staff>
      </note>
    </measure>
    <!--=======================================================-->
    <measure number="16" width="145">
      <note default-x="11">
        <pitch>
          <step>G</step>
          <octave>4</octave>
        </pitch>
        <duration>24</duration>
        <voice>1</voice>
        <type>half</type>
        <dot/>
        <stem default-y="6.5">up</stem>
        <staff>1</staff>
        <notations>
          <slur number="1" type="stop"/>
          <technical>
            <fingering default-x="-44" default-y="-52" placement="below">1</fingering>
          </technical>
        </notations>
      </note>
      <backup>
        <duration>24</duration>
      </backup>
      <note default-x="11">
        <pitch>
          <step>G</step>
          <octave>3</octave>
        </pitch>
        <duration>16</duration>
        <voice>2</voice>
        <type>half</type>
        <stem default-y="-44.5">down</stem>
        <staff>2</staff>
        <notations>
          <technical>
            <fingering default-x="-47" default-y="10" placement="above">1</fingering>
          </technical>
        </notations>
      </note>
      <note default-x="83">
        <pitch>
          <step>G</step>
          <octave>2</octave>
        </pitch>
        <duration>8</duration>
        <voice>2</voice>
        <type>quarter</type>
        <stem default-y="-4.5">up</stem>
        <staff>2</staff>
      </note>
      <barline location="right">
        <bar-style>light-heavy</bar-style>
        <repeat direction="backward" winged="none"/>
      </barline>
    </measure>
    <!--=======================================================-->
    <measure number="17" width="175">
      <barline location="left">
        <bar-style>heavy-light</bar-style>
        <repeat direction="forward" winged="none"/>
      </barline>
      <direction placement="below">
        <direction-type>
          <dynamics default-y="-79" halign="left" relative-x="-15">
            <mf/>
          </dynamics>
        </direction-type>
        <staff>1</staff>
        <sound dynamics="83"/>
      </direction>
      <note default-x="33">
        <pitch>
          <step>B</step>
          <octave>5</octave>
        </pitch>
        <duration>8</duration>
        <voice>1</voice>
        <type>quarter</type>
        <stem default-y="-23">down</stem>
        <staff>1</staff>
        <notations>
          <slur bezier-x="39" bezier-y="27" default-x="7" default-y="25" number="1" placement="above" type="start"/>
          <technical>
            <fingering default-x="-63" default-y="34" placement="above">5</fingering>
          </technical>
        </notations>
      </note>
      <note default-x="72">
        <pitch>
          <step>G</step>
          <octave>5</octave>
        </pitch>
        <duration>4</duration>
        <voice>1</voice>
        <type>eighth</type>
        <stem default-y="-33">down</stem>
        <staff>1</staff>
        <beam number="1">begin</beam>
      </note>
      <note default-x="98">
        <pitch>
          <step>A</step>
          <octave>5</octave>
        </pitch>
        <duration>4</duration>
        <voice>1</voice>
        <type>eighth</type>
        <stem default-y="-33">down</stem>
        <staff>1</staff>
        <beam number="1">continue</beam>
      </note>
      <note default-x="125">
        <pitch>
          <step>B</step>
          <octave>5</octave>
        </pitch>
        <duration>4</duration>
        <voice>1</voice>
        <type>eighth</type>
        <stem default-y="-33">down</stem>
        <staff>1</staff>
        <beam number="1">continue</beam>
      </note>
      <note default-x="150">
        <pitch>
          <step>G</step>
          <octave>5</octave>
        </pitch>
        <duration>4</duration>
        <voice>1</voice>
        <type>eighth</type>
        <stem default-y="-33">down</stem>
        <staff>1</staff>
        <beam number="1">end</beam>
      </note>
      <backup>
        <duration>24</duration>
      </backup>
      <note default-x="33">
        <pitch>
          <step>G</step>
          <octave>3</octave>
        </pitch>
        <duration>24</duration>
        <voice>2</voice>
        <type>half</type>
        <dot/>
        <stem default-y="-44.5">down</stem>
        <staff>2</staff>
        <notations>
          <slur bezier-x="39" bezier-y="28" default-x="8" default-y="3" number="2" placement="above" type="start"/>
        </notations>
      </note>
    </measure>
    <!--=======================================================-->
    <measure number="18" width="146">
      <note default-x="13">
        <pitch>
          <step>A</step>
          <octave>5</octave>
        </pitch>
        <duration>8</duration>
        <voice>1</voice>
        <type>quarter</type>
        <stem default-y="-28">down</stem>
        <staff>1</staff>
        <notations>
          <slur bezier-x="-37" bezier-y="29" default-x="7" default-y="19" number="1" type="stop"/>
          <slur number="1" placement="above" type="start"/>
          <technical>
            <fingering default-x="-78" default-y="28" placement="above">4</fingering>
          </technical>
          <slur default-x="134" default-y="16" number="1" type="continue"/>
        </notations>
      </note>
      <note default-x="51">
        <pitch>
          <step>D</step>
          <octave>5</octave>
        </pitch>
        <duration>4</duration>
        <voice>1</voice>
        <type>eighth</type>
        <stem default-y="-49">down</stem>
        <staff>1</staff>
        <beam number="1">begin</beam>
      </note>
      <note default-x="75">
        <pitch>
          <step>E</step>
          <octave>5</octave>
        </pitch>
        <duration>4</duration>
        <voice>1</voice>
        <type>eighth</type>
        <stem default-y="-49">down</stem>
        <staff>1</staff>
        <beam number="1">continue</beam>
      </note>
      <note default-x="98">
        <pitch>
          <step>F</step>
          <alter>1</alter>
          <octave>5</octave>
        </pitch>
        <duration>4</duration>
        <voice>1</voice>
        <type>eighth</type>
        <stem default-y="-49">down</stem>
        <staff>1</staff>
        <beam number="1">continue</beam>
      </note>
      <note default-x="121">
        <pitch>
          <step>D</step>
          <octave>5</octave>
        </pitch>
        <duration>4</duration>
        <voice>1</voice>
        <type>eighth</type>
        <stem default-y="-49">down</stem>
        <staff>1</staff>
        <beam number="1">end</beam>
      </note>
      <backup>
        <duration>24</duration>
      </backup>
      <note default-x="13">
        <pitch>
          <step>F</step>
          <alter>1</alter>
          <octave>3</octave>
        </pitch>
        <duration>24</duration>
        <voice>2</voice>
        <type>half</type>
        <dot/>
        <stem default-y="-50">down</stem>
        <staff>2</staff>
        <notations>
          <slur bezier-x="-38" bezier-y="28" default-x="8" default-y="1" number="2" type="stop"/>
        </notations>
      </note>
    </measure>
    <!--=======================================================-->
    <measure number="19" width="192">
      <print new-system="yes">
        <system-layout>
          <system-distance>73</system-distance>
        </system-layout>
        <staff-layout number="2">
          <staff-distance>79</staff-distance>
        </staff-layout>
      </print>
      <note default-x="72">
        <pitch>
          <step>G</step>
          <octave>5</octave>
        </pitch>
        <duration>8</duration>
        <voice>1</voice>
        <type>quarter</type>
        <stem default-y="-33.5">down</stem>
        <staff>1</staff>
        <notations>
          <slur bezier-x2="11" bezier-y2="8" default-x="-26" default-y="20" number="1" type="continue"/>
          <slur bezier-x="-8" bezier-y="12" default-x="5" default-y="13" number="1" type="stop"/>
          <slur bezier-x="52" bezier-y="26" default-x="8" default-y="16" number="1" placement="above" type="start"/>
          <technical>
            <fingering default-x="-10" default-y="21" placement="above">4</fingering>
          </technical>
        </notations>
      </note>
      <note default-x="106">
        <pitch>
          <step>E</step>
          <octave>5</octave>
        </pitch>
        <duration>4</duration>
        <voice>1</voice>
        <type>eighth</type>
        <stem default-y="-45.5">down</stem>
        <staff>1</staff>
        <beam number="1">begin</beam>
      </note>
      <note default-x="127">
        <pitch>
          <step>F</step>
          <alter>1</alter>
          <octave>5</octave>
        </pitch>
        <duration>4</duration>
        <voice>1</voice>
        <type>eighth</type>
        <stem default-y="-46.5">down</stem>
        <staff>1</staff>
        <beam number="1">continue</beam>
      </note>
      <note default-x="149">
        <pitch>
          <step>G</step>
          <octave>5</octave>
        </pitch>
        <duration>4</duration>
        <voice>1</voice>
        <type>eighth</type>
        <stem default-y="-47">down</stem>
        <staff>1</staff>
        <beam number="1">continue</beam>
      </note>
      <note default-x="169">
        <pitch>
          <step>D</step>
          <octave>5</octave>
        </pitch>
        <duration>4</duration>
        <voice>1</voice>
        <type>eighth</type>
        <stem default-y="-48">down</stem>
        <staff>1</staff>
        <beam number="1">end</beam>
        <notations>
          <technical>
            <fingering default-x="-16" default-y="10" placement="above">1</fingering>
          </technical>
        </notations>
      </note>
      <backup>
        <duration>24</duration>
      </backup>
      <note default-x="72">
        <pitch>
          <step>E</step>
          <octave>3</octave>
        </pitch>
        <duration>8</duration>
        <voice>2</voice>
        <type>quarter</type>
        <stem default-y="-56">down</stem>
        <staff>2</staff>
      </note>
      <note default-x="106">
        <pitch>
          <step>G</step>
          <octave>3</octave>
        </pitch>
        <duration>8</duration>
        <voice>2</voice>
        <type>quarter</type>
        <stem default-y="-45">down</stem>
        <staff>2</staff>
      </note>
      <note default-x="149">
        <pitch>
          <step>E</step>
          <octave>3</octave>
        </pitch>
        <duration>8</duration>
        <voice>2</voice>
        <type>quarter</type>
        <stem default-y="-56">down</stem>
        <staff>2</staff>
      </note>
    </measure>
    <!--=======================================================-->
    <measure number="20" width="135">
      <note default-x="23">
        <pitch>
          <step>C</step>
          <alter>1</alter>
          <octave>5</octave>
        </pitch>
        <duration>8</duration>
        <voice>1</voice>
        <type>quarter</type>
        <accidental>sharp</accidental>
        <stem default-y="-56">down</stem>
        <staff>1</staff>
        <notations>
          <technical>
            <fingering default-x="-22" default-y="9" placement="above">3</fingering>
          </technical>
        </notations>
      </note>
      <note default-x="57">
        <pitch>
          <step>B</step>
          <octave>4</octave>
        </pitch>
        <duration>4</duration>
        <voice>1</voice>
        <type>eighth</type>
        <stem default-y="-60">down</stem>
        <staff>1</staff>
        <beam number="1">begin</beam>
      </note>
      <note default-x="78">
        <pitch>
          <step>C</step>
          <alter>1</alter>
          <octave>5</octave>
        </pitch>
        <duration>4</duration>
        <voice>1</voice>
        <type>eighth</type>
        <stem default-y="-55">down</stem>
        <staff>1</staff>
        <beam number="1">end</beam>
      </note>
      <note default-x="100">
        <pitch>
          <step>A</step>
          <octave>4</octave>
        </pitch>
        <duration>8</duration>
        <voice>1</voice>
        <type>quarter</type>
        <stem default-y="12">up</stem>
        <staff>1</staff>
        <notations>
          <slur bezier-x="-49" bezier-y="33" default-x="10" default-y="3" number="1" type="stop"/>
        </notations>
      </note>
      <backup>
        <duration>24</duration>
      </backup>
      <note default-x="23">
        <pitch>
          <step>A</step>
          <octave>3</octave>
        </pitch>
        <duration>16</duration>
        <voice>2</voice>
        <type>half</type>
        <stem default-y="-39">down</stem>
        <staff>2</staff>
      </note>
      <note default-x="100">
        <pitch>
          <step>A</step>
          <octave>2</octave>
        </pitch>
        <duration>8</duration>
        <voice>2</voice>
        <type>quarter</type>
        <stem default-y="1">up</stem>
        <staff>2</staff>
      </note>
    </measure>
    <!--=======================================================-->
    <measure number="21" width="151">
      <direction placement="below">
        <direction-type>
          <wedge default-y="-82" spread="0" type="crescendo"/>
        </direction-type>
        <offset>1</offset>
        <staff>1</staff>
      </direction>
      <note default-x="11">
        <pitch>
          <step>A</step>
          <octave>4</octave>
        </pitch>
        <duration>4</duration>
        <voice>1</voice>
        <type>eighth</type>
        <stem default-y="-66">down</stem>
        <staff>1</staff>
        <beam number="1">begin</beam>
        <notations>
          <slur bezier-x="31" bezier-y="40" default-x="7" default-y="-11" number="1" placement="above" type="start"/>
        </notations>
      </note>
      <note default-x="32">
        <pitch>
          <step>B</step>
          <octave>4</octave>
        </pitch>
        <duration>4</duration>
        <voice>1</voice>
        <type>eighth</type>
        <stem default-y="-65">down</stem>
        <staff>1</staff>
        <beam number="1">continue</beam>
      </note>
      <note default-x="65">
        <pitch>
          <step>C</step>
          <alter>1</alter>
          <octave>5</octave>
        </pitch>
        <duration>4</duration>
        <voice>1</voice>
        <type>eighth</type>
        <accidental>sharp</accidental>
        <stem default-y="-63">down</stem>
        <staff>1</staff>
        <beam number="1">continue</beam>
      </note>
      <note default-x="87">
        <pitch>
          <step>D</step>
          <octave>5</octave>
        </pitch>
        <duration>4</duration>
        <voice>1</voice>
        <type>eighth</type>
        <stem default-y="-62.5">down</stem>
        <staff>1</staff>
        <beam number="1">continue</beam>
        <notations>
          <technical>
            <fingering default-x="-39" default-y="10" placement="above">1</fingering>
          </technical>
        </notations>
      </note>
      <note default-x="108">
        <pitch>
          <step>E</step>
          <octave>5</octave>
        </pitch>
        <duration>4</duration>
        <voice>1</voice>
        <type>eighth</type>
        <stem default-y="-61">down</stem>
        <staff>1</staff>
        <beam number="1">continue</beam>
      </note>
      <direction>
        <direction-type>
          <wedge spread="16" type="stop"/>
        </direction-type>
        <staff>1</staff>
      </direction>
      <note default-x="128">
        <pitch>
          <step>F</step>
          <alter>1</alter>
          <octave>5</octave>
        </pitch>
        <duration>4</duration>
        <voice>1</voice>
        <type>eighth</type>
        <stem default-y="-60">down</stem>
        <staff>1</staff>
        <beam number="1">end</beam>
      </note>
      <backup>
        <duration>24</duration>
      </backup>
      <note default-x="12">
        <pitch>
          <step>A</step>
          <octave>3</octave>
        </pitch>
        <duration>24</duration>
        <voice>2</voice>
        <type>half</type>
        <dot/>
        <stem default-y="-39">down</stem>
        <staff>2</staff>
        <notations>
          <slur bezier-x="35" bezier-y="23" default-x="8" default-y="9" number="2" placement="above" type="start"/>
        </notations>
      </note>
    </measure>
    <!--=======================================================-->
    <measure number="22" width="120">
      <note default-x="12">
        <pitch>
          <step>G</step>
          <octave>5</octave>
        </pitch>
        <duration>8</duration>
        <voice>1</voice>
        <type>quarter</type>
        <stem default-y="-33.5">down</stem>
        <staff>1</staff>
        <notations>
          <slur bezier-x="-35" bezier-y="25" default-x="7" default-y="17" number="1" type="stop"/>
        </notations>
      </note>
      <note default-x="47">
        <pitch>
          <step>F</step>
          <alter>1</alter>
          <octave>5</octave>
        </pitch>
        <duration>8</duration>
        <voice>1</voice>
        <type>quarter</type>
        <stem default-y="-39">down</stem>
        <staff>1</staff>
      </note>
      <note default-x="83">
        <pitch>
          <step>E</step>
          <octave>5</octave>
        </pitch>
        <duration>8</duration>
        <voice>1</voice>
        <type>quarter</type>
        <stem default-y="-45">down</stem>
        <staff>1</staff>
      </note>
      <backup>
        <duration>24</duration>
      </backup>
      <note default-x="12">
        <pitch>
          <step>B</step>
          <octave>3</octave>
        </pitch>
        <duration>8</duration>
        <voice>2</voice>
        <type>quarter</type>
        <stem default-y="-34">down</stem>
        <staff>2</staff>
        <notations>
          <slur bezier-x="-36" bezier-y="20" default-x="5" default-y="16" number="2" type="stop"/>
          <technical>
            <fingering default-x="-46" default-y="27" placement="above">3</fingering>
          </technical>
        </notations>
      </note>
      <note default-x="47">
        <pitch>
          <step>D</step>
          <octave>4</octave>
        </pitch>
        <duration>8</duration>
        <voice>2</voice>
        <type>quarter</type>
        <stem default-y="-22.5">down</stem>
        <staff>2</staff>
      </note>
      <note default-x="83">
        <pitch>
          <step>C</step>
          <alter>1</alter>
          <octave>4</octave>
        </pitch>
        <duration>8</duration>
        <voice>2</voice>
        <type>quarter</type>
        <accidental>sharp</accidental>
        <stem default-y="-28">down</stem>
        <staff>2</staff>
      </note>
    </measure>
    <!--=======================================================-->
    <measure number="23" width="120">
      <note default-x="14">
        <pitch>
          <step>F</step>
          <alter>1</alter>
          <octave>5</octave>
        </pitch>
        <duration>8</duration>
        <voice>1</voice>
        <type>quarter</type>
        <stem default-y="-39">down</stem>
        <staff>1</staff>
      </note>
      <direction placement="below">
        <direction-type>
          <wedge default-y="-80" spread="16" type="diminuendo"/>
        </direction-type>
        <offset>2</offset>
        <staff>1</staff>
      </direction>
      <note default-x="49">
        <pitch>
          <step>A</step>
          <octave>4</octave>
        </pitch>
        <duration>8</duration>
        <voice>1</voice>
        <type>quarter</type>
        <stem default-y="12">up</stem>
        <staff>1</staff>
      </note>
      <note default-x="84">
        <pitch>
          <step>C</step>
          <alter>1</alter>
          <octave>5</octave>
        </pitch>
        <duration>8</duration>
        <voice>1</voice>
        <type>quarter</type>
        <accidental>sharp</accidental>
        <stem default-y="-56">down</stem>
        <staff>1</staff>
      </note>
      <backup>
        <duration>24</duration>
      </backup>
      <note default-x="14">
        <pitch>
          <step>D</step>
          <octave>4</octave>
        </pitch>
        <duration>8</duration>
        <voice>2</voice>
        <type>quarter</type>
        <stem default-y="-22.5">down</stem>
        <staff>2</staff>
      </note>
      <note default-x="49">
        <pitch>
          <step>F</step>
          <alter>1</alter>
          <octave>3</octave>
        </pitch>
        <duration>8</duration>
        <voice>2</voice>
        <type>quarter</type>
        <stem default-y="-50">down</stem>
        <staff>2</staff>
        <notations>
          <technical>
            <fingering default-x="-62" default-y="11" placement="above">4</fingering>
          </technical>
        </notations>
      </note>
      <note default-x="84">
        <pitch>
          <step>A</step>
          <octave>3</octave>
        </pitch>
        <duration>8</duration>
        <voice>2</voice>
        <type>quarter</type>
        <stem default-y="-39">down</stem>
        <staff>2</staff>
        <notations>
          <technical>
            <fingering default-x="-64" default-y="15" placement="above">2</fingering>
          </technical>
        </notations>
      </note>
    </measure>
    <!--=======================================================-->
    <measure number="24" width="120">
      <direction>
        <direction-type>
          <wedge spread="0" type="stop"/>
        </direction-type>
        <offset>1</offset>
        <staff>1</staff>
      </direction>
      <note default-x="13">
        <pitch>
          <step>D</step>
          <octave>5</octave>
        </pitch>
        <duration>24</duration>
        <voice>1</voice>
        <type>half</type>
        <dot/>
        <stem default-y="-50">down</stem>
        <staff>1</staff>
      </note>
      <backup>
        <duration>24</duration>
      </backup>
      <note default-x="13">
        <pitch>
          <step>D</step>
          <octave>4</octave>
        </pitch>
        <duration>8</duration>
        <voice>2</voice>
        <type>quarter</type>
        <stem default-y="-22.5">down</stem>
        <staff>2</staff>
        <notations>
          <slur bezier-x="17" bezier-y="11" default-x="8" default-y="27" number="1" placement="above" type="start"/>
        </notations>
      </note>
      <note default-x="49">
        <pitch>
          <step>D</step>
          <octave>3</octave>
        </pitch>
        <duration>8</duration>
        <voice>2</voice>
        <type>quarter</type>
        <stem default-y="-61">down</stem>
        <staff>2</staff>
        <notations>
          <slur bezier-x="-2" bezier-y="23" default-x="8" default-y="-8" number="1" type="stop"/>
        </notations>
      </note>
      <note default-x="83">
        <pitch>
          <step>C</step>
          <octave>4</octave>
        </pitch>
        <duration>8</duration>
        <voice>2</voice>
        <type>quarter</type>
        <accidental>natural</accidental>
        <stem default-y="-28">down</stem>
        <staff>2</staff>
        <notations>
          <technical>
            <fingering default-x="-73" default-y="29" placement="above">1</fingering>
          </technical>
        </notations>
      </note>
    </measure>
    <!--=======================================================-->
    <measure number="25" width="123">
      <note default-x="11">
        <pitch>
          <step>D</step>
          <octave>5</octave>
        </pitch>
        <duration>8</duration>
        <voice>1</voice>
        <type>quarter</type>
        <stem default-y="-50">down</stem>
        <staff>1</staff>
        <notations>
          <slur bezier-x="18" bezier-y="19" default-x="7" default-y="2" number="1" placement="above" type="start"/>
        </notations>
      </note>
      <note default-x="45">
        <pitch>
          <step>G</step>
          <octave>4</octave>
        </pitch>
        <duration>4</duration>
        <voice>1</voice>
        <type>eighth</type>
        <stem default-y="5">up</stem>
        <staff>1</staff>
        <beam number="1">begin</beam>
      </note>
      <note default-x="67">
        <pitch>
          <step>F</step>
          <alter>1</alter>
          <octave>4</octave>
        </pitch>
        <duration>4</duration>
        <voice>1</voice>
        <type>eighth</type>
        <stem default-y="3">up</stem>
        <staff>1</staff>
        <beam number="1">end</beam>
        <notations>
          <technical>
            <fingering default-x="-85" default-y="-54" placement="below">2</fingering>
          </technical>
        </notations>
      </note>
      <note default-x="87">
        <pitch>
          <step>G</step>
          <octave>4</octave>
        </pitch>
        <duration>8</duration>
        <voice>1</voice>
        <type>quarter</type>
        <stem default-y="6">up</stem>
        <staff>1</staff>
        <notations>
          <slur bezier-x="-16" bezier-y="27" default-x="9" default-y="-5" number="1" type="stop"/>
          <technical>
            <fingering default-x="-83" default-y="-54" placement="below">1</fingering>
          </technical>
        </notations>
      </note>
      <backup>
        <duration>24</duration>
      </backup>
      <note default-x="12">
        <rest>
          <display-step>G</display-step>
          <display-octave>4</display-octave>
        </rest>
        <duration>8</duration>
        <voice>2</voice>
        <type>quarter</type>
        <staff>2</staff>
      </note>
      <note default-x="45">
        <pitch>
          <step>D</step>
          <octave>4</octave>
        </pitch>
        <duration>16</duration>
        <voice>2</voice>
        <type>half</type>
        <stem default-y="51.5">up</stem>
        <staff>2</staff>
      </note>
      <backup>
        <duration>24</duration>
      </backup>
      <note default-x="11">
        <pitch>
          <step>B</step>
          <octave>3</octave>
        </pitch>
        <duration>16</duration>
        <voice>3</voice>
        <type>half</type>
        <stem default-y="-34">down</stem>
        <staff>2</staff>
        <notations>
          <technical>
            <fingering default-x="-80" default-y="-55" placement="below">3</fingering>
          </technical>
        </notations>
      </note>
      <note default-x="87">
        <pitch>
          <step>B</step>
          <octave>3</octave>
        </pitch>
        <duration>8</duration>
        <voice>3</voice>
        <type>quarter</type>
        <stem default-y="-34">down</stem>
        <staff>2</staff>
      </note>
    </measure>
    <!--=======================================================-->
    <measure number="26" width="186">
      <print new-system="yes">
        <system-layout>
          <system-distance>73</system-distance>
        </system-layout>
        <staff-layout number="2">
          <staff-distance>89</staff-distance>
        </staff-layout>
      </print>
      <note default-x="74">
        <pitch>
          <step>E</step>
          <octave>5</octave>
        </pitch>
        <duration>8</duration>
        <voice>1</voice>
        <type>quarter</type>
        <stem default-y="-44.5">down</stem>
        <staff>1</staff>
        <notations>
          <slur bezier-x="20" bezier-y="21" default-x="7" default-y="6" number="1" placement="above" type="start"/>
        </notations>
      </note>
      <note default-x="109">
        <pitch>
          <step>G</step>
          <octave>4</octave>
        </pitch>
        <duration>4</duration>
        <voice>1</voice>
        <type>eighth</type>
        <stem default-y="5">up</stem>
        <staff>1</staff>
        <beam number="1">begin</beam>
      </note>
      <note default-x="129">
        <pitch>
          <step>F</step>
          <alter>1</alter>
          <octave>4</octave>
        </pitch>
        <duration>4</duration>
        <voice>1</voice>
        <type>eighth</type>
        <stem default-y="2.5">up</stem>
        <staff>1</staff>
        <beam number="1">end</beam>
      </note>
      <note default-x="151">
        <pitch>
          <step>G</step>
          <octave>4</octave>
        </pitch>
        <duration>8</duration>
        <voice>1</voice>
        <type>quarter</type>
        <stem default-y="6.5">up</stem>
        <staff>1</staff>
        <notations>
          <slur bezier-x="-22" bezier-y="20" default-x="12" default-y="10" number="1" type="stop"/>
        </notations>
      </note>
      <backup>
        <duration>24</duration>
      </backup>
      <note default-x="74">
        <rest>
          <display-step>A</display-step>
          <display-octave>4</display-octave>
        </rest>
        <duration>8</duration>
        <voice>2</voice>
        <type>quarter</type>
        <staff>2</staff>
      </note>
      <note default-x="109">
        <pitch>
          <step>E</step>
          <octave>4</octave>
        </pitch>
        <duration>16</duration>
        <voice>2</voice>
        <type>half</type>
        <stem default-y="57">up</stem>
        <staff>2</staff>
      </note>
      <backup>
        <duration>24</duration>
      </backup>
      <note default-x="74">
        <pitch>
          <step>C</step>
          <octave>4</octave>
        </pitch>
        <duration>16</duration>
        <voice>3</voice>
        <type>half</type>
        <stem default-y="-28">down</stem>
        <staff>2</staff>
        <notations>
          <technical>
            <fingering default-x="-7" default-y="-40" placement="below">2</fingering>
          </technical>
        </notations>
      </note>
      <note default-x="151">
        <pitch>
          <step>C</step>
          <octave>4</octave>
        </pitch>
        <duration>8</duration>
        <voice>3</voice>
        <type>quarter</type>
        <stem default-y="-28">down</stem>
        <staff>2</staff>
      </note>
    </measure>
    <!--=======================================================-->
    <measure number="27" width="119">
      <note default-x="11">
        <pitch>
          <step>D</step>
          <octave>5</octave>
        </pitch>
        <duration>8</duration>
        <voice>1</voice>
        <type>quarter</type>
        <stem default-y="-50">down</stem>
        <staff>1</staff>
        <notations>
          <slur bezier-x="46" bezier-y="34" default-x="7" default-y="4" number="1" placement="above" type="start"/>
          <technical>
            <fingering default-x="-20" default-y="14" placement="above">5</fingering>
          </technical>
        </notations>
      </note>
      <note default-x="46">
        <pitch>
          <step>C</step>
          <octave>5</octave>
        </pitch>
        <duration>8</duration>
        <voice>1</voice>
        <type>quarter</type>
        <stem default-y="-55.5">down</stem>
        <staff>1</staff>
      </note>
      <note default-x="82">
        <pitch>
          <step>B</step>
          <octave>4</octave>
        </pitch>
        <duration>8</duration>
        <voice>1</voice>
        <type>quarter</type>
        <stem default-y="-61">down</stem>
        <staff>1</staff>
      </note>
      <backup>
        <duration>24</duration>
      </backup>
      <note default-x="11">
        <pitch>
          <step>B</step>
          <octave>3</octave>
        </pitch>
        <duration>8</duration>
        <voice>2</voice>
        <type>quarter</type>
        <stem default-y="-33.5">down</stem>
        <staff>2</staff>
        <notations>
          <slur bezier-x="28" bezier-y="27" default-x="8" default-y="13" number="2" placement="above" type="start"/>
          <technical>
            <fingering default-x="-20" default-y="22" placement="above">3</fingering>
          </technical>
        </notations>
      </note>
      <note default-x="46">
        <pitch>
          <step>A</step>
          <octave>3</octave>
        </pitch>
        <duration>8</duration>
        <voice>2</voice>
        <type>quarter</type>
        <stem default-y="-39">down</stem>
        <staff>2</staff>
      </note>
      <note default-x="82">
        <pitch>
          <step>G</step>
          <octave>3</octave>
        </pitch>
        <duration>8</duration>
        <voice>2</voice>
        <type>quarter</type>
        <stem default-y="-44.5">down</stem>
        <staff>2</staff>
      </note>
    </measure>
    <!--=======================================================-->
    <measure number="28" width="134">
      <note default-x="13">
        <pitch>
          <step>A</step>
          <octave>4</octave>
        </pitch>
        <duration>4</duration>
        <voice>1</voice>
        <type>eighth</type>
        <stem default-y="11">up</stem>
        <staff>1</staff>
        <beam number="1">begin</beam>
      </note>
      <note default-x="35">
        <pitch>
          <step>G</step>
          <octave>4</octave>
        </pitch>
        <duration>4</duration>
        <voice>1</voice>
        <type>eighth</type>
        <stem default-y="9">up</stem>
        <staff>1</staff>
        <beam number="1">continue</beam>
      </note>
      <note default-x="56">
        <pitch>
          <step>F</step>
          <alter>1</alter>
          <octave>4</octave>
        </pitch>
        <duration>4</duration>
        <voice>1</voice>
        <type>eighth</type>
        <stem default-y="7.5">up</stem>
        <staff>1</staff>
        <beam number="1">continue</beam>
        <notations>
          <technical>
            <fingering default-x="-34" default-y="-54" placement="below">2</fingering>
          </technical>
        </notations>
      </note>
      <note default-x="77">
        <pitch>
          <step>G</step>
          <octave>4</octave>
        </pitch>
        <duration>4</duration>
        <voice>1</voice>
        <type>eighth</type>
        <stem default-y="5.5">up</stem>
        <staff>1</staff>
        <beam number="1">end</beam>
        <notations>
          <technical>
            <fingering default-x="-35" default-y="-52" placement="below">3</fingering>
          </technical>
        </notations>
      </note>
      <note default-x="98">
        <pitch>
          <step>A</step>
          <octave>4</octave>
        </pitch>
        <duration>8</duration>
        <voice>1</voice>
        <type>quarter</type>
        <stem default-y="12">up</stem>
        <staff>1</staff>
        <notations>
          <slur bezier-x="-47" bezier-y="33" default-x="9" default-y="4" number="1" type="stop"/>
        </notations>
      </note>
      <backup>
        <duration>24</duration>
      </backup>
      <note default-x="13">
        <pitch>
          <step>D</step>
          <octave>4</octave>
        </pitch>
        <duration>16</duration>
        <voice>2</voice>
        <type>half</type>
        <stem default-y="-23">down</stem>
        <staff>2</staff>
        <notations>
          <slur bezier-x="-32" bezier-y="21" default-x="7" default-y="25" number="2" type="stop"/>
        </notations>
      </note>
      <note default-x="98">
        <rest/>
        <duration>8</duration>
        <voice>2</voice>
        <type>quarter</type>
        <staff>2</staff>
      </note>
    </measure>
    <!--=======================================================-->
    <measure number="29" width="140">
      <note default-x="11">
        <pitch>
          <step>D</step>
          <octave>4</octave>
        </pitch>
        <duration>4</duration>
        <voice>1</voice>
        <type>eighth</type>
        <stem default-y="11">up</stem>
        <staff>1</staff>
        <beam number="1">begin</beam>
        <notations>
          <slur bezier-x="31" bezier-y="21" default-x="14" default-y="16" number="1" placement="above" type="start"/>
        </notations>
      </note>
      <note default-x="32">
        <pitch>
          <step>E</step>
          <octave>4</octave>
        </pitch>
        <duration>4</duration>
        <voice>1</voice>
        <type>eighth</type>
        <stem default-y="12">up</stem>
        <staff>1</staff>
        <beam number="1">continue</beam>
      </note>
      <note default-x="54">
        <pitch>
          <step>F</step>
          <alter>1</alter>
          <octave>4</octave>
        </pitch>
        <duration>4</duration>
        <voice>1</voice>
        <type>eighth</type>
        <stem default-y="13">up</stem>
        <staff>1</staff>
        <beam number="1">continue</beam>
      </note>
      <note default-x="75">
        <pitch>
          <step>G</step>
          <octave>4</octave>
        </pitch>
        <duration>4</duration>
        <voice>1</voice>
        <type>eighth</type>
        <stem default-y="14.5">up</stem>
        <staff>1</staff>
        <beam number="1">continue</beam>
        <notations>
          <technical>
            <fingering default-x="-47" default-y="-54" placement="below">1</fingering>
          </technical>
        </notations>
      </note>
      <note default-x="96">
        <pitch>
          <step>A</step>
          <octave>4</octave>
        </pitch>
        <duration>4</duration>
        <voice>1</voice>
        <type>eighth</type>
        <stem default-y="15">up</stem>
        <staff>1</staff>
        <beam number="1">continue</beam>
      </note>
      <note default-x="117">
        <pitch>
          <step>B</step>
          <octave>4</octave>
        </pitch>
        <duration>4</duration>
        <voice>1</voice>
        <type>eighth</type>
        <stem default-y="17">up</stem>
        <staff>1</staff>
        <beam number="1">end</beam>
      </note>
      <backup>
        <duration>24</duration>
      </backup>
      <note default-x="11">
        <rest>
          <display-step>C</display-step>
          <display-octave>4</display-octave>
        </rest>
        <duration>8</duration>
        <voice>2</voice>
        <type>quarter</type>
        <staff>2</staff>
      </note>
      <note default-x="54">
        <rest>
          <display-step>C</display-step>
          <display-octave>4</display-octave>
        </rest>
        <duration>8</duration>
        <voice>2</voice>
        <type>quarter</type>
        <staff>2</staff>
      </note>
      <note default-x="96">
        <pitch>
          <step>F</step>
          <alter>1</alter>
          <octave>3</octave>
        </pitch>
        <duration>8</duration>
        <voice>2</voice>
        <type>quarter</type>
        <stem default-y="24">up</stem>
        <staff>2</staff>
        <notations>
          <technical>
            <fingering default-x="-51" default-y="31" placement="above">3</fingering>
          </technical>
        </notations>
      </note>
      <backup>
        <duration>24</duration>
      </backup>
      <note default-x="11">
        <pitch>
          <step>D</step>
          <octave>3</octave>
        </pitch>
        <duration>24</duration>
        <voice>3</voice>
        <type>half</type>
        <dot/>
        <stem default-y="-61">down</stem>
        <staff>2</staff>
      </note>
    </measure>
    <!--=======================================================-->
    <measure number="30" width="119">
      <note default-x="11">
        <pitch>
          <step>C</step>
          <octave>5</octave>
        </pitch>
        <duration>8</duration>
        <voice>1</voice>
        <type>quarter</type>
        <stem default-y="-55.5">down</stem>
        <staff>1</staff>
        <notations>
          <slur bezier-x="-25" bezier-y="43" default-x="9" default-y="-4" number="1" type="stop"/>
        </notations>
      </note>
      <note default-x="46">
        <pitch>
          <step>B</step>
          <octave>4</octave>
        </pitch>
        <duration>8</duration>
        <voice>1</voice>
        <type>quarter</type>
        <stem default-y="-61">down</stem>
        <staff>1</staff>
        <notations>
          <ornaments>
            <mordent default-x="-69" default-y="10" placement="above"/>
          </ornaments>
        </notations>
      </note>
      <note default-x="82">
        <pitch>
          <step>A</step>
          <octave>4</octave>
        </pitch>
        <duration>8</duration>
        <voice>1</voice>
        <type>quarter</type>
        <stem default-y="12">up</stem>
        <staff>1</staff>
      </note>
      <backup>
        <duration>24</duration>
      </backup>
      <note default-x="11">
        <pitch>
          <step>E</step>
          <octave>3</octave>
        </pitch>
        <duration>8</duration>
        <voice>2</voice>
        <type>quarter</type>
        <stem default-y="-56">down</stem>
        <staff>2</staff>
      </note>
      <note default-x="46">
        <pitch>
          <step>G</step>
          <octave>3</octave>
        </pitch>
        <duration>8</duration>
        <voice>2</voice>
        <type>quarter</type>
        <stem default-y="-44.5">down</stem>
        <staff>2</staff>
      </note>
      <note default-x="82">
        <pitch>
          <step>F</step>
          <alter>1</alter>
          <octave>3</octave>
        </pitch>
        <duration>8</duration>
        <voice>2</voice>
        <type>quarter</type>
        <stem default-y="-50">down</stem>
        <staff>2</staff>
      </note>
    </measure>
    <!--=======================================================-->
    <measure number="31" width="123">
      <direction placement="below">
        <direction-type>
          <wedge default-y="-89" spread="16" type="diminuendo"/>
        </direction-type>
        <offset>1</offset>
        <staff>1</staff>
      </direction>
      <note default-x="12">
        <pitch>
          <step>B</step>
          <octave>4</octave>
        </pitch>
        <duration>4</duration>
        <voice>1</voice>
        <type>eighth</type>
        <stem default-y="-60.5">down</stem>
        <staff>1</staff>
        <beam number="1">begin</beam>
        <notations>
          <slur bezier-x="12" bezier-y="15" default-x="6" default-y="-3" number="1" placement="above" type="start"/>
        </notations>
      </note>
      <note default-x="32">
        <pitch>
          <step>D</step>
          <octave>5</octave>
        </pitch>
        <duration>4</duration>
        <voice>1</voice>
        <type>eighth</type>
        <stem default-y="-55">down</stem>
        <staff>1</staff>
        <beam number="1">end</beam>
      </note>
      <note default-x="54">
        <pitch>
          <step>G</step>
          <octave>4</octave>
        </pitch>
        <duration>8</duration>
        <voice>1</voice>
        <type>quarter</type>
        <stem default-y="6.5">up</stem>
        <staff>1</staff>
        <notations>
          <slur bezier-x="-13" bezier-y="13" default-x="8" default-y="0" number="1" type="stop"/>
          <technical>
            <fingering default-x="-69" default-y="-53" placement="below">1</fingering>
          </technical>
        </notations>
      </note>
      <direction>
        <direction-type>
          <wedge spread="0" type="stop"/>
        </direction-type>
        <offset>3</offset>
        <staff>1</staff>
      </direction>
      <note default-x="88">
        <pitch>
          <step>F</step>
          <alter>1</alter>
          <octave>4</octave>
        </pitch>
        <duration>8</duration>
        <voice>1</voice>
        <type>quarter</type>
        <stem default-y="1">up</stem>
        <staff>1</staff>
        <notations>
          <technical>
            <fingering default-x="-75" default-y="-55" placement="below">2</fingering>
          </technical>
        </notations>
      </note>
      <backup>
        <duration>24</duration>
      </backup>
      <note default-x="12">
        <pitch>
          <step>G</step>
          <octave>3</octave>
        </pitch>
        <duration>8</duration>
        <voice>2</voice>
        <type>quarter</type>
        <stem default-y="-44.5">down</stem>
        <staff>2</staff>
        <notations>
          <slur bezier-x="16" bezier-y="6" default-x="7" default-y="6" number="1" placement="above" type="start"/>
        </notations>
      </note>
      <note default-x="54">
        <pitch>
          <step>B</step>
          <octave>2</octave>
        </pitch>
        <duration>8</duration>
        <voice>2</voice>
        <type>quarter</type>
        <stem default-y="6.5">up</stem>
        <staff>2</staff>
        <notations>
          <slur bezier-x="-4" bezier-y="18" default-x="6" default-y="-18" number="1" type="stop"/>
        </notations>
      </note>
      <note default-x="88">
        <pitch>
          <step>D</step>
          <octave>3</octave>
        </pitch>
        <duration>8</duration>
        <voice>2</voice>
        <type>quarter</type>
        <stem default-y="-61">down</stem>
        <staff>2</staff>
        <notations>
          <technical>
            <fingering default-x="-152" default-y="14" placement="above">1</fingering>
          </technical>
        </notations>
      </note>
    </measure>
    <!--=======================================================-->
    <measure number="32" width="139">
      <note default-x="14">
        <pitch>
          <step>B</step>
          <octave>3</octave>
        </pitch>
        <duration>24</duration>
        <voice>1</voice>
        <type>half</type>
        <dot/>
        <stem default-y="6.5">up</stem>
        <staff>1</staff>
      </note>
      <note default-x="14">
        <chord/>
        <pitch>
          <step>D</step>
          <octave>4</octave>
        </pitch>
        <duration>24</duration>
        <voice>1</voice>
        <type>half</type>
        <dot/>
        <stem>up</stem>
        <staff>1</staff>
      </note>
      <note default-x="14">
        <chord/>
        <pitch>
          <step>G</step>
          <octave>4</octave>
        </pitch>
        <duration>24</duration>
        <voice>1</voice>
        <type>half</type>
        <dot/>
        <stem>up</stem>
        <staff>1</staff>
      </note>
      <backup>
        <duration>24</duration>
      </backup>
      <note default-x="14">
        <pitch>
          <step>G</step>
          <octave>3</octave>
        </pitch>
        <duration>8</duration>
        <voice>2</voice>
        <type>quarter</type>
        <stem default-y="-44.5">down</stem>
        <staff>2</staff>
      </note>
      <note default-x="49">
        <pitch>
          <step>D</step>
          <octave>3</octave>
        </pitch>
        <duration>8</duration>
        <voice>2</voice>
        <type>quarter</type>
        <stem default-y="-61">down</stem>
        <staff>2</staff>
        <notations>
          <technical>
            <fingering default-x="-82" default-y="10" placement="above">2</fingering>
          </technical>
        </notations>
      </note>
      <note default-x="84">
        <pitch>
          <step>G</step>
          <octave>2</octave>
        </pitch>
        <duration>8</duration>
        <voice>2</voice>
        <type>quarter</type>
        <stem default-y="-5">up</stem>
        <staff>2</staff>
      </note>
      <barline location="right">
        <bar-style>light-heavy</bar-style>
        <repeat direction="backward" winged="none"/>
      </barline>
    </measure>
  </part>
  <!--=========================================================-->
</score-partwise>
